<?xml version="1.0" standalone="no"?>
<!DOCTYPE svg PUBLIC "-//W3C//DTD SVG 1.1//EN" "http://www.w3.org/Graphics/SVG/1.1/DTD/svg11.dtd" >
<svg xmlns="http://www.w3.org/2000/svg" xmlns:xlink="http://www.w3.org/1999/xlink" version="1.1">
<metadata></metadata>
<defs>
<font id="tfforeverbold" horiz-adv-x="1318" >
<font-face units-per-em="2048" ascent="1638" descent="-410" />
<missing-glyph horiz-adv-x="512" />
<glyph horiz-adv-x="0" />
<glyph unicode="&#xd;" horiz-adv-x="512" />
<glyph unicode=" "  horiz-adv-x="512" />
<glyph unicode="&#x09;" horiz-adv-x="512" />
<glyph unicode="&#xa0;" horiz-adv-x="512" />
<glyph unicode="!" horiz-adv-x="614" d="M100 166q0 84 58.5 142.5t142.5 58.5q96 0 160.5 -55.5t64.5 -145.5q0 -41 -17 -77t-47 -61.5t-69 -40t-80 -14.5q-98 0 -155.5 56.5t-57.5 136.5zM109 815v713h405v-713l-20 -276l-357 -39z" />
<glyph unicode="&#x22;" horiz-adv-x="667" d="M70 1548h217l-35 -477h-148zM381 1548h223l-35 -477h-153z" />
<glyph unicode="#" horiz-adv-x="1560" d="M29 444l51 218h319l62 264h-318l47 217h320l106 469h232l-107 -469h226l108 469h234l-111 -469h328l-47 -217h-328l-64 -264h328l-51 -218h-330l-123 -538h-229l119 538h-226l-124 -542h-230l127 542h-319zM625 662h227l63 264h-229z" />
<glyph unicode="$" horiz-adv-x="1232" d="M55 358q51 -23 115 -41q53 -16 122.5 -27t147.5 -9q84 2 139.5 38.5t55.5 133.5q0 45 -22.5 81.5t-59.5 67.5t-84 57.5t-94 53.5q-57 33 -113.5 70.5t-100.5 87t-69.5 114t-19.5 150.5q4 82 31.5 147.5t70.5 113.5t99.5 80.5t117.5 51.5v106h406v-102q10 0 19 -4t15 -4 q10 -4 22.5 -9.5t25.5 -9.5l28 -12l78 -311q-14 6 -38.5 20.5t-61.5 28.5t-90.5 23.5t-124.5 5.5q-33 -2 -66 -10.5t-59.5 -27t-43 -49t-16.5 -73.5t25 -76t63.5 -58.5t82.5 -47t85 -39.5q51 -25 107.5 -59t104.5 -85t79 -122t31 -169q0 -152 -75 -248t-191 -149v-213h-406 v148q-59 0 -131 14q-43 6 -76 20l-30 15z" />
<glyph unicode="%" horiz-adv-x="1839" d="M55 1161q0 80 16.5 150.5t59.5 123t115.5 83t185.5 30.5q111 0 183.5 -29.5t117.5 -82t63.5 -123t18.5 -152.5q0 -80 -18.5 -150.5t-63.5 -123.5t-117.5 -84t-183.5 -31q-106 0 -178 32t-116 85t-63.5 123.5t-19.5 148.5zM303 1161q0 -106 31 -161.5t98 -55.5 q74 0 104.5 53t30.5 164q0 109 -30.5 167t-104.5 58q-72 0 -100.5 -58t-28.5 -167zM444 -47l738 1651h235l-743 -1651h-230zM1042 362q0 80 17.5 151t60.5 124t116 84t185 31q109 0 181.5 -31t115.5 -84t60.5 -124t17.5 -151q0 -78 -18.5 -149.5t-61.5 -125.5t-114.5 -86 t-180.5 -32t-181.5 32t-116.5 86t-62.5 126t-18.5 149zM1288 362q0 -111 30 -166t103 -55q70 0 98.5 55t28.5 166t-28.5 166.5t-98.5 55.5q-74 0 -103.5 -55.5t-29.5 -166.5z" />
<glyph unicode="&#x26;" horiz-adv-x="1425" d="M39 444q0 121 43 202t94 134q59 59 137 99q-39 35 -67 82q-25 41 -45.5 97t-16.5 128q4 98 42 168.5t100.5 116t143.5 64.5t171 17q111 -2 194 -31.5t138 -79.5t82.5 -117t27.5 -142q0 -80 -21.5 -138.5t-56 -101.5t-74.5 -70.5t-75 -45t-60 -23.5l-24 -6l254 -265 q16 20 31 50q12 25 26.5 60.5t26.5 82.5q23 98 29 162.5t6 68.5l237 -69q2 -37 -2 -80q-4 -37 -13 -89t-26 -112q-23 -72 -46 -121t-44 -82q-23 -37 -47 -61l170 -180l-217 -197l-166 176q0 -2 -30.5 -27.5t-87 -56t-138.5 -55.5t-184 -25q-74 0 -163 24t-167 78t-130 143 t-52 222zM389 444q8 -84 66.5 -134t165.5 -50q43 0 76.5 11.5t58.5 27.5q28 16 51 39l-307 332q-37 -18 -62 -49q-23 -27 -39 -70t-10 -107zM530 1174q0 -41 13.5 -76t29 -59.5t28.5 -39t15 -14.5q39 14 72 39q27 23 49.5 59t22.5 91q0 53 -25.5 95t-93.5 44q-53 2 -82 -38 t-29 -101z" />
<glyph unicode="'" horiz-adv-x="348" d="M70 1548h217l-35 -477h-148z" />
<glyph unicode="(" horiz-adv-x="602" d="M59 729q10 209 73 371t134 274q82 131 187 230l102 -29q0 -2 -33 -54.5t-73.5 -158t-76.5 -264t-42 -373.5q-6 -236 28.5 -412t77.5 -295q51 -139 119 -235l-102 -39q-119 94 -209 238q-39 61 -75 137t-62.5 169t-40 203.5t-7.5 237.5z" />
<glyph unicode=")" horiz-adv-x="602" d="M55 -217q68 96 121 235q45 119 81 295t30 412q-6 215 -43 373.5t-79 264t-76 158t-34 54.5l107 29q102 -98 186 -230q72 -113 134.5 -274.5t72.5 -370.5q6 -127 -8.5 -237.5t-41 -203.5t-62 -169t-74.5 -137q-90 -143 -207 -238z" />
<glyph unicode="*" horiz-adv-x="593" d="M18 1161l230 99l-221 88l59 108l188 -147l-26 239h125l-39 -239l188 147l72 -113l-236 -83l232 -91l-68 -110l-188 143l39 -233h-125l26 233l-188 -143z" />
<glyph unicode="+" horiz-adv-x="1208" d="M59 627v286h402v392h291v-392h393v-286h-393v-410h-291v410h-402z" />
<glyph unicode="," horiz-adv-x="589" d="M-12 -240q31 41 59 86q25 37 49.5 83t36.5 91q12 47 7 91.5t-17 79t-25.5 58t-15.5 27.5l387 91q0 -2 14.5 -28t23.5 -70t4 -102t-42 -124q-39 -66 -90 -126t-98 -107q-55 -53 -115 -101z" />
<glyph unicode="-" horiz-adv-x="724" d="M39 444v285h645v-285h-645z" />
<glyph unicode="." horiz-adv-x="585" d="M80 166q0 41 16.5 78t44 64.5t63.5 43t77 15.5q49 0 91 -14.5t72.5 -40t49 -63.5t18.5 -83q0 -41 -17.5 -77t-48 -61.5t-70.5 -40t-83 -14.5q-96 0 -154.5 56.5t-58.5 136.5z" />
<glyph unicode="/" horiz-adv-x="532" d="M-66 -174l420 1769h174l-417 -1769h-177z" />
<glyph unicode="0" horiz-adv-x="1239" d="M43 760q-2 160 25.5 303t94 250.5t178.5 171t277 63.5q162 0 272.5 -63.5t179.5 -171t98.5 -250.5t29.5 -303q0 -164 -31.5 -307.5t-100.5 -251t-179.5 -170t-268.5 -62.5q-160 0 -269 62.5t-177 170t-97.5 251t-31.5 307.5zM453 760q0 -465 165 -465q92 0 129 117 t37 348q0 236 -36.5 356.5t-129.5 120.5q-84 0 -124.5 -121t-40.5 -356z" />
<glyph unicode="1" horiz-adv-x="1239" d="M190 1083l72 332l619 125v-1544h-410v1147z" />
<glyph unicode="2" horiz-adv-x="1239" d="M100 330q70 61 140 123q59 53 127.5 112.5t128.5 112.5q37 35 75.5 72.5t69.5 82t47.5 94.5t9.5 109q-16 174 -223 193q-78 6 -142.5 -8.5t-109.5 -34.5q-53 -23 -94 -56l78 338q47 23 106 41q51 16 123 28.5t164 10.5q41 -2 94.5 -9t109.5 -27.5t111.5 -53.5t98.5 -85 t70.5 -124.5t27.5 -169.5q2 -109 -28.5 -190.5t-83 -148t-122 -122t-147.5 -106.5q-41 -27 -88 -60.5t-88 -62.5q-49 -35 -96 -70h657l-78 -323h-870z" />
<glyph unicode="3" horiz-adv-x="1239" d="M106 383q39 -27 93 -49q45 -18 108.5 -34.5t145.5 -14.5q51 0 96 11t79 33.5t52 55.5t18 80q0 37 -17 63.5t-45 45t-62.5 29.5t-71.5 18q-86 14 -197 10l78 291q82 0 149 18q57 16 103.5 50t46.5 102q-2 137 -221 141q-78 0 -140.5 -11.5t-105.5 -27.5q-51 -18 -88 -41 l68 315q47 23 106 41q51 16 123 27.5t160 11.5q61 0 149 -14t170 -54t139.5 -114t57.5 -192q0 -86 -26.5 -147.5t-68.5 -104.5t-90.5 -69t-90.5 -40t-70 -19l-29 -6l29 -4q30 -4 73 -17t94.5 -39t93.5 -66.5t70.5 -100t26.5 -143.5q-2 -98 -30.5 -169t-74.5 -121t-104.5 -81 t-118 -48t-116 -23.5t-97.5 -6.5q-90 -2 -160.5 11.5t-121.5 29.5q-59 18 -107 41z" />
<glyph unicode="4" horiz-adv-x="1239" d="M27 670l563 858h469v-875h129v-323h-129v-330h-402v326h-548zM362 653h295v477z" />
<glyph unicode="5" horiz-adv-x="1239" d="M133 389q39 -27 92 -49q45 -18 108.5 -33.5t143.5 -15.5q106 0 175 48t69 148q0 180 -213 211q-78 10 -143.5 6t-112.5 -14q-55 -12 -102 -31l47 869h866v-311h-516l-17 -261q23 4 54 7q25 2 60.5 2t76.5 -4q86 -8 160.5 -37t130 -84.5t88.5 -136t35 -193.5 q2 -115 -27 -199t-75 -143t-105.5 -98t-119.5 -60.5t-115.5 -31t-94.5 -9.5q-86 0 -157.5 12.5t-122 28t-79 28.5t-30.5 13z" />
<glyph unicode="6" horiz-adv-x="1239" d="M76 756q0 166 31.5 288.5t84 210.5t118 144.5t133 89.5t132 46t111.5 15q88 2 152.5 -11t104.5 -28.5t59.5 -30t19.5 -16.5l78 -331q-37 27 -88 49q-43 18 -105.5 32.5t-140.5 14.5q-66 -2 -112 -21.5t-75.5 -50.5t-46 -68.5t-24.5 -74.5t-9 -68t-1 -49q33 18 69 33 q33 12 78 23.5t100 11.5q72 0 150 -19.5t142.5 -74t106.5 -150.5t40 -248h2q-2 -152 -60.5 -251t-144.5 -156.5t-184.5 -78t-180.5 -16.5q-84 6 -179 41t-175 123t-133 237.5t-53 383.5zM500 692q-6 -109 4 -192q4 -37 13 -72t23.5 -63.5t37 -46t53.5 -19.5q39 -2 67.5 17.5 t48 52t29.5 74.5t10 83q0 39 -9 78t-27.5 68.5t-47 48t-67.5 18.5q-35 0 -60.5 -6t-42.5 -16q-20 -10 -32 -25z" />
<glyph unicode="7" horiz-adv-x="1239" d="M66 1194l77 334h1041l-469 -1532h-426l426 1198h-649z" />
<glyph unicode="8" horiz-adv-x="1239" d="M70 387q0 82 23.5 141.5t60 101.5t79.5 67.5t81 41t64 20.5l25 5q-2 0 -49 18.5t-104 61.5t-103.5 114.5t-46.5 180.5q0 123 56.5 203.5t137.5 128t170 65.5t157 18q72 0 162.5 -19t170.5 -66.5t134.5 -127t52.5 -202.5q-2 -104 -45 -168t-95 -99q-61 -41 -137 -57 q86 -27 154 -80q59 -47 106 -127t47 -207q0 -123 -53 -206.5t-134 -134t-177 -71t-182 -20.5q-90 0 -187.5 18.5t-178.5 65.5t-135 127t-54 207zM471 473q-4 -104 42 -148t108 -44q59 0 104 42t41 134q-4 59 -29.5 98t-54.5 61q-35 27 -78 41q-2 0 -21.5 -10t-44 -31.5 t-45 -57.5t-22.5 -85zM489 1110q0 -47 24 -81t52 -58q33 -29 76 -49q33 16 59 43q23 23 42.5 57.5t19.5 87.5q0 70 -38 105.5t-103 35.5q-59 0 -96.5 -35.5t-35.5 -105.5z" />
<glyph unicode="9" horiz-adv-x="1239" d="M57 1055q4 131 51.5 226t121 156.5t166.5 90t190 26.5q31 -2 86 -9t118.5 -33.5t130 -77t120 -137.5t87 -217t33.5 -312q0 -166 -31.5 -290t-84 -212t-119 -144t-134 -89t-131 -46.5t-110.5 -13.5q-90 -2 -153.5 11.5t-105.5 29t-61.5 29.5t-19.5 16l-82 334 q37 -27 88 -49q43 -18 105.5 -34.5t148.5 -14.5q55 0 96 14.5t70 38t47 53t31 60.5q27 72 24 166q-31 -18 -67 -33q-33 -12 -79 -22.5t-106 -8.5q-57 0 -132.5 17.5t-143.5 68.5t-113 148.5t-41 257.5zM459 1004q-2 -86 34.5 -148.5t114.5 -67.5q35 -2 59.5 4.5t41.5 16.5 q18 11 30 25q8 109 -2 194q-4 37 -13 72t-25.5 62.5t-39 46t-55.5 20.5q-37 2 -63.5 -17.5t-45 -52.5t-27.5 -75t-9 -80z" />
<glyph unicode=":" horiz-adv-x="593" d="M84 193q0 86 57.5 143t143.5 57q98 0 162.5 -55t64.5 -145q0 -43 -17.5 -78t-48 -60.5t-70.5 -40t-83 -14.5q-96 0 -152.5 53t-56.5 140zM84 940q0 84 57.5 139.5t143.5 55.5q98 0 162.5 -52.5t64.5 -142.5q0 -43 -17.5 -80t-48 -62.5t-70.5 -40t-83 -14.5 q-96 0 -152.5 54.5t-56.5 142.5z" />
<glyph unicode=";" horiz-adv-x="589" d="M-18 -236q39 51 69 101q27 41 50.5 86t31.5 76q10 47 4 91t-18.5 77.5t-24.5 56t-14 29.5l385 90q0 -2 13.5 -28t22.5 -70t5 -102t-41 -124t-89 -125t-100 -106q-55 -53 -114 -101zM76 940q0 41 16.5 77t44 61.5t63.5 41t76 15.5q98 0 165 -52.5t67 -142.5 q0 -43 -17.5 -80t-48 -62.5t-70.5 -40t-83 -14.5q-96 0 -154.5 54.5t-58.5 142.5z" />
<glyph unicode="&#x3c;" horiz-adv-x="1200" d="M57 633v186l1084 531v-267l-781 -358l781 -350v-269z" />
<glyph unicode="=" horiz-adv-x="1204" d="M51 338v289h1088v-289h-1088zM51 831v287h1088v-287h-1088z" />
<glyph unicode="&#x3e;" horiz-adv-x="1200" d="M63 106v269l779 354l-779 354v271l1080 -535v-186z" />
<glyph unicode="?" horiz-adv-x="1019" d="M23 1153l67 328q2 0 26.5 11t68.5 23.5t108.5 22.5t146.5 10q92 -2 184.5 -18.5t166 -57t121 -113t53.5 -185.5q4 -76 -14.5 -130.5t-49.5 -95.5t-69.5 -71.5t-76.5 -58t-71 -53.5t-51 -56q-18 -31 -25.5 -61t-9.5 -54q-2 -29 0 -55l-346 -39q-16 31 -25 67q-8 31 -11 70 t7 80q18 80 71.5 126t110 83t99.5 77.5t39 110.5q-2 51 -30 79t-62.5 40t-67.5 13t-45 1q-66 -4 -123 -19.5t-100 -31.5q-51 -20 -92 -43zM223 170q0 84 56.5 136t152.5 52q43 0 82 -12t69.5 -36.5t48 -59.5t17.5 -80q0 -41 -17.5 -76t-47 -60.5t-68.5 -39.5t-80 -14 q-98 0 -155.5 52t-57.5 138z" />
<glyph unicode="@" horiz-adv-x="1761" d="M27 768q6 178 67.5 333.5t170 272.5t264 184.5t350.5 67.5q178 0 341.5 -52t284.5 -160.5t186.5 -273.5t45.5 -388q-16 -184 -87 -307t-164 -194t-195.5 -94.5t-182.5 -6.5q-70 12 -113 40.5t-67.5 65.5t-32.5 77t-8 77q0 35 10 82q4 25 10 51q-43 -102 -98 -178 q-25 -33 -53.5 -63t-63.5 -51.5t-74.5 -31.5t-82.5 -2q-84 14 -126 78.5t-57.5 150.5t-10.5 179.5t17 162.5q20 106 62.5 198.5t101 163.5t128 114t147.5 51q72 6 120 -12.5t76 -42.5q33 -29 51 -70q4 14 11 29q4 12 8 23l8 22q12 29 51 28h248l-176 -780q-6 -25 -6 -51.5 t8 -49t26.5 -39t49.5 -18.5q43 -10 96 9.5t102.5 69.5t86 130t47.5 189q18 203 -34 346t-153.5 234t-241 133t-292.5 44q-154 2 -287 -56t-231.5 -159.5t-156.5 -237.5t-63 -292q-6 -184 44.5 -324.5t146.5 -238t236.5 -150.5t314.5 -63q33 -2 56.5 -3t53.5 3l9 -94 q-35 -4 -59.5 -8.5t-59.5 -4.5q-195 2 -356.5 60.5t-276.5 170t-175.5 276.5t-51.5 380zM650.5 614q-1.5 -49 7 -79.5t22.5 -45t33 -16.5q31 -4 66.5 32t72.5 100.5t71.5 153.5t65.5 193l21 72q-4 2 -12.5 13.5t-20.5 22.5t-32.5 19t-49.5 8q-78 -2 -138.5 -95t-90.5 -257 q-14 -72 -15.5 -121z" />
<glyph unicode="A" d="M23 0l440 1528h399l451 -1528h-432l-47 244h-336l-54 -244h-421zM555 543h223l-106 524h-8z" />
<glyph unicode="B" horiz-adv-x="1273" d="M100 0v1528h508q86 0 160 -7.5t143 -27.5q61 -16 111.5 -46t85.5 -73t54.5 -101.5t19.5 -133.5q-2 -78 -22.5 -133.5t-55.5 -92.5q-41 -43 -88 -75.5t-96 -49.5q49 -12 104 -31.5t100 -62.5q47 -43 71 -99t24 -134q0 -106 -32 -191.5t-100 -144.5q-45 -39 -102 -63.5 t-118.5 -38t-125 -18.5t-120.5 -5h-521zM506 326h98q41 0 83 6t71 35q43 32 43 122q0 82 -47 129q-29 27 -66 35.5t-84 8.5h-98v-336zM506 926h98q27 0 55.5 6t52 23.5t40 46t16.5 73.5v6q0 80 -53 117q-23 20 -53.5 25.5t-57.5 5.5h-98v-303z" />
<glyph unicode="C" horiz-adv-x="1196" d="M86 764q0 158 47 317.5t170 288.5q84 86 202 135t271 49q66 0 113 -10t82 -20q37 -14 67 -31l76 -328q-6 4 -23.5 15.5t-47 22.5t-74.5 20.5t-107 9.5q-74 0 -136 -25.5t-110 -77.5q-53 -55 -82.5 -148t-29.5 -218q0 -96 20.5 -171t50.5 -128q47 -78 121 -118t205 -40 q53 0 101.5 10.5t84.5 22.5q43 15 82 35l-102 -344q-37 -18 -84 -31q-41 -12 -97.5 -21.5t-125.5 -9.5q-164 0 -279.5 45t-197.5 131q-57 57 -95 132t-61 156t-32 166t-9 165z" />
<glyph unicode="D" horiz-adv-x="1347" d="M104 0v1528h496q164 0 274.5 -41t188.5 -121q27 -27 61.5 -73t65.5 -117.5t52.5 -173t21.5 -238.5q0 -131 -23.5 -231.5t-57.5 -173t-71 -121t-65 -76.5q-84 -84 -189.5 -123t-253.5 -39h-500zM510 326h94q31 0 72 12t78 57t62.5 132t25.5 237q0 135 -18.5 224 t-51.5 142.5t-77 76t-91 22.5h-94v-903z" />
<glyph unicode="E" horiz-adv-x="1052" d="M106 0v1528h828l76 -330h-500v-268h436v-316h-436v-284h530l-79 -330h-855z" />
<glyph unicode="F" horiz-adv-x="1019" d="M109 0v1528h831l76 -330h-498v-293h430v-325h-430v-580h-409z" />
<glyph unicode="G" horiz-adv-x="1327" d="M80 764q0 162 48 315.5t169 282.5q80 86 210 139t310 53q78 0 137.5 -10t100.5 -20q47 -14 82 -31l77 -324q-8 4 -30.5 17.5t-59.5 27t-87 23.5t-113 10q-111 0 -185.5 -26.5t-134.5 -90.5q-59 -63 -89 -152t-30 -214q0 -158 35 -249t84 -136q41 -39 91 -53.5t93 -14.5 q23 0 39.5 1t26.5 3t18 7v301h-141v251h508v-823q-25 -12 -57 -20q-57 -18 -152 -35q-59 -10 -121.5 -16.5t-132.5 -6.5q-94 0 -171 14.5t-141.5 44t-119.5 76t-106 109.5q-86 104 -122 249.5t-36 297.5z" />
<glyph unicode="H" horiz-adv-x="1323" d="M104 0v1528h406v-555h307v555h410v-1528h-410v641h-307v-641h-406z" />
<glyph unicode="I" horiz-adv-x="610" d="M100 0v1528h410v-1528h-410z" />
<glyph unicode="J" horiz-adv-x="999" d="M-4 326q8 -6 27.5 -18.5t47 -25t64.5 -21.5t80 -9q53 0 99 16.5t79 53.5t44.5 99t11.5 146v961h413v-961q0 -201 -43 -319.5t-119 -192.5q-37 -35 -78.5 -57.5t-87 -34.5t-89.5 -17t-83 -5q-59 0 -108 8t-84 18q-41 12 -76 29z" />
<glyph unicode="K" horiz-adv-x="1257" d="M100 0v1528h410v-567l307 567h436l-409 -721l418 -807h-435l-317 657v-657h-410z" />
<glyph unicode="L" horiz-adv-x="995" d="M102 0v1528h410v-1198h481l-75 -330h-816z" />
<glyph unicode="M" horiz-adv-x="1556" d="M106 0v1528h396l278 -295l283 295h395v-1528h-403v952l-275 -303l-268 299v-948h-406z" />
<glyph unicode="N" horiz-adv-x="1363" d="M109 0v1528h335l422 -690v690h398v-1528h-332l-424 702v-702h-399z" />
<glyph unicode="O" horiz-adv-x="1441" d="M82 764v17q0 150 33 286q35 143 112.5 251.5t199.5 172t296 63.5q178 0 299 -64.5t196.5 -173t107.5 -251.5t32 -301q0 -160 -39 -304.5t-118 -253t-197.5 -173t-280.5 -64.5q-182 0 -305 64.5t-197 173t-105.5 253t-33.5 304.5zM506 764q0 -127 11 -214t37 -140.5 t68 -78t101 -24.5q111 0 164 108.5t53 348.5q0 102 -8 188t-30.5 147.5t-65.5 97.5t-113 36q-72 0 -115 -32t-65.5 -93t-29.5 -148.5t-7 -195.5z" />
<glyph unicode="P" horiz-adv-x="1273" d="M109 0v1528h477q119 0 231.5 -23.5t200.5 -84t141 -165t53 -266.5q0 -129 -35.5 -222t-101.5 -153q-92 -90 -207.5 -121.5t-246.5 -31.5h-107v-461h-405zM514 760h102q29 0 67 14t73 64q12 18 23.5 59t11.5 92q0 76 -16.5 123t-42 73.5t-56.5 35t-60 8.5h-102v-469z" />
<glyph unicode="Q" horiz-adv-x="1445" d="M88 764q0 162 35 305t111.5 250.5t198.5 171t294 63.5q178 0 300 -64.5t196.5 -173t107.5 -251.5q31 -135 31 -283v-18q-2 -121 -19.5 -216t-45 -169t-61.5 -128t-71 -93q-84 -92 -190 -127q41 -18 83 -32.5t95 -25.5q47 -10 98.5 -17t65.5 -7l-98 -268q-2 0 -40 8 t-102.5 25.5t-148.5 44t-175 64.5t-183.5 86t-174.5 109q-72 53 -128 123t-96 160t-61.5 205t-21.5 258zM506 764q0 -127 13 -214t41 -140.5t70 -78t97 -24.5q113 0 165 108.5t52 348.5q0 102 -7 188t-29.5 148.5t-65.5 97.5t-115 35q-74 0 -118 -33t-66.5 -93t-29.5 -147.5 t-7 -195.5z" />
<glyph unicode="R" horiz-adv-x="1290" d="M109 0v1528h512q125 0 234.5 -27.5t189 -89t126 -161t46.5 -242.5q0 -133 -38 -220.5t-85 -138.5t-88 -71.5l-45 -22.5l299 -555h-439l-223 504h-84v-504h-405zM514 756h102q25 0 55.5 11t58.5 37.5t46.5 71.5t18.5 113q0 72 -17.5 119t-43 73.5t-57.5 37t-61 10.5h-102 v-473z" />
<glyph unicode="S" horiz-adv-x="1093" d="M43 358q4 0 59.5 -22.5t145.5 -40.5q70 -14 147 -14q18 0 42 2t48.5 7t47 14t36.5 22q29 25 42.5 52.5t13.5 65.5q0 57 -30 96.5t-77 73.5q-49 35 -109.5 68t-121 72t-112.5 87t-83 115q-18 41 -24.5 84t-6.5 95q0 37 8.5 78.5t28 83.5t53 82t85.5 73q84 53 165.5 74.5 t180.5 21.5q84 0 143 -9t97 -19.5t56.5 -19.5t18.5 -11l78 -311q-23 12 -59.5 30.5t-94.5 30.5q-29 6 -57.5 9t-52.5 3q-74 0 -111 -11t-65 -28q-31 -18 -45.5 -51t-14.5 -65q0 -49 37 -95q35 -39 98.5 -67.5t133 -62t137 -78.5t110.5 -119q60 -100 60 -225 q0 -129 -52.5 -220.5t-134.5 -148.5t-182 -84t-195 -27q-84 0 -147.5 9.5t-107.5 21.5t-66.5 21.5t-24.5 9.5z" />
<glyph unicode="T" horiz-adv-x="1073" d="M8 1198l72 330h987l-74 -330h-256v-1198h-405v1198h-324z" />
<glyph unicode="U" d="M100 535v993h406v-1051q0 -68 38 -121t118 -53t113.5 53.5t33.5 120.5v1051h410v-993q0 -123 -26 -213.5t-91 -167.5q-84 -102 -197.5 -143.5t-242.5 -41.5q-133 0 -243 40t-202 147q-61 72 -89 165t-28 214z" />
<glyph unicode="V" horiz-adv-x="1306" d="M12 1528h422l219 -940l221 940h418l-452 -1528h-375z" />
<glyph unicode="W" horiz-adv-x="1933" d="M2 1528h424l174 -895l176 895h375l174 -891l176 891h422l-410 -1532h-374l-176 815l-175 -815h-376z" />
<glyph unicode="X" horiz-adv-x="1306" d="M8 0l432 784l-432 744h432l213 -441l217 441h426l-430 -744l430 -784h-426l-217 457l-213 -457h-432z" />
<glyph unicode="Y" horiz-adv-x="1298" d="M2 1528h432l213 -465l223 465h422l-440 -799v-729h-410v735z" />
<glyph unicode="Z" horiz-adv-x="1048" d="M-23 0l484 1194h-453l72 334h926l-469 -1194h512l-76 -334h-996z" />
<glyph unicode="[" horiz-adv-x="622" d="M43 -303v1911h524v-213h-217v-1471h217v-227h-524z" />
<glyph unicode="\" horiz-adv-x="520" d="M-49 1587h184l387 -1667h-178z" />
<glyph unicode="]" horiz-adv-x="622" d="M51 -76h217v1471h-217v213h520v-1911h-520v227z" />
<glyph unicode="^" horiz-adv-x="966" d="M16 780l363 748h205l370 -752h-174l-295 602l-303 -598h-166z" />
<glyph unicode="_" horiz-adv-x="1024" d="M-6 -276h1046v-95h-1046v95z" />
<glyph unicode="`" horiz-adv-x="1032" d="M293 1354l49 182l377 -182v-137z" />
<glyph unicode="a" horiz-adv-x="1052" d="M27 326q0 66 21.5 128t62.5 109q84 92 205.5 127t254.5 35q16 0 31.5 -1t26.5 -1q12 -2 20 -2v39q0 25 -4 58.5t-22 58.5q-25 27 -69 48q-40 19 -124 19h-16q-72 -2 -128.5 -21.5t-95.5 -43.5q-47 -29 -79 -64l55 281q37 20 88 37q43 14 103.5 25t136.5 11 q145 0 241 -33.5t156 -93.5q59 -61 80.5 -134.5t21.5 -186.5v-721h-188q-16 0 -48 4t-55 27q-18 20 -23 50t-5 48v37q-23 -47 -59.5 -82t-82 -57.5t-95.5 -33.5q-42 -9 -84 -9h-15q-86 2 -145.5 34.5t-96.5 80.5t-53 107.5t-16 119.5zM358 362q0 -68 39 -101.5t92 -33.5 q20 0 44 6.5t42 18.5q29 18 51.5 51t22.5 76v133q0 4 -25.5 6t-64.5 2q-59 0 -108.5 -15.5t-71.5 -60.5q-10 -16 -15.5 -35.5t-5.5 -46.5z" />
<glyph unicode="b" horiz-adv-x="1179" d="M96 0v1536h342v-516q18 41 56 74q29 29 79 52t121 23q41 0 79 -4t79 -20q80 -33 132 -97.5t84 -144.5t44 -167t12 -165q0 -104 -22.5 -210.5t-71.5 -190.5t-126 -137t-185 -53q-53 0 -97 13t-79 33.5t-62.5 46t-48.5 52.5v-125h-336zM438 291q20 -18 45 -31 q20 -10 48 -19.5t57 -9.5q31 0 61.5 14.5t55 52.5t41 105.5t16.5 171.5v14q0 148 -41 235q-43 91 -133 94q-49 0 -78 -19.5t-45 -51.5t-21.5 -71t-5.5 -76v-409z" />
<glyph unicode="c" horiz-adv-x="913" d="M43 567q0 121 34 229.5t100.5 190.5t163.5 130t226 48q74 0 124 -11t83 -26q37 -16 62 -36l38 -269q-20 20 -51 37q-27 14 -65.5 26.5t-91.5 12.5q-49 0 -96.5 -17.5t-82 -55.5t-56 -97t-21.5 -145q0 -170 69.5 -253t194.5 -83q96 0 150 30.5t79 59.5l-41 -303 q-55 -20 -122.5 -37.5t-172.5 -17.5q-86 0 -181 27.5t-161 86.5q-98 86 -140 214t-42 259z" />
<glyph unicode="d" horiz-adv-x="1159" d="M37 567q0 117 24.5 225.5t76.5 192.5t131 134t190 50q78 0 129 -23.5t82 -51.5q35 -33 53 -74v516h346v-1536h-338v125q-43 -53 -106.5 -98t-161.5 -50h-17q-106 -1 -181 47q-81 52 -132 135t-73.5 190.5t-22.5 217.5zM403 567q0 -178 45.5 -257t116.5 -79q29 0 52.5 7.5 t46.5 17.5q33 14 47 29q8 8 16 18v397q0 18 -2 43t-7 51.5t-15.5 50t-24.5 38.5q-25 23 -48.5 33t-58.5 10q-49 0 -80.5 -29t-51 -78t-28 -114.5t-8.5 -137.5z" />
<glyph unicode="e" horiz-adv-x="1060" d="M39 551q0 53 7 119.5t27.5 135t56.5 133.5t92.5 115t135 80.5t185.5 30.5q156 0 249 -62.5t144 -155.5t67.5 -199.5t16.5 -192.5v-74h-633v-16q0 -20 11.5 -58t45 -76t93 -66.5t157.5 -28.5q63 0 114.5 10t88.5 25.5t61.5 31.5t38.5 27l-32 -267q-14 -8 -42 -22 t-71 -27.5t-103.5 -23.5t-138.5 -10q-178 0 -288.5 60t-174 148t-86 186.5t-22.5 176.5zM387 674h307q0 8 -2 48t-15 86t-45 83t-89 39h-6q-56 0 -87 -34q-32 -36 -46.5 -82t-15.5 -88t-1 -52z" />
<glyph unicode="f" horiz-adv-x="761" d="M8 915l47 226h111v45q0 96 25.5 166.5t71.5 118t109.5 70t139.5 22.5q53 0 93 -8.5t67 -18.5q31 -12 49 -27l39 -229q-10 12 -29 23q-16 10 -38.5 17t-55.5 7q-61 0 -95 -36t-34 -101v-49h244l-47 -226h-193v-915h-346v915h-158z" />
<glyph unicode="g" horiz-adv-x="1114" d="M39 -133q0 61 21.5 101t48.5 63q31 27 69 41q-6 2 -29.5 11t-49 31.5t-45.5 60.5q-16 32 -16 78q0 9 1 19q4 72 43 113t82 61q51 23 112 31q-53 27 -94 70q-35 35 -65.5 92t-32.5 137v22q0 98 32 166q36 74 90 118t119.5 61.5t123.5 17.5q82 0 135 -22.5t88 -48.5 q37 -31 61 -70v10q0 20 2 40t17 38q18 27 47.5 30t58.5 3h197v-365q0 -115 -39 -192.5t-105.5 -124.5t-156.5 -67.5t-195 -20.5q-90 0 -137 -13.5t-47 -54.5q0 -25 19.5 -38t50 -17t65.5 -4h65q111 0 204 -14.5t161 -50.5t104 -97q35 -57 35 -144v-10q-2 -96 -49 -158.5 t-119.5 -101.5t-164 -54t-183.5 -15q-113 0 -208 16t-165.5 50t-110.5 84t-40 118zM367 -84q0 -55 53 -88q47 -29 124 -29h19q68 4 119 31t51 80q0 61 -45 87t-125 26h-149q-14 -16 -25 -33q-10 -16 -16 -33.5t-6 -40.5zM414 764q0 -84 35.5 -130t101.5 -46q74 0 116 43 t42 133q0 78 -38 127t-116 49q-68 0 -104.5 -42t-36.5 -134z" />
<glyph unicode="h" horiz-adv-x="1118" d="M104 0v1536h340v-567q8 23 29 56.5t56.5 64t86 53t115.5 22.5q74 0 131.5 -17.5t98.5 -60.5q33 -33 51 -70.5t27.5 -75.5t12.5 -70.5t3 -55.5v-815h-344v709q0 35 -2 72.5t-13.5 68.5t-37 51.5t-72.5 20.5q-33 0 -54.5 -9.5t-44.5 -38.5q-29 -35 -33.5 -85t-4.5 -103 v-686h-345z" />
<glyph unicode="i" horiz-adv-x="495" d="M55 1430q0 37 16.5 66.5t44 50t62.5 30.5t74 10q94 0 145.5 -44.5t51.5 -112.5q0 -72 -49.5 -118t-147.5 -48q-39 0 -74 9t-62.5 28.5t-44 51t-16.5 77.5zM78 0v1141h346v-1141h-346z" />
<glyph unicode="j" horiz-adv-x="512" d="M-209 -72q18 -18 43 -30q23 -12 56.5 -21.5t80.5 -9.5q49 0 75 21.5t37 53t11 67.5v63v1069h346v-1123q0 -213 -92 -311t-266 -104q-19 -1 -36 -1q-43 0 -77 7q-47 10 -78 22q-37 14 -61 35zM78 1430q2 78 58.5 117.5t137.5 39.5q90 0 140.5 -44.5t50.5 -112.5 q0 -72 -49 -118t-142 -48h-8q-77 0 -132 36q-56 38 -56 124v6z" />
<glyph unicode="k" horiz-adv-x="1081" d="M96 0v1536h342v-819l248 424h387l-338 -484l365 -657h-385l-277 588v-588h-342z" />
<glyph unicode="l" horiz-adv-x="544" d="M104 0v1536h340v-1536h-340z" />
<glyph unicode="m" horiz-adv-x="1667" d="M84 0v1141h342v-172q8 23 28.5 56.5t56.5 64t85 53t115 22.5q59 0 109 -13t91 -42t60.5 -71t29.5 -74q4 16 23.5 49t55.5 66.5t88.5 59t123.5 25.5q53 0 103.5 -11t97.5 -44q37 -27 58.5 -65.5t33.5 -79.5t15.5 -81t3.5 -69v-815h-347v709q0 29 -2 53t-6 53q-4 23 -9 37 t-19 31q-16 23 -38 29t-46 6q-29 0 -47.5 -11.5t-32.5 -27.5q-33 -35 -36 -87.5t-3 -105.5v-686h-344v709q0 47 -4 94t-33 82q-16 16 -33.5 24.5t-50.5 8.5q-25 0 -44.5 -9.5t-39.5 -34.5q-31 -35 -35 -87t-4 -101v-686h-346z" />
<glyph unicode="n" horiz-adv-x="1101" d="M82 0v1141h346v-172q6 23 26.5 56.5t55.5 64t85 53t118 22.5q72 0 128 -17.5t99 -60.5q33 -31 52.5 -69.5t28.5 -75.5t11 -70.5t2 -56.5v-815h-348v709q0 35 -1 72.5t-12 68.5t-38 51.5t-76 20.5q-59 0 -90 -43q-33 -43 -37 -91.5t-4 -101.5v-686h-346z" />
<glyph unicode="o" horiz-adv-x="1126" d="M43 567q0 119 29.5 227.5t93 191.5t163 131t238.5 48q135 0 233.5 -48t162 -131t94 -191.5t30.5 -227.5q0 -121 -36.5 -228.5t-104 -188t-164 -129t-215.5 -48.5q-145 0 -244.5 47.5t-162 127t-90 188t-27.5 231.5zM403 567q0 -188 40 -264t124 -76q72 0 115 80t43 260 q0 76 -5 140.5t-21.5 111.5t-48.5 75t-83 28t-82.5 -26t-50 -73t-25 -112.5t-6.5 -143.5z" />
<glyph unicode="p" horiz-adv-x="1191" d="M102 -397v1538h209q35 0 57.5 -7.5t43.5 -29.5q25 -25 28.5 -48.5t3.5 -29.5v-14q6 6 27 38.5t55 57.5q47 35 87 48t104 13q51 0 120.5 -18t131.5 -80q90 -86 129 -214t39 -286q0 -115 -25 -221t-75 -189t-125.5 -133.5t-176.5 -50.5q-59 0 -104 14.5t-81 36t-63.5 48 t-50.5 53.5v-526h-334zM444 299q27 -18 52 -33q23 -12 48 -21t50 -9q33 0 62.5 14t53 52t39 103.5t15.5 169.5v15q0 147 -38 236q-39 92 -128 92h-4q-45 0 -73.5 -20.5t-46 -53.5t-24 -73t-6.5 -81v-391z" />
<glyph unicode="q" horiz-adv-x="1161" d="M39 575q0 94 19.5 199t65.5 193t124 146t196 58q53 0 88 -7t80 -31q29 -16 49.5 -35t34 -37.5t19.5 -31.5t8 -15v10q0 16 4 36.5t21 39.5q27 31 53 36t37 5h229v-1536h-336v526q-20 -25 -47 -51.5t-62.5 -48t-78.5 -35.5t-99 -14q-109 0 -186.5 56t-128.5 144 q-47 82 -68.5 185.5t-21.5 207.5zM403 580q0 -123 20.5 -196t55.5 -108q38 -38 87 -38h3q29 0 56.5 10t50.5 24q26 17 51 37v385q0 41 -7 82t-24.5 74t-48.5 53.5t-78 20.5q-94 0 -133 -111q-16 -45 -24.5 -100.5t-8.5 -132.5z" />
<glyph unicode="r" horiz-adv-x="835" d="M80 0v1141h338v-172q6 27 16 51q8 23 21.5 47.5t33.5 46.5q51 51 134 51q23 0 38 -1t33 -7q37 -14 60 -33q10 -8 18 -20l39 -281q-23 20 -67 46t-117 26q-109 0 -166 -94q-23 -37 -29 -90.5t-6 -92.5v-618h-346z" />
<glyph unicode="s" horiz-adv-x="847" d="M20 330q43 -29 93 -51q41 -20 92 -36t104 -16q150 0 150 115q0 43 -32 71.5t-79 54.5t-101 52.5t-101.5 66.5t-78 98t-30.5 146q0 86 31.5 147.5t83 102.5t119 61.5t141.5 22.5h24q64 0 115 -9q61 -11 104 -26q49 -16 86 -38l43 -242q-31 23 -69 43q-35 15 -83 29 q-42 12 -94 12h-16q-53 -2 -92 -27.5t-39 -79.5q0 -29 16.5 -51t44 -41.5t62.5 -37t70 -35.5q45 -25 89 -53.5t77.5 -67.5t54 -88t20.5 -115q0 -158 -114 -250q-61 -53 -142.5 -82t-173.5 -33q-25 -1 -48 -1q-49 0 -89 6q-59 8 -101 20t-65.5 22.5t-28.5 14.5z" />
<glyph unicode="t" horiz-adv-x="765" d="M6 915l43 226h115l12 213l330 53v-266h254l-41 -226h-209v-536q0 -59 39 -95t96 -36q33 0 57.5 6t40.5 14q21 9 35 23l-39 -256q-23 -16 -55 -29q-29 -10 -71 -19.5t-95 -9.5q-76 0 -140.5 24t-112.5 71t-74.5 117.5t-26.5 164.5v561h-158z" />
<glyph unicode="u" horiz-adv-x="1097" d="M66 432v709h346v-709q0 -55 4 -94t30 -74q29 -37 89 -37q49 0 95 40t46 120v754h346v-1141h-188q-29 0 -52.5 5t-46.5 26q-23 18 -28 44.5t-5 53.5v37q-47 -92 -130 -137t-173 -45q-86 0 -156.5 32.5t-117.5 108.5q-41 66 -50 139.5t-9 167.5z" />
<glyph unicode="v" horiz-adv-x="1081" d="M-2 1141h352l191 -740l192 740h350l-358 -1141h-367z" />
<glyph unicode="w" horiz-adv-x="1662" d="M2 1141h346l158 -740l149 740h359l145 -740l154 740h348l-320 -1141h-362l-145 743l-148 -743h-364z" />
<glyph unicode="x" horiz-adv-x="1077" d="M-6 1141h360l187 -328l184 328h354l-350 -570l350 -571h-354l-188 326l-183 -326h-356l352 571z" />
<glyph unicode="y" horiz-adv-x="1085" d="M2 1141h348l197 -744l192 744h344l-352 -1125q-25 -80 -55.5 -153.5t-75.5 -131t-106.5 -92t-147.5 -36.5h-22q-54 0 -93 8q-47 10 -77 22q-37 14 -60 33l-39 262q16 -18 43 -30q23 -12 56.5 -21.5t81.5 -9.5q66 0 91 31.5t35 66.5q4 16 5 35v23z" />
<glyph unicode="z" horiz-adv-x="937" d="M-20 0l469 915h-447l49 226h885l-467 -901h487l-59 -240h-917z" />
<glyph unicode="{" horiz-adv-x="655" d="M2 547v252q31 0 59 6q23 4 46.5 14t33.5 31q8 14 8.5 30.5t0.5 37.5v413v53.5t5 57t17 57.5t35 51q23 23 53.5 34t63 15.5t63.5 4.5h53h123l49 -156h-112q-39 0 -58 -18q-14 -14 -14 -35v-37v-543q0 -8 1 -28.5t-9 -38.5t-32.5 -29.5t-47.5 -18.5q-29 -8 -61 -10v-28 q33 -4 59 -13q23 -6 45.5 -16t32.5 -27q10 -14 11 -28.5t1 -38.5v-547q0 -23 1 -42.5t11 -29.5q12 -12 27.5 -15t32.5 -3h116l-53 -162h-123h-45.5t-63.5 4t-68 15.5t-56 35.5q-25 25 -36 54.5t-16 60.5t-5 59.5v48.5v410v32.5t-9 35.5q-10 18 -33.5 29.5t-46.5 15.5 q-29 6 -59 6z" />
<glyph unicode="|" horiz-adv-x="483" d="M154 -145v1763h151v-1763h-151z" />
<glyph unicode="}" horiz-adv-x="651" d="M35 1448l53 162h123h44t63.5 -4t67.5 -15.5t58 -36.5q25 -25 36.5 -54.5t16.5 -60t5 -59v-47.5v-409v-33t8 -37q10 -18 31.5 -28.5t46.5 -14.5q27 -6 61 -6v-254q-35 0 -61 -6q-25 -4 -46.5 -14.5t-31.5 -28.5q-8 -16 -8 -32.5v-37.5v-414q0 -49 -6.5 -110.5 t-51.5 -106.5q-25 -25 -55.5 -36t-62 -15t-62.5 -4h-53h-123l-49 158h113q39 0 57 16q14 14 14 34.5v39.5v541q0 10 -1 30.5t9 38.5q8 18 32 28.5t48 16.5q29 8 62 10v29q-33 4 -60 12q-23 6 -45 16.5t-32 26.5t-11.5 29.5t-1.5 40.5v545q0 23 -1 42t-11 32q-12 12 -27.5 14 t-31.5 2h-117z" />
<glyph unicode="~" horiz-adv-x="1036" d="M74 602q57 84 129.5 128t177.5 38q61 -4 102 -24.5t76 -46t72 -48t92 -26.5q51 -4 90 8t66.5 29.5t42 32t18.5 16.5l35 -99q-47 -92 -122 -142t-181 -40q-49 4 -86 25.5t-72 48t-74 49t-90 29.5q-74 10 -131 -17.5t-115 -77.5z" />
<glyph unicode="&#xa1;" horiz-adv-x="614" d="M92 973q0 43 17.5 78.5t47 60.5t69.5 39t85 14q92 0 150.5 -54t58.5 -138q0 -43 -15.5 -80t-43 -63.5t-64.5 -42t-78 -15.5q-94 0 -160.5 55.5t-66.5 145.5zM102 326l25 280l354 39l31 -319v-709h-410v709z" />
<glyph unicode="&#xa2;" horiz-adv-x="917" d="M39 764q-2 80 10 145.5t31.5 118.5t46.5 95t53 73q63 72 146 113v245h395v-215q10 -2 25.5 -7t29.5 -11q10 -4 18.5 -10t18.5 -11l21 -12l36 -264q-18 20 -49 37q-27 14 -66.5 25.5t-97.5 9.5q-53 0 -98 -18.5t-79 -58.5t-52 -103.5t-18 -151.5q0 -53 11 -109.5 t38.5 -102.5t78 -77t128.5 -31q63 0 107 14.5t73 30.5q32 21 55 46l-43 -304q-12 -6 -22 -12l-22.5 -9t-29.5 -9q-23 -6 -37 -8.5t-26 -4.5v-325h-395v368q-78 29 -142 97q-27 29 -52.5 68.5t-45.5 93t-33.5 121t-13.5 153.5z" />
<glyph unicode="&#xa3;" horiz-adv-x="1236" d="M119 295l31 5q32 5 78 16.5t99.5 30t99.5 46t78 66.5t34 88q2 45 -12.5 77.5t-37.5 61.5h-348v160h226q-2 0 -31 24.5t-61.5 69.5t-58.5 106.5t-19 135.5q10 113 62 183.5t123 111.5t146.5 56t133.5 15q86 0 145 -11t96 -26q43 -16 70 -38l71 -299q-20 20 -51 38 q-27 14 -68.5 26.5t-101.5 12.5q-72 0 -118 -19.5t-71.5 -48t-35.5 -62.5t-10 -62q0 -37 13 -65.5t30 -53.5q8 -14 21.5 -29.5t25.5 -29.5q14 -16 31 -31h370v-164h-248q10 -16 19 -35q8 -16 14 -35.5t6 -35.5q0 -66 -26.5 -113t-59.5 -78q-37 -37 -86 -59q23 4 75 8t130 0 q92 -4 154 -15.5t82 -11.5l-76 -329q-18 2 -63.5 6t-103.5 9t-124.5 8t-126.5 3q-66 0 -142.5 -5t-142.5 -11q-78 -8 -155 -15z" />
<glyph unicode="&#xa4;" d="M0 649l47 201l402 72v-922h-265v686zM528 446q0 145 44 236.5t107.5 143t130.5 70.5t114 19q57 0 99 -7t69.5 -17t40 -18.5t12.5 -10.5l49 -194q-25 16 -57 28q-29 10 -69 19.5t-91 9.5q-66 0 -100.5 -25.5t-51 -57.5t-19.5 -64.5t-3 -47.5q20 10 45 19q23 8 51.5 14 t65.5 6q45 0 96 -11t92 -44t68.5 -89t27.5 -144h2q0 -90 -38.5 -148.5t-94 -92.5t-120 -46t-117.5 -10q-55 2 -118 23.5t-115 72.5t-86 139t-34 227zM805 408q-6 -61 2 -113q6 -43 24.5 -80t59.5 -39q25 -2 43 9.5t30.5 31t19.5 43.5t7 49q2 47 -23.5 86t-74.5 41 q-43 0 -68 -14q-12 -8 -20 -14z" />
<glyph unicode="&#xa5;" horiz-adv-x="1228" d="M31 1528h426l157 -504l162 504h426l-364 -764h288v-176h-307v-123h307v-174h-307v-291h-409v291h-308v174h308v123h-308v176h291z" />
<glyph unicode="&#xa7;" horiz-adv-x="1110" d="M23 575q-6 82 18.5 147.5t66.5 113t98 76t116 36.5q10 2 19 3t17 1h19q-57 25 -103 62q-39 33 -71.5 85t-34.5 130q-2 82 26.5 144.5t80 106.5t121 67.5t151.5 27.5q78 4 142.5 -8.5t111.5 -28.5q53 -18 96 -41l39 -252q-35 25 -76 47q-37 18 -87 32.5t-111 14.5 q-25 0 -49.5 -7t-44 -20.5t-31 -34t-9.5 -48.5q0 -41 40 -70t99.5 -55.5t129 -56t130 -73.5t103.5 -107.5t47 -157.5q4 -84 -18.5 -148.5t-63.5 -111t-96 -74t-117 -37.5q-20 -4 -37.5 -6t-21.5 -2q55 -29 100 -70q39 -35 72 -87t37 -122q2 -80 -25.5 -142.5t-78 -105.5 t-121 -66.5t-152.5 -27.5q-80 -4 -144.5 7.5t-111.5 27.5q-53 18 -96 43l-39 252q33 -27 74 -47q35 -16 85 -31.5t113 -11.5q29 0 55.5 6t45 18.5t30 33t8.5 48.5q0 41 -39.5 70t-99 55.5t-129 57t-131 74.5t-104.5 107.5t-49 155.5zM377 657q0 -37 14.5 -65.5t37 -48 t52 -29.5t58.5 -10q33 0 64.5 7t56 24.5t40 45t15.5 68.5q0 76 -47 112t-113 42q-31 2 -61.5 -4t-56 -23.5t-43 -46.5t-17.5 -72z" />
<glyph unicode="&#xa8;" horiz-adv-x="1126" d="M258 1399q0 53 36 89t87 36q57 0 97 -33t40 -92q0 -51 -39 -83t-90 -32q-59 0 -95 34t-36 81zM612 1399q0 53 36 89t87 36q59 0 98 -33t39 -92q0 -51 -37.5 -83t-91.5 -32q-66 0 -98.5 34t-32.5 81z" />
<glyph unicode="&#xa9;" horiz-adv-x="1724" d="M100 756q0 166 63.5 313.5t174.5 258t258 175t315 64.5t315.5 -64.5t258 -175t174 -258t63.5 -313.5q0 -168 -63.5 -316.5t-174 -259t-258 -175t-315.5 -64.5t-315 64.5t-258 175t-174.5 259t-63.5 316.5zM203 756q0 -147 55 -276.5t151.5 -225.5t225.5 -151.5t276 -55.5 t276.5 55.5t226.5 151.5t153.5 225.5t56.5 276.5t-56.5 276t-153.5 225.5t-226 151.5t-277 55q-147 0 -276 -55t-225.5 -151.5t-151.5 -225.5t-55 -276zM403 752q0 113 38 212t109 172.5t170 116.5t224 43q92 0 166 -19.5t158 -72.5l-99 -145q-53 35 -102 48t-115 15 q-88 0 -155.5 -28.5t-114.5 -78.5t-71.5 -117t-24.5 -142q0 -76 24.5 -143.5t71.5 -118t114.5 -80t151.5 -29.5q68 0 125 17.5t103 46.5l92 -142q-78 -51 -152 -71.5t-172 -20.5q-127 0 -226.5 42t-170 115.5t-107.5 171t-37 208.5z" />
<glyph unicode="&#xaa;" horiz-adv-x="700" d="M37 571v146h610v-146h-610zM37 1024q0 41 15.5 77t39.5 64q53 59 130 79t161 20q10 0 19.5 -1t15.5 -1q8 -2 12 -2v24q0 16 -2 37.5t-16 32.5q-12 16 -39 28.5t-88 12.5q-47 0 -83 -12.5t-61 -26.5q-29 -16 -49 -37l35 170q23 12 55 20q29 8 67 15.5t87 7.5 q92 0 152.5 -20.5t95.5 -55.5q41 -41 50 -84t9 -108v-437h-115q-43 0 -59 23q-14 10 -18.5 22.5t-4.5 32.5v25q-29 -57 -91 -85t-122 -26q-53 0 -90 20.5t-60.5 50.5t-34.5 65.5t-11 68.5zM246 1047q0 -43 25.5 -62.5t60.5 -19.5q10 0 25.5 3t25.5 13q18 10 32.5 29.5 t14.5 48.5v76l-16 4t-18.5 4t-20.5 2q-35 0 -67 -11.5t-48 -37.5q-6 -12 -10 -22.5t-4 -26.5z" />
<glyph unicode="&#xab;" horiz-adv-x="1052" d="M0 690l227 342l299 -24l-188 -318l182 -307l-293 -25zM477 690l232 342l299 -24l-189 -318l185 -307l-299 -25z" />
<glyph unicode="&#xac;" horiz-adv-x="737" d="M-109 401l373 517h303v-529h107v-188h-107v-201h-266v197h-352zM109 389h192v293z" />
<glyph unicode="&#xad;" horiz-adv-x="724" d="M39 444v285h645v-285h-645z" />
<glyph unicode="&#xae;" horiz-adv-x="790" d="M27 1169q0 80 29.5 150t81.5 122t123 82.5t151 30.5t149.5 -30.5t121.5 -82.5t82 -122t30 -150t-30 -149.5t-82 -121.5t-121.5 -83t-149.5 -31t-151 31t-123 83t-81.5 122t-29.5 149zM53 1169q0 -74 28 -139t77 -114.5t114.5 -78t139.5 -28.5t138 28.5t112.5 78t76 114.5 t27.5 139t-27.5 139.5t-76 115t-113 78t-137.5 28.5q-74 0 -139.5 -28.5t-114.5 -78t-77 -115t-28 -139.5zM227 965v413h232q31 0 59.5 -5t51 -18.5t37 -37t14.5 -62.5q0 -33 -13.5 -57t-35 -39.5t-46 -23t-49.5 -2.5l129 -168h-47l-123 168h-172v-168h-37zM264 1161h203 q18 0 37.5 3t36 12.5t28 27.5t11.5 51q0 37 -15.5 55.5t-36 27t-41 8.5h-28.5h-195v-185z" />
<glyph unicode="&#xaf;" horiz-adv-x="888" d="M133 1374v135h627v-135h-627z" />
<glyph unicode="&#xb0;" horiz-adv-x="565" d="M72 1339q0 43 16 82t45 67t67 44t81 16q45 0 83.5 -16t67.5 -44t45.5 -67t16.5 -82q0 -90 -61.5 -151.5t-151.5 -61.5q-43 0 -81 16.5t-67 45.5t-45 67.5t-16 83.5zM158 1335q0 -51 34.5 -87t83.5 -36q53 0 90 36t37 87t-34.5 90t-92.5 39q-53 0 -85.5 -39t-32.5 -90z " />
<glyph unicode="&#xb1;" horiz-adv-x="1204" d="M61 4v268h1088v-268h-1088zM61 788v283h402v389h293v-389h393v-283h-393v-417h-293v417h-402z" />
<glyph unicode="&#xb4;" horiz-adv-x="1024" d="M305 1217v137l369 182l59 -182z" />
<glyph unicode="&#xb5;" horiz-adv-x="720" d="M92 854q27 -18 62 -31q29 -12 70.5 -21t92.5 -9q68 0 114 30.5t46 94.5q0 106 -137 124q-53 6 -96 3t-76 -9q-37 -8 -68 -20l35 520h559v-186h-334l-8 -160q14 2 35 2h39t51 -2q55 -4 104.5 -21.5t86.5 -49.5t58.5 -79.5t23.5 -113.5q2 -100 -39 -164t-98.5 -98.5 t-117 -48t-96.5 -13.5q-59 -2 -105 5t-81 18q-39 10 -70 24z" />
<glyph unicode="&#xb6;" horiz-adv-x="1331" d="M39 961q0 143 39 240t102.5 160.5t141 97.5t154.5 49.5t145.5 17.5t111.5 2h449v-1903h-172v1753h-234v-1749h-172v789q-158 8 -282 67q-53 25 -103.5 65t-90.5 96t-64.5 134t-24.5 181z" />
<glyph unicode="&#xb7;" horiz-adv-x="1200" d="M395 764q0 41 16.5 78t44 64.5t63.5 43t77 15.5q96 0 162.5 -55.5t66.5 -145.5q0 -41 -17 -77t-48 -61.5t-70 -40t-82 -14.5q-96 0 -154.5 54.5t-58.5 138.5z" />
<glyph unicode="&#xb8;" horiz-adv-x="909" d="M266 -354l19 114q29 -12 63 -22q29 -10 66 -17.5t75 -5.5q51 2 83 15.5t32 38.5q0 53 -78 53h-59l-31 80l62 106h75l-16 -92q74 0 133 -16q51 -14 92 -46.5t43 -93.5q0 -53 -35.5 -85.5t-88 -50t-111 -24t-101.5 -6.5q-49 0 -90 7.5t-69 17.5q-35 10 -64 27z" />
<glyph unicode="&#xba;" horiz-adv-x="696" d="M18 1169q0 72 19.5 137.5t59.5 116t102.5 80t150.5 29.5q84 0 145.5 -29.5t101.5 -80t58.5 -116t18.5 -137.5t-22.5 -136t-64.5 -112.5t-101.5 -77t-135.5 -28.5q-90 0 -153.5 27.5t-103.5 76t-57.5 113t-17.5 137.5zM39 571v146h606v-146h-606zM248 1169 q0 -113 24.5 -158.5t77.5 -45.5q47 0 73 49t26 155q0 92 -17.5 152.5t-81.5 60.5q-68 0 -85 -58t-17 -155z" />
<glyph unicode="&#xbb;" horiz-adv-x="1064" d="M63 383l189 307l-189 318l299 24l230 -342l-225 -332zM545 383l184 307l-184 318l299 24l227 -342l-227 -332z" />
<glyph unicode="&#xbf;" horiz-adv-x="1036" d="M55 -25q-4 72 15.5 126.5t51.5 96.5t71.5 73.5t77.5 58t70 52.5t46 54q18 29 26.5 58.5t11.5 55t2 42t-1 18.5l342 35q14 -31 23 -67q8 -31 12 -70t-4 -80q-12 -53 -41 -90t-65 -65.5t-74.5 -52t-71.5 -50.5t-52.5 -59.5t-17.5 -79.5q2 -53 48 -92t161 -35q68 4 125 18.5 t100 30.5q49 20 90 43l-71 -334q-41 -18 -94 -33q-47 -12 -110.5 -22t-145.5 -10q-90 0 -181.5 16t-166 58t-123 116t-54.5 188zM375 977q0 41 17.5 75.5t47 59.5t68.5 39t80 14q100 0 154.5 -52t54.5 -136q0 -86 -55.5 -141.5t-153.5 -55.5q-86 0 -149.5 52.5t-63.5 144.5z " />
<glyph unicode="&#xc0;" d="M23 0l440 1528h399l451 -1528h-432l-47 244h-336l-54 -244h-421zM444 1772l60 182l366 -182v-142zM555 543h223l-106 524h-8z" />
<glyph unicode="&#xc1;" d="M23 0l440 1528h399l451 -1528h-432l-47 244h-336l-54 -244h-421zM455 1634v142l366 182l62 -182zM555 543h223l-106 524h-8z" />
<glyph unicode="&#xc2;" d="M23 0l440 1528h399l451 -1528h-432l-47 244h-336l-54 -244h-421zM414 1620v180l243 197l246 -197v-180l-246 156zM555 543h223l-106 524h-8z" />
<glyph unicode="&#xc3;" d="M23 0l440 1528h399l451 -1528h-432l-47 244h-336l-54 -244h-421zM309 1780q45 72 103.5 109.5t140.5 33.5q45 -2 78 -20.5t61.5 -41t60 -42t76.5 -19.5q41 0 73 10.5t53.5 24.5t32.5 25.5t13 13.5l33 -86q-39 -78 -100.5 -124t-140.5 -36q-37 2 -67 22.5t-59.5 44 t-62.5 44t-74 24.5q-57 6 -104 -16.5t-96 -60.5zM555 543h223l-106 524h-8z" />
<glyph unicode="&#xc4;" d="M23 0l440 1528h399l451 -1528h-432l-47 244h-336l-54 -244h-421zM358 1763q0 51 35 85t86 34q57 0 99.5 -33t42.5 -86t-41 -87t-93 -34q-61 0 -95 34t-34 87zM555 543h223l-106 524h-8zM709 1763q0 51 35.5 85t89.5 34q57 0 96 -33t39 -86t-38 -87t-89 -34q-61 0 -97 34 t-36 87z" />
<glyph unicode="&#xc5;" d="M23 0l440 1528h399l451 -1528h-432l-47 244h-336l-54 -244h-421zM502 1776q0 66 48 111.5t116 45.5q66 0 111.5 -45.5t45.5 -111.5q0 -68 -45 -118t-112 -50q-68 0 -116 48t-48 120zM555 543h223l-106 524h-8zM580 1772q0 -33 24.5 -57.5t57.5 -24.5q31 0 55 24.5 t24 57.5q0 35 -24.5 57t-54.5 22q-33 0 -57.5 -22.5t-24.5 -56.5z" />
<glyph unicode="&#xc6;" horiz-adv-x="1941" d="M14 0l908 1528h913l72 -330h-498v-264h434v-320h-434v-280h524l-75 -334h-854v248h-445l-123 -248h-422zM713 543h286v520h-22z" />
<glyph unicode="&#xc7;" horiz-adv-x="1196" d="M86 764q0 158 47 317.5t170 288.5q84 86 202 135t271 49q66 0 113 -10t82 -20q37 -14 67 -31l76 -328q-6 4 -23.5 15.5t-47 22.5t-74.5 20.5t-107 9.5q-74 0 -136 -25.5t-110 -77.5q-53 -55 -82.5 -148t-29.5 -218q0 -96 20.5 -171t50.5 -128q47 -78 121 -118t205 -40 q53 0 101.5 10.5t84.5 22.5q43 15 82 35l-102 -344q-37 -18 -84 -31q-41 -12 -97.5 -21.5t-125.5 -9.5h-27l-10 -59q80 0 143 -14q53 -14 98.5 -45t45.5 -95q0 -53 -40 -85.5t-95.5 -50t-116 -24t-103.5 -6.5q-51 0 -92 7.5t-69.5 16.5t-44 17.5t-15.5 10.5l17 114 q27 -14 61 -22q29 -10 65.5 -16.5t77.5 -6.5q51 0 84 14.5t33 43.5q0 23 -19.5 38t-58.5 15q-10 0 -19 -1t-20 -1q-10 -2 -20 -2l-35 80l45 79q-117 12 -207 55.5t-155 112.5q-57 57 -95 132t-61 156t-32 166t-9 165z" />
<glyph unicode="&#xc8;" horiz-adv-x="1052" d="M106 0v1528h828l76 -330h-500v-268h436v-316h-436v-284h530l-79 -330h-855zM324 1737l55 182l371 -182v-138z" />
<glyph unicode="&#xc9;" horiz-adv-x="1052" d="M106 0v1528h828l76 -330h-500v-268h436v-316h-436v-284h530l-79 -330h-855zM358 1599v138l371 182l55 -182z" />
<glyph unicode="&#xca;" horiz-adv-x="1052" d="M106 0v1528h828l76 -330h-500v-268h436v-316h-436v-284h530l-79 -330h-855zM285 1583v180l247 195l244 -195v-180l-244 154z" />
<glyph unicode="&#xcb;" horiz-adv-x="1052" d="M106 0v1528h828l76 -330h-500v-268h436v-316h-436v-284h530l-79 -330h-855zM219 1729q0 53 35 87.5t88 34.5q61 0 100 -32.5t39 -89.5q0 -51 -39 -84t-92 -33q-61 0 -96 32.5t-35 84.5zM571 1729q0 53 37 87.5t88 34.5q57 0 99.5 -32.5t42.5 -89.5q0 -51 -41 -84t-92 -33 q-59 0 -96.5 32.5t-37.5 84.5z" />
<glyph unicode="&#xcc;" horiz-adv-x="610" d="M94 1737l56 182l370 -182v-138zM100 0v1528h410v-1528h-410z" />
<glyph unicode="&#xcd;" horiz-adv-x="610" d="M94 1634v142l367 182l61 -182zM100 0v1528h410v-1528h-410z" />
<glyph unicode="&#xce;" horiz-adv-x="610" d="M51 1583v180l248 195l244 -195v-180l-244 154zM100 0v1528h410v-1528h-410z" />
<glyph unicode="&#xcf;" horiz-adv-x="610" d="M-6 1763q0 51 34.5 85t86.5 34q57 0 99 -33t42 -86t-41 -87t-92 -34q-61 0 -95 34t-34 87zM100 0v1528h410v-1528h-410zM344 1763q0 51 36 85t89 34q57 0 96 -33t39 -86t-38 -87t-89 -34q-61 0 -97 34t-36 87z" />
<glyph unicode="&#xd1;" horiz-adv-x="1363" d="M109 0v1528h335l422 -690v690h398v-1528h-332l-424 702v-702h-399zM330 1745q43 68 102.5 108.5t142.5 36.5q45 -2 77 -21.5t61.5 -43t61.5 -42t75 -20.5q41 -2 72.5 8.5t52 24.5t32 25.5l13.5 13.5l35 -82q-35 -78 -98.5 -125t-149.5 -41q-35 2 -63.5 22.5t-58.5 44 t-61.5 44t-72.5 24.5q-59 6 -106.5 -15t-94.5 -60z" />
<glyph unicode="&#xd2;" horiz-adv-x="1441" d="M82 764q-2 160 33 303t112.5 251.5t199.5 172t296 63.5q178 0 299 -64.5t196.5 -173t107.5 -251.5t32 -301q0 -160 -39 -304.5t-118 -253t-197.5 -173t-280.5 -64.5q-182 0 -305 64.5t-197 173t-105.5 253t-33.5 304.5zM487 1737l56 182l370 -182v-138zM506 764 q0 -127 11 -214t37 -140.5t68 -78t101 -24.5q111 0 164 108.5t53 348.5q0 102 -8 188t-30.5 147.5t-65.5 97.5t-113 36q-72 0 -115 -32t-65.5 -93t-29.5 -148.5t-7 -195.5z" />
<glyph unicode="&#xd3;" horiz-adv-x="1441" d="M82 764q-2 160 33 303t112.5 251.5t199.5 172t296 63.5q178 0 299 -64.5t196.5 -173t107.5 -251.5t32 -301q0 -160 -39 -304.5t-118 -253t-197.5 -173t-280.5 -64.5q-182 0 -305 64.5t-197 173t-105.5 253t-33.5 304.5zM506 764q0 -127 11 -214t37 -140.5t68 -78 t101 -24.5q111 0 164 108.5t53 348.5q0 102 -8 188t-30.5 147.5t-65.5 97.5t-113 36q-72 0 -115 -32t-65.5 -93t-29.5 -148.5t-7 -195.5zM537 1634v142l366 182l62 -182z" />
<glyph unicode="&#xd4;" horiz-adv-x="1441" d="M82 764q-2 160 33 303t112.5 251.5t199.5 172t296 63.5q178 0 299 -64.5t196.5 -173t107.5 -251.5t32 -301q0 -160 -39 -304.5t-118 -253t-197.5 -173t-280.5 -64.5q-182 0 -305 64.5t-197 173t-105.5 253t-33.5 304.5zM477 1583v180l248 195l244 -195v-180l-244 154z M506 764q0 -127 11 -214t37 -140.5t68 -78t101 -24.5q111 0 164 108.5t53 348.5q0 102 -8 188t-30.5 147.5t-65.5 97.5t-113 36q-72 0 -115 -32t-65.5 -93t-29.5 -148.5t-7 -195.5z" />
<glyph unicode="&#xd5;" horiz-adv-x="1441" d="M82 764q-2 160 33 303t112.5 251.5t199.5 172t296 63.5q178 0 299 -64.5t196.5 -173t107.5 -251.5t32 -301q0 -160 -39 -304.5t-118 -253t-197.5 -173t-280.5 -64.5q-182 0 -305 64.5t-197 173t-105.5 253t-33.5 304.5zM362 1780q45 72 103.5 109.5t140.5 33.5 q45 -2 78 -20.5t61.5 -41t60.5 -42t77 -19.5q41 0 72.5 10.5t53 24.5t33 25.5l13.5 13.5l32 -86q-39 -78 -100 -124t-141 -36q-37 2 -66.5 22.5t-59.5 44t-62.5 44t-73.5 24.5q-57 6 -104.5 -16.5t-96.5 -60.5zM506 764q0 -127 11 -214t37 -140.5t68 -78t101 -24.5 q111 0 164 108.5t53 348.5q0 102 -8 188t-30.5 147.5t-65.5 97.5t-113 36q-72 0 -115 -32t-65.5 -93t-29.5 -148.5t-7 -195.5z" />
<glyph unicode="&#xd6;" horiz-adv-x="1441" d="M82 764q-2 160 33 303t112.5 251.5t199.5 172t296 63.5q178 0 299 -64.5t196.5 -173t107.5 -251.5t32 -301q0 -160 -39 -304.5t-118 -253t-197.5 -173t-280.5 -64.5q-182 0 -305 64.5t-197 173t-105.5 253t-33.5 304.5zM416 1763q0 51 34.5 85t86.5 34q57 0 99 -33 t42 -86t-41 -87t-92 -34q-61 0 -95 34t-34 87zM506 764q0 -127 11 -214t37 -140.5t68 -78t101 -24.5q111 0 164 108.5t53 348.5q0 102 -8 188t-30.5 147.5t-65.5 97.5t-113 36q-72 0 -115 -32t-65.5 -93t-29.5 -148.5t-7 -195.5zM766 1763q0 51 36 85t89 34q57 0 96 -33 t39 -86t-38 -87t-89 -34q-61 0 -97 34t-36 87z" />
<glyph unicode="&#xd8;" horiz-adv-x="1441" d="M-16 -27l213 271q-61 106 -88 239t-27 281q0 160 35 303t111.5 251.5t198.5 172t296 63.5q129 0 228.5 -34.5t170.5 -98.5l107 135h170l-187 -235q78 -109 112 -253t34 -304t-39 -304.5t-118 -253t-197.5 -173t-280.5 -64.5q-150 0 -258.5 43t-183.5 121l-125 -160h-172z M506 764q0 -35 1 -64.5t1 -58.5l383 485q-25 51 -66 79t-102 28q-72 0 -115 -33t-65.5 -93t-29.5 -147.5t-7 -195.5zM535 457q25 -80 70.5 -115t117.5 -35q111 0 164 108.5t53 348.5q0 53 -3 103.5t-7 93.5z" />
<glyph unicode="&#xd9;" d="M100 535v993h406v-1051q0 -68 38 -121t118 -53t113.5 53.5t33.5 120.5v1051h410v-993q0 -123 -26 -213.5t-91 -167.5q-84 -102 -197.5 -143.5t-242.5 -41.5q-133 0 -243 40t-202 147q-61 72 -89 165t-28 214zM434 1737l55 182l371 -182v-138z" />
<glyph unicode="&#xda;" d="M100 535v993h406v-1051q0 -68 38 -121t118 -53t113.5 53.5t33.5 120.5v1051h410v-993q0 -123 -26 -213.5t-91 -167.5q-84 -102 -197.5 -143.5t-242.5 -41.5q-133 0 -243 40t-202 147q-61 72 -89 165t-28 214zM455 1634v142l366 182l62 -182z" />
<glyph unicode="&#xdb;" d="M100 535v993h406v-1051q0 -68 38 -121t118 -53t113.5 53.5t33.5 120.5v1051h410v-993q0 -123 -26 -213.5t-91 -167.5q-84 -102 -197.5 -143.5t-242.5 -41.5q-133 0 -243 40t-202 147q-61 72 -89 165t-28 214zM414 1583v180l248 195l241 -195v-180l-241 154z" />
<glyph unicode="&#xdc;" d="M100 535v993h406v-1051q0 -68 38 -121t118 -53t113.5 53.5t33.5 120.5v1051h410v-993q0 -123 -26 -213.5t-91 -167.5q-84 -102 -197.5 -143.5t-242.5 -41.5q-133 0 -243 40t-202 147q-61 72 -89 165t-28 214zM354 1763q0 51 35 85t86 34q57 0 99 -33t42 -86t-40.5 -87 t-92.5 -34q-61 0 -95 34t-34 87zM705 1763q0 51 35.5 85t88.5 34q57 0 96.5 -33t39.5 -86t-38 -87t-89 -34q-61 0 -97 34t-36 87z" />
<glyph unicode="&#xdf;" horiz-adv-x="1396" d="M6 926l47 219h115v20q0 98 26.5 174t85 126.5t151.5 76t228 25.5q84 0 170 -17.5t156 -57.5t112 -107.5t40 -167.5q0 -41 -7.5 -70t-18.5 -50.5t-26.5 -38t-29.5 -34.5q-20 -25 -42 -46.5t-38.5 -44t-26.5 -49t-8 -61.5q2 -39 35 -66.5t81 -53t103 -54t103.5 -69.5 t80 -99.5t33.5 -142.5q0 -78 -30.5 -142.5t-87 -112.5t-133 -75.5t-169.5 -34.5q-82 -4 -145 5.5t-109 21.5q-53 14 -90 35l-43 295q43 -29 93 -51q41 -20 92 -36t104 -16q74 0 116 28t38 87q0 43 -33 71.5t-81 53.5t-103.5 51.5t-101.5 66.5t-73.5 97t-23.5 145q2 45 10 77 t21.5 58.5t33 49t46.5 51.5q12 14 26.5 25.5t24.5 26.5t17 38t7 59q0 47 -35.5 81t-101.5 34q-78 0 -106.5 -45t-28.5 -113v-1169h-342v926h-162z" />
<glyph unicode="&#xe0;" horiz-adv-x="1052" d="M27 326q0 66 21.5 128t62.5 109q84 92 205.5 127t254.5 35q16 0 31.5 -1t26.5 -1q12 -2 20 -2v39q0 25 -4 58.5t-22 58.5q-25 27 -69 48t-140 19q-72 -2 -128.5 -21.5t-95.5 -43.5q-47 -29 -79 -64l55 281q37 20 88 37q43 14 103.5 25t136.5 11q145 0 241 -33.5 t156 -93.5q59 -61 80.5 -134.5t21.5 -186.5v-721h-188q-16 0 -48 4t-55 27q-18 20 -23 50t-5 48v37q-23 -47 -59.5 -82t-82 -57.5t-95.5 -33.5t-99 -9q-86 2 -145.5 34.5t-96.5 80.5t-53 107.5t-16 119.5zM350 1350l58 182l370 -178v-142zM358 362q0 -68 39 -101.5t92 -33.5 q20 0 44 6.5t42 18.5q29 18 51.5 51t22.5 76v133q0 4 -25.5 6t-64.5 2q-59 0 -108.5 -15.5t-71.5 -60.5q-10 -16 -15.5 -35.5t-5.5 -46.5z" />
<glyph unicode="&#xe1;" horiz-adv-x="1052" d="M27 326q0 66 21.5 128t62.5 109q84 92 205.5 127t254.5 35q16 0 31.5 -1t26.5 -1q12 -2 20 -2v39q0 25 -4 58.5t-22 58.5q-25 27 -69 48t-140 19q-72 -2 -128.5 -21.5t-95.5 -43.5q-47 -29 -79 -64l55 281q37 20 88 37q43 14 103.5 25t136.5 11q145 0 241 -33.5 t156 -93.5q59 -61 80.5 -134.5t21.5 -186.5v-721h-188q-16 0 -48 4t-55 27q-18 20 -23 50t-5 48v37q-23 -47 -59.5 -82t-82 -57.5t-95.5 -33.5t-99 -9q-86 2 -145.5 34.5t-96.5 80.5t-53 107.5t-16 119.5zM348 1212v142l371 178l57 -182zM358 362q0 -68 39 -101.5t92 -33.5 q20 0 44 6.5t42 18.5q29 18 51.5 51t22.5 76v133q0 4 -25.5 6t-64.5 2q-59 0 -108.5 -15.5t-71.5 -60.5q-10 -16 -15.5 -35.5t-5.5 -46.5z" />
<glyph unicode="&#xe2;" horiz-adv-x="1052" d="M27 326q0 66 21.5 128t62.5 109q84 92 205.5 127t254.5 35q16 0 31.5 -1t26.5 -1q12 -2 20 -2v39q0 25 -4 58.5t-22 58.5q-25 27 -69 48t-140 19q-72 -2 -128.5 -21.5t-95.5 -43.5q-47 -29 -79 -64l55 281q37 20 88 37q43 14 103.5 25t136.5 11q145 0 241 -33.5 t156 -93.5q59 -61 80.5 -134.5t21.5 -186.5v-721h-188q-16 0 -48 4t-55 27q-18 20 -23 50t-5 48v37q-23 -47 -59.5 -82t-82 -57.5t-95.5 -33.5t-99 -9q-86 2 -145.5 34.5t-96.5 80.5t-53 107.5t-16 119.5zM283 1235v178l243 197l248 -197v-178l-248 156zM358 362 q0 -68 39 -101.5t92 -33.5q20 0 44 6.5t42 18.5q29 18 51.5 51t22.5 76v133q0 4 -25.5 6t-64.5 2q-59 0 -108.5 -15.5t-71.5 -60.5q-10 -16 -15.5 -35.5t-5.5 -46.5z" />
<glyph unicode="&#xe3;" horiz-adv-x="1052" d="M27 326q0 66 21.5 128t62.5 109q84 92 205.5 127t254.5 35q16 0 31.5 -1t26.5 -1q12 -2 20 -2v39q0 25 -4 58.5t-22 58.5q-25 27 -69 48t-140 19q-72 -2 -128.5 -21.5t-95.5 -43.5q-47 -29 -79 -64l55 281q37 20 88 37q43 14 103.5 25t136.5 11q145 0 241 -33.5 t156 -93.5q59 -61 80.5 -134.5t21.5 -186.5v-721h-188q-16 0 -48 4t-55 27q-18 20 -23 50t-5 48v37q-23 -47 -59.5 -82t-82 -57.5t-95.5 -33.5t-99 -9q-86 2 -145.5 34.5t-96.5 80.5t-53 107.5t-16 119.5zM184 1438q45 68 104.5 108.5t143.5 36.5q43 -2 75 -21.5t61.5 -43 t60 -44t73.5 -24.5q43 0 75 11.5t53.5 25.5t32.5 26.5t14 14.5l34 -82q-41 -78 -100 -123t-143 -39q-37 2 -67 21.5t-59.5 43t-61 43t-72.5 23.5q-59 6 -106.5 -14.5t-94.5 -61.5zM358 362q0 -68 39 -101.5t92 -33.5q20 0 44 6.5t42 18.5q29 18 51.5 51t22.5 76v133 q0 4 -25.5 6t-64.5 2q-59 0 -108.5 -15.5t-71.5 -60.5q-10 -16 -15.5 -35.5t-5.5 -46.5z" />
<glyph unicode="&#xe4;" horiz-adv-x="1052" d="M27 326q0 66 21.5 128t62.5 109q84 92 205.5 127t254.5 35q16 0 31.5 -1t26.5 -1q12 -2 20 -2v39q0 25 -4 58.5t-22 58.5q-25 27 -69 48t-140 19q-72 -2 -128.5 -21.5t-95.5 -43.5q-47 -29 -79 -64l55 281q37 20 88 37q43 14 103.5 25t136.5 11q145 0 241 -33.5 t156 -93.5q59 -61 80.5 -134.5t21.5 -186.5v-721h-188q-16 0 -48 4t-55 27q-18 20 -23 50t-5 48v37q-23 -47 -59.5 -82t-82 -57.5t-95.5 -33.5t-99 -9q-86 2 -145.5 34.5t-96.5 80.5t-53 107.5t-16 119.5zM221 1411q0 53 35 89t90 36q53 0 92 -33t39 -92q0 -51 -38 -85 t-89 -34q-61 0 -95 34t-34 85zM358 362q0 -68 39 -101.5t92 -33.5q20 0 44 6.5t42 18.5q29 18 51.5 51t22.5 76v133q0 4 -25.5 6t-64.5 2q-59 0 -108.5 -15.5t-71.5 -60.5q-10 -16 -15.5 -35.5t-5.5 -46.5zM571 1411q0 53 36 89t87 36q61 0 101.5 -33t40.5 -92 q0 -51 -39 -85t-95 -34q-59 0 -95 34t-36 85z" />
<glyph unicode="&#xe5;" horiz-adv-x="1052" d="M27 326q0 66 21.5 128t62.5 109q84 92 205.5 127t254.5 35q16 0 31.5 -1t26.5 -1q12 -2 20 -2v39q0 25 -4 58.5t-22 58.5q-25 27 -69 48t-140 19q-72 -2 -128.5 -21.5t-95.5 -43.5q-47 -29 -79 -64l55 281q37 20 88 37q43 14 103.5 25t136.5 11q145 0 241 -33.5 t156 -93.5q59 -61 80.5 -134.5t21.5 -186.5v-721h-188q-16 0 -48 4t-55 27q-18 20 -23 50t-5 48v37q-23 -47 -59.5 -82t-82 -57.5t-95.5 -33.5t-99 -9q-86 2 -145.5 34.5t-96.5 80.5t-53 107.5t-16 119.5zM358 362q0 -68 39 -101.5t92 -33.5q20 0 44 6.5t42 18.5 q29 18 51.5 51t22.5 76v133q0 4 -25.5 6t-64.5 2q-59 0 -108.5 -15.5t-71.5 -60.5q-10 -16 -15.5 -35.5t-5.5 -46.5zM358 1442q0 68 48.5 115t115.5 47q63 0 109.5 -47t46.5 -115q0 -31 -12.5 -60.5t-33 -52t-49 -36t-61.5 -13.5q-68 0 -116 48t-48 114zM436 1442 q0 -35 23.5 -57.5t58.5 -22.5t57.5 23.5t22.5 56.5t-22.5 57.5t-57.5 24.5t-58.5 -23.5t-23.5 -58.5z" />
<glyph unicode="&#xe6;" horiz-adv-x="1658" d="M27 326q0 66 21.5 128t62.5 109q84 92 205.5 127t254.5 35q16 0 31.5 -1t26.5 -1q12 -2 20 -2v39q0 25 -4 58.5t-22 55.5q-25 27 -69 48.5t-140 21.5q-72 0 -128.5 -20.5t-95.5 -44.5q-47 -29 -79 -64l55 281q37 20 88 37q43 14 103.5 25t136.5 11q125 0 213 -24.5 t147 -71.5q55 41 128 66.5t171 25.5q102 0 178 -29.5t129 -77.5t86 -111.5t52.5 -131t25.5 -135.5t6 -125v-74h-633v-16q0 -20 11.5 -59t45 -77t93 -65.5t158.5 -27.5q63 0 114 11t88 26.5t61.5 30.5t39.5 26l-33 -267q-14 -8 -42 -22t-71 -27.5t-103.5 -23.5t-137.5 -10 q-176 0 -287 58t-174 146q0 -4 -1 -6t-1 -4q-2 -2 -2 -4q-31 -63 -81 -100t-108.5 -56.5t-119 -24.5t-109.5 -5q-86 2 -145.5 33.5t-96.5 80.5t-53 108.5t-16 119.5zM358 362q0 -68 39 -101.5t92 -33.5q20 0 44 6.5t42 18.5q29 18 51.5 51t22.5 76v133q-12 2 -26 4 q-12 2 -28.5 3t-35.5 1q-59 0 -108.5 -15.5t-71.5 -60.5q-10 -16 -15.5 -35.5t-5.5 -46.5zM997 674h308q0 8 -2.5 49t-15.5 87t-45 83t-89 37q-61 0 -93 -36t-46.5 -82t-15.5 -87t-1 -51z" />
<glyph unicode="&#xe7;" horiz-adv-x="913" d="M43 571q0 119 34 227.5t100.5 191.5t162.5 131t223 48q76 0 127 -12t84 -27q37 -18 60 -38l43 -269q-20 23 -52 41q-27 16 -65.5 28.5t-93.5 12.5q-49 0 -95.5 -18.5t-81 -57t-56 -99t-21.5 -146.5q0 -170 69.5 -254t194.5 -82q92 2 147 31.5t82 58.5l-43 -303 q-31 -12 -71.5 -24.5t-75.5 -18.5q-43 -6 -87 -9t-55 -3l-14 -64q74 0 133 -16q49 -14 91 -46t42 -94q0 -53 -35.5 -85.5t-87 -50t-109.5 -24t-101 -6.5q-51 0 -92.5 7.5t-70 16.5t-44 17.5t-15.5 10.5l17 110q27 -12 61 -20q29 -8 66 -15.5t78 -5.5q51 2 83.5 15.5 t32.5 38.5q0 53 -78 53q-10 0 -19 -1t-19 -1q-10 -2 -21 -2l-35 80l51 90q-31 2 -65.5 11t-69.5 22.5t-67.5 32t-57.5 40.5q-98 88 -141 217t-43 260z" />
<glyph unicode="&#xe8;" horiz-adv-x="1060" d="M39 551q0 53 7 119.5t27.5 135t56.5 133.5t92.5 115t135 80.5t185.5 30.5q156 0 249 -62.5t144 -155.5t67.5 -199.5t16.5 -192.5v-74h-633v-16q0 -20 11.5 -58t45 -76t93 -66.5t157.5 -28.5q63 0 114.5 10t88.5 25.5t61.5 31.5t38.5 27l-32 -267q-14 -8 -42 -22 t-71 -27.5t-103.5 -23.5t-138.5 -10q-178 0 -288.5 60t-174 148t-86 186.5t-22.5 176.5zM348 1350l55 182l373 -178v-142zM387 674h307q0 8 -2 48t-15 86t-45 83t-89 39q-61 2 -93 -34t-46.5 -82t-15.5 -88t-1 -52z" />
<glyph unicode="&#xe9;" horiz-adv-x="1060" d="M39 551q0 53 7 119.5t27.5 135t56.5 133.5t92.5 115t135 80.5t185.5 30.5q156 0 249 -62.5t144 -155.5t67.5 -199.5t16.5 -192.5v-74h-633v-16q0 -20 11.5 -58t45 -76t93 -66.5t157.5 -28.5q63 0 114.5 10t88.5 25.5t61.5 31.5t38.5 27l-32 -267q-14 -8 -42 -22 t-71 -27.5t-103.5 -23.5t-138.5 -10q-178 0 -288.5 60t-174 148t-86 186.5t-22.5 176.5zM354 1212v142l373 178l53 -182zM387 674h307q0 8 -2 48t-15 86t-45 83t-89 39q-61 2 -93 -34t-46.5 -82t-15.5 -88t-1 -52z" />
<glyph unicode="&#xea;" horiz-adv-x="1060" d="M39 551q0 53 7 119.5t27.5 135t56.5 133.5t92.5 115t135 80.5t185.5 30.5q156 0 249 -62.5t144 -155.5t67.5 -199.5t16.5 -192.5v-74h-633v-16q0 -20 11.5 -58t45 -76t93 -66.5t157.5 -28.5q63 0 114.5 10t88.5 25.5t61.5 31.5t38.5 27l-32 -267q-14 -8 -42 -22 t-71 -27.5t-103.5 -23.5t-138.5 -10q-178 0 -288.5 60t-174 148t-86 186.5t-22.5 176.5zM289 1233v178l243 197l248 -197v-178l-248 158zM387 674h307q0 8 -2 48t-15 86t-45 83t-89 39q-61 2 -93 -34t-46.5 -82t-15.5 -88t-1 -52z" />
<glyph unicode="&#xeb;" horiz-adv-x="1060" d="M39 551q0 53 7 119.5t27.5 135t56.5 133.5t92.5 115t135 80.5t185.5 30.5q156 0 249 -62.5t144 -155.5t67.5 -199.5t16.5 -192.5v-74h-633v-16q0 -20 11.5 -58t45 -76t93 -66.5t157.5 -28.5q63 0 114.5 10t88.5 25.5t61.5 31.5t38.5 27l-32 -267q-14 -8 -42 -22 t-71 -27.5t-103.5 -23.5t-138.5 -10q-178 0 -288.5 60t-174 148t-86 186.5t-22.5 176.5zM236 1411q0 53 36.5 87t83.5 34q59 0 100.5 -33t41.5 -88q0 -53 -40 -86t-93 -33q-57 0 -93 34t-36 85zM387 674h307q0 8 -2 48t-15 86t-45 83t-89 39q-61 2 -93 -34t-46.5 -82 t-15.5 -88t-1 -52zM592 1411q0 53 35 87t88 34q55 0 93 -33t38 -88q0 -53 -37 -86t-90 -33q-61 0 -94 34t-33 85z" />
<glyph unicode="&#xec;" horiz-adv-x="495" d="M35 1350l57 182l369 -178v-142zM78 0v1141h346v-1141h-346z" />
<glyph unicode="&#xed;" horiz-adv-x="495" d="M57 1212v142l367 178l55 -182zM74 0v1141h346v-1141h-346z" />
<glyph unicode="&#xee;" horiz-adv-x="495" d="M-6 1233v178l250 197l241 -197v-178l-241 158zM72 0v1141h346v-1141h-346z" />
<glyph unicode="&#xef;" horiz-adv-x="495" d="M-55 1411q0 53 36.5 87t88.5 34q59 0 98 -33t39 -88q0 -53 -39 -86t-90 -33q-59 0 -96 34t-37 85zM78 0v1141h346v-1141h-346zM301 1411q0 53 35 87t88 34q61 0 100 -33t39 -88q0 -53 -39 -86t-92 -33q-61 0 -96 34t-35 85z" />
<glyph unicode="&#xf1;" horiz-adv-x="1101" d="M82 0v1141h346v-172q6 23 26.5 56.5t55.5 64t85 53t118 22.5q72 0 128 -17.5t99 -60.5q33 -31 52.5 -69.5t28.5 -75.5t11 -70.5t2 -56.5v-815h-348v709q0 35 -1 72.5t-12 68.5t-38 51.5t-76 20.5q-59 0 -90 -43q-33 -43 -37 -91.5t-4 -101.5v-686h-346zM182 1438 q47 68 105.5 106.5t144.5 34.5q45 -2 76 -21.5t59.5 -43t60 -43t77.5 -19.5q41 0 72.5 11.5t52 24.5t31.5 25.5t13 14.5l35 -80q-39 -78 -99 -126t-144 -42q-37 2 -67 22.5t-58.5 45t-60 45t-70.5 24.5q-59 6 -107.5 -16.5t-93.5 -61.5z" />
<glyph unicode="&#xf2;" horiz-adv-x="1126" d="M43 567q0 119 29.5 227.5t93 191.5t163 131t238.5 48q135 0 233.5 -48t162 -131t94 -191.5t30.5 -227.5q0 -121 -36.5 -228.5t-104 -188t-164 -129t-215.5 -48.5q-145 0 -244.5 47.5t-162 127t-90 188t-27.5 231.5zM350 1350l53 182l373 -178v-142zM403 567 q0 -188 40 -264t124 -76q72 0 115 80t43 260q0 76 -5 140.5t-21.5 111.5t-48.5 75t-83 28t-82.5 -26t-50 -73t-25 -112.5t-6.5 -143.5z" />
<glyph unicode="&#xf3;" horiz-adv-x="1126" d="M43 567q0 119 29.5 227.5t93 191.5t163 131t238.5 48q135 0 233.5 -48t162 -131t94 -191.5t30.5 -227.5q0 -121 -36.5 -228.5t-104 -188t-164 -129t-215.5 -48.5q-145 0 -244.5 47.5t-162 127t-90 188t-27.5 231.5zM354 1212v142l367 178l55 -182zM403 567 q0 -188 40 -264t124 -76q72 0 115 80t43 260q0 76 -5 140.5t-21.5 111.5t-48.5 75t-83 28t-82.5 -26t-50 -73t-25 -112.5t-6.5 -143.5z" />
<glyph unicode="&#xf4;" horiz-adv-x="1126" d="M43 567q0 119 29.5 227.5t93 191.5t163 131t238.5 48q135 0 233.5 -48t162 -131t94 -191.5t30.5 -227.5q0 -121 -36.5 -228.5t-104 -188t-164 -129t-215.5 -48.5q-145 0 -244.5 47.5t-162 127t-90 188t-27.5 231.5zM326 1233v178l241 197l250 -197v-178l-250 158z M403 567q0 -188 40 -264t124 -76q72 0 115 80t43 260q0 76 -5 140.5t-21.5 111.5t-48.5 75t-83 28t-82.5 -26t-50 -73t-25 -112.5t-6.5 -143.5z" />
<glyph unicode="&#xf5;" horiz-adv-x="1126" d="M43 567q0 119 29.5 227.5t93 191.5t163 131t238.5 48q135 0 233.5 -48t162 -131t94 -191.5t30.5 -227.5q0 -121 -36.5 -228.5t-104 -188t-164 -129t-215.5 -48.5q-145 0 -244.5 47.5t-162 127t-90 188t-27.5 231.5zM213 1438q45 68 104.5 106.5t143.5 34.5 q45 -2 75.5 -21.5t60.5 -43t60.5 -43t75.5 -19.5q41 0 73 11.5t53.5 24.5t32.5 25.5t15 14.5l31 -80q-39 -78 -99.5 -126t-144.5 -42q-37 2 -65.5 22.5t-56 45t-59.5 45t-73 24.5q-61 6 -109 -16.5t-91 -61.5zM403 567q0 -188 40 -264t124 -76q72 0 115 80t43 260 q0 76 -5 140.5t-21.5 111.5t-48.5 75t-83 28t-82.5 -26t-50 -73t-25 -112.5t-6.5 -143.5z" />
<glyph unicode="&#xf6;" horiz-adv-x="1126" d="M43 567q0 119 29.5 227.5t93 191.5t163 131t238.5 48q135 0 233.5 -48t162 -131t94 -191.5t30.5 -227.5q0 -121 -36.5 -228.5t-104 -188t-164 -129t-215.5 -48.5q-145 0 -244.5 47.5t-162 127t-90 188t-27.5 231.5zM258 1411q0 53 35 87t88 34t95 -33t42 -88 q0 -53 -41 -86t-92 -33q-59 0 -93 35t-34 84zM403 567q0 -188 40 -264t124 -76q72 0 115 80t43 260q0 76 -5 140.5t-21.5 111.5t-48.5 75t-83 28t-82.5 -26t-50 -73t-25 -112.5t-6.5 -143.5zM608 1411q0 53 35 87t88 34q61 0 98 -33t37 -88q0 -53 -36.5 -86t-90.5 -33 q-61 0 -96 35t-35 84z" />
<glyph unicode="&#xf7;" horiz-adv-x="1200" d="M55 633v262h1090v-262h-1090zM428 1202q0 35 12.5 66.5t34 55.5t51 37t62.5 13q80 0 134 -47t54 -125q0 -33 -14 -61.5t-38 -49t-55.5 -32.5t-66.5 -12q-86 0 -130 45t-44 110zM432 315q0 72 49 117t117 45q80 0 133 -44t53 -118q0 -70 -53 -113.5t-125 -43.5 q-80 0 -127 44t-47 113z" />
<glyph unicode="&#xf8;" horiz-adv-x="1126" d="M-18 -27l157 203q-51 78 -73.5 178.5t-22.5 212.5q0 119 29.5 227.5t93 191.5t163 131t238.5 48q86 0 157 -20.5t128 -57.5l57 74h166l-123 -164q70 -82 102.5 -192.5t32.5 -237.5q0 -121 -36.5 -228.5t-104 -188t-164 -129t-215.5 -48.5q-109 0 -191.5 27t-144.5 76 l-77 -103h-172zM403 514l275 348q-39 59 -111 60q-51 0 -82.5 -26t-50 -73t-25 -112.5t-6.5 -143.5v-53zM432 332q18 -57 52 -81t83 -24q72 0 115 80t43 260q0 37 -2 71t-2 64z" />
<glyph unicode="&#xf9;" horiz-adv-x="1097" d="M66 432v709h346v-709q0 -55 4 -94t30 -74q29 -37 89 -37q49 0 95 40t46 120v754h346v-1141h-188q-29 0 -52.5 5t-46.5 26q-23 18 -28 44.5t-5 53.5v37q-47 -92 -130 -137t-173 -45q-86 0 -156.5 32.5t-117.5 108.5q-41 66 -50 139.5t-9 167.5zM350 1350l58 182l366 -178 v-142z" />
<glyph unicode="&#xfa;" horiz-adv-x="1097" d="M66 432v709h346v-709q0 -55 4 -94t30 -74q29 -37 89 -37q49 0 95 40t46 120v754h346v-1141h-188q-29 0 -52.5 5t-46.5 26q-23 18 -28 44.5t-5 53.5v37q-47 -92 -130 -137t-173 -45q-86 0 -156.5 32.5t-117.5 108.5q-41 66 -50 139.5t-9 167.5zM358 1212v142l367 178 l59 -182z" />
<glyph unicode="&#xfb;" horiz-adv-x="1097" d="M66 432v709h346v-709q0 -55 4 -94t30 -74q29 -37 89 -37q49 0 95 40t46 120v754h346v-1141h-188q-29 0 -52.5 5t-46.5 26q-23 18 -28 44.5t-5 53.5v37q-47 -92 -130 -137t-173 -45q-86 0 -156.5 32.5t-117.5 108.5q-41 66 -50 139.5t-9 167.5zM293 1233v178l242 197 l249 -197v-178l-249 158z" />
<glyph unicode="&#xfc;" horiz-adv-x="1097" d="M66 432v709h346v-709q0 -55 4 -94t30 -74q29 -37 89 -37q49 0 95 40t46 120v754h346v-1141h-188q-29 0 -52.5 5t-46.5 26q-23 18 -28 44.5t-5 53.5v37q-47 -92 -130 -137t-173 -45q-86 0 -156.5 32.5t-117.5 108.5q-41 66 -50 139.5t-9 167.5zM236 1411q0 53 36.5 87 t83.5 34q59 0 100.5 -33t41.5 -88q0 -53 -40 -86t-93 -33q-57 0 -93 34t-36 85zM592 1411q0 53 35 87t88 34q55 0 93 -33t38 -88q0 -53 -37 -86t-90 -33q-61 0 -94 34t-33 85z" />
<glyph unicode="&#xff;" horiz-adv-x="1085" d="M2 1141h348l197 -744l192 744h344l-352 -1125q-25 -80 -55.5 -153.5t-75.5 -131t-106.5 -92t-147.5 -36.5q-68 -2 -115 8t-77 22q-37 14 -60 33l-39 262q16 -18 43 -30q23 -12 56.5 -21.5t81.5 -9.5q66 0 91 31.5t35 66.5q4 16 5 35v23zM236 1411q0 53 36.5 87t83.5 34 q59 0 100.5 -33t41.5 -88q0 -53 -40 -86t-93 -33q-57 0 -93 34t-36 85zM592 1411q0 53 35 87t88 34q55 0 93 -33t38 -88q0 -53 -37 -86t-90 -33q-61 0 -94 34t-33 85z" />
<glyph unicode="&#x152;" horiz-adv-x="1859" d="M82 764q0 160 35 303t111.5 251.5t198.5 172t296 63.5q55 0 104.5 -7t96.5 -19h825l76 -330h-500v-268h436v-316h-436v-284h530l-79 -330h-854q-45 -14 -95.5 -22.5t-103.5 -8.5q-182 0 -305 64.5t-198 173t-106.5 253t-31.5 304.5zM506 764q0 -127 11 -214t37 -140.5 t68 -78t101 -24.5q78 0 127 52t72 169v494q-20 98 -64.5 154.5t-134.5 56.5q-72 0 -115 -33t-65.5 -93t-29.5 -147.5t-7 -195.5z" />
<glyph unicode="&#x153;" horiz-adv-x="1736" d="M43 567q0 119 29.5 227.5t93 191.5t163 131t238.5 48q106 0 190.5 -30.5t143.5 -83.5q57 53 136 83.5t190 30.5q102 0 178 -29.5t129 -77.5t86 -111.5t52.5 -131t25.5 -135.5t6 -125v-74h-633v-16q0 -20 11.5 -59t45 -77t93 -65.5t157.5 -27.5q63 0 114.5 11t88.5 26.5 t61.5 30.5t38.5 26l-32 -267q-14 -8 -42 -22t-71 -27.5t-103.5 -23.5t-138.5 -10q-135 0 -229 34.5t-160 89.5q-66 -59 -150.5 -95t-187.5 -36q-145 0 -244.5 47.5t-162 127t-90 188t-27.5 231.5zM403 567q0 -188 40 -264t124 -76q72 0 115 80t43 260q0 76 -5 140.5 t-21.5 111.5t-48.5 75t-83 28t-82.5 -26t-50 -73t-25 -112.5t-6.5 -143.5zM1071 674h307q0 8 -2 49t-15 87t-45 83t-89 37q-61 0 -93 -36t-46.5 -82t-15.5 -87t-1 -51z" />
<glyph unicode="&#x178;" horiz-adv-x="1298" d="M2 1528h432l213 -465l223 465h422l-440 -799v-729h-410v735zM350 1763q0 51 35 85t86 34q57 0 99 -33t42 -86t-41 -87t-92 -34q-61 0 -95 34t-34 87zM700 1763q0 51 36 85t89 34q57 0 96.5 -33t39.5 -86t-38 -87t-89 -34q-61 0 -97.5 34t-36.5 87z" />
<glyph unicode="&#x2c6;" horiz-adv-x="720" d="M59 1255q2 76 33 132.5t79 93.5t109.5 53t122.5 16q31 0 93.5 -12t125 -58t109.5 -139.5t47 -255.5q0 -147 -45 -238t-107.5 -142.5t-130 -70t-112.5 -18.5q-59 0 -101 7.5t-69 16.5t-40 18l-13 10l-51 196q23 -16 55 -28q29 -10 69.5 -19.5t96.5 -9.5q72 0 107.5 30.5 t51.5 67.5q16 43 15 96q-18 -10 -43 -18q-23 -8 -52.5 -14t-68.5 -4q-37 0 -87 10t-94 41t-74 87t-26 152zM322 1225q-2 -51 22.5 -88t73.5 -39q23 -2 39 3t26 9q13 6 21 14q6 63 -2 115q-6 43 -24.5 79t-61.5 40q-25 2 -42.5 -10.5t-28.5 -32t-17 -43t-6 -47.5z" />
<glyph unicode="&#x2dc;" horiz-adv-x="1015" d="M166 1438q43 72 103.5 110.5t142.5 34.5q45 -2 76.5 -21.5t60.5 -42t60.5 -42t74.5 -21.5q41 -2 72.5 9.5t54.5 25.5t34 26.5t13 14.5l31 -86q-35 -78 -97.5 -123t-146.5 -39q-35 2 -63.5 22.5t-58 43t-61.5 43t-73 24.5q-59 6 -107.5 -15.5t-93.5 -62.5z" />
<glyph unicode="&#x2000;" horiz-adv-x="998" />
<glyph unicode="&#x2001;" horiz-adv-x="1997" />
<glyph unicode="&#x2002;" horiz-adv-x="998" />
<glyph unicode="&#x2003;" horiz-adv-x="1997" />
<glyph unicode="&#x2004;" horiz-adv-x="665" />
<glyph unicode="&#x2005;" horiz-adv-x="499" />
<glyph unicode="&#x2006;" horiz-adv-x="332" />
<glyph unicode="&#x2007;" horiz-adv-x="332" />
<glyph unicode="&#x2008;" horiz-adv-x="249" />
<glyph unicode="&#x2009;" horiz-adv-x="399" />
<glyph unicode="&#x200a;" horiz-adv-x="110" />
<glyph unicode="&#x2010;" horiz-adv-x="724" d="M39 444v285h645v-285h-645z" />
<glyph unicode="&#x2011;" horiz-adv-x="724" d="M39 444v285h645v-285h-645z" />
<glyph unicode="&#x2012;" horiz-adv-x="724" d="M39 444v285h645v-285h-645z" />
<glyph unicode="&#x2013;" horiz-adv-x="1200" d="M51 633v285h1088v-285h-1088z" />
<glyph unicode="&#x2014;" horiz-adv-x="1867" d="M72 492v161h1728v-161h-1728z" />
<glyph unicode="&#x2018;" horiz-adv-x="589" d="M54 1086.5q3 58.5 30 130.5t68 133t79 106q45 53 95 94l180 -53q-20 -41 -39 -84q-16 -37 -30.5 -82t-20.5 -92q-6 -49 1 -93t18 -80t22.5 -58.5t13.5 -26.5l-387 -90q0 2 -10.5 26.5t-16.5 67.5t-3 101.5z" />
<glyph unicode="&#x2019;" horiz-adv-x="589" d="M51 952q18 39 37 80q14 35 28.5 81t20.5 95q6 47 -1 91t-17 80t-22.5 58.5t-14.5 26.5l387 86q18 -39 27 -90q6 -43 4 -103t-31 -132q-27 -68 -68 -128.5t-79.5 -105.5t-66.5 -71.5t-28 -28.5z" />
<glyph unicode="&#x201a;" horiz-adv-x="593" d="M53 -231q18 37 35 79q14 37 27.5 83t21.5 96q6 45 1 89t-15 77.5t-21.5 57t-13.5 30.5l383 86q18 -37 27 -88q6 -43 4 -103.5t-31 -132.5q-27 -72 -66.5 -131t-78.5 -105q-45 -53 -95 -96z" />
<glyph unicode="&#x201c;" horiz-adv-x="1028" d="M54 1087.5q3 59.5 30 129.5q29 72 70 133t79 106q45 53 95 94l180 -53q-20 -41 -37 -84q-16 -37 -29.5 -82t-19.5 -92q-6 -49 -1 -93t16.5 -80t21.5 -58.5t14 -26.5l-389 -90q0 2 -10.5 26.5t-16.5 67.5t-3 102.5zM533.5 1086.5q3.5 58.5 29.5 130.5q29 72 68 133t78 106 q43 53 92 94l180 -53q-20 -41 -37 -84q-16 -37 -29.5 -82t-19.5 -92q-6 -49 0 -93t16.5 -80t20.5 -58.5t14 -26.5l-383 -90q0 2 -10 26.5t-16.5 67.5t-3 101.5z" />
<glyph unicode="&#x201d;" horiz-adv-x="1028" d="M47 948q18 39 37 80q14 35 28.5 81t20.5 95q6 47 0 91t-16.5 80t-21.5 58.5t-13 26.5l387 86q20 -41 29 -92q8 -43 4 -102t-33 -131q-29 -70 -70 -129.5t-78.5 -104.5t-65.5 -71.5t-28 -28.5zM522 944q18 39 35 82q14 37 27.5 83t21.5 95q6 47 0 91t-16 80t-21.5 58.5 t-13.5 26.5l389 86q20 -41 29 -92q8 -43 4 -102t-33 -131t-69.5 -132.5t-79.5 -105.5q-45 -53 -95 -96z" />
<glyph unicode="&#x201e;" horiz-adv-x="1028" d="M45 -236q18 37 35 80q14 37 28.5 83t22.5 96q6 45 1 89t-16.5 77.5t-22.5 57t-13 29.5l383 86q18 -37 26 -88q6 -43 4.5 -103t-30.5 -132t-69 -131.5t-79 -104.5q-45 -53 -92 -96zM518 -240q20 39 37 82q14 37 27.5 84t21.5 97q6 45 1 89t-16 77.5t-22.5 57t-13.5 29.5 l387 86q18 -39 27 -90q6 -43 4 -102t-31 -131t-69 -132.5t-78 -105.5q-45 -53 -95 -94z" />
<glyph unicode="&#x2022;" horiz-adv-x="1024" d="M6 764q0 96 37 182t100.5 149.5t148.5 100.5t183 37t183 -37t148.5 -100.5t100.5 -149.5t37 -182q0 -98 -37 -183t-100.5 -148.5t-148.5 -100.5t-183 -37t-183 37t-148.5 100.5t-100.5 148.5t-37 183z" />
<glyph unicode="&#x2026;" horiz-adv-x="1662" d="M82 170q0 43 15.5 80t43 63.5t63.5 42t79 15.5q92 0 156.5 -53.5t64.5 -147.5q0 -41 -17.5 -77t-46 -61.5t-67.5 -40t-82 -14.5q-98 0 -153.5 54.5t-55.5 138.5zM614 170q0 43 15.5 80t43 63.5t64.5 42t78 15.5q98 0 162.5 -53.5t64.5 -147.5q0 -43 -17 -79t-47 -60.5 t-70 -39t-85 -14.5q-92 0 -150.5 54.5t-58.5 138.5zM1153 170q0 43 15.5 80t43 63.5t64.5 42t78 15.5q96 0 160.5 -53.5t64.5 -147.5q0 -86 -63.5 -139.5t-149.5 -53.5q-100 0 -156.5 54.5t-56.5 138.5z" />
<glyph unicode="&#x202f;" horiz-adv-x="399" />
<glyph unicode="&#x2039;" horiz-adv-x="585" d="M-2 694l231 338l299 -20l-188 -318l188 -311l-303 -25z" />
<glyph unicode="&#x203a;" horiz-adv-x="585" d="M59 1012l299 20l226 -338l-222 -336l-299 25l185 311z" />
<glyph unicode="&#x205f;" horiz-adv-x="499" />
<glyph unicode="&#x2122;" horiz-adv-x="622" d="M68 1501v29h196v-29h-80v-409h-34v409h-82zM322 1092v438h59l88 -369l98 369h58v-438h-33v413l-107 -413h-30l-101 413v-413h-32z" />
<glyph unicode="&#x25fc;" horiz-adv-x="1136" d="M0 0v1137h1137v-1137h-1137z" />
</font>
</defs>
</svg>
