<?xml version="1.0" standalone="no"?>
<!DOCTYPE svg PUBLIC "-//W3C//DTD SVG 1.1//EN" "http://www.w3.org/Graphics/SVG/1.1/DTD/svg11.dtd" >
<svg xmlns="http://www.w3.org/2000/svg" xmlns:xlink="http://www.w3.org/1999/xlink" version="1.1">
<metadata></metadata>
<defs>
<font id="tfforeverregular" horiz-adv-x="1226" >
<font-face units-per-em="2048" ascent="1638" descent="-410" />
<missing-glyph horiz-adv-x="516" />
<glyph horiz-adv-x="0" />
<glyph unicode="&#xd;" horiz-adv-x="516" />
<glyph unicode=" "  horiz-adv-x="516" />
<glyph unicode="&#x09;" horiz-adv-x="516" />
<glyph unicode="&#xa0;" horiz-adv-x="516" />
<glyph unicode="!" horiz-adv-x="460" d="M137 84q0 41 26.5 67.5t67.5 26.5q45 0 76 -25.5t31 -68.5q0 -41 -31 -65.5t-71 -24.5q-47 0 -73 24.5t-26 65.5zM147 719v788h172v-788l-24 -279l-117 -39z" />
<glyph unicode="&#x22;" horiz-adv-x="557" d="M109 1532h122l-32 -479h-58zM326 1532h123l-33 -479h-58z" />
<glyph unicode="#" horiz-adv-x="1425" d="M43 500l41 166h317l62 266h-318l37 166h320l119 508h159l-116 -508h227l119 508h159l-118 -508h329l-39 -166h-327l-62 -266h328l-39 -166h-328l-133 -576h-162l134 576h-230l-133 -578h-162l135 578h-319zM563 666h228l61 266h-227z" />
<glyph unicode="$" d="M162 207q31 -14 63 -25q29 -10 58.5 -20t58.5 -17q43 -10 80 -15t63 -9q31 -4 58 -4v606l-140 72q-109 55 -169 139t-56 201q2 96 41 166.5t94.5 116.5t117 69.5t112.5 25.5v107h153v-98q2 0 47 -5.5t95 -15.5q18 -4 39.5 -11t40 -13.5t31 -11.5t14.5 -5l38 -170 q-27 16 -53 31q-23 12 -52.5 24.5t-59.5 22.5q-31 8 -56.5 11t-44.5 5q-23 2 -39 0v-532l99 -51q53 -29 104 -69t91 -91t63.5 -111.5t23.5 -130.5q0 -96 -28.5 -163.5t-70.5 -113.5t-91 -74t-91 -41t-71 -17l-29 -4v-152h-153v143q-4 0 -48 2.5t-128 14.5q-33 6 -63 14 t-53.5 17.5t-38.5 15.5l-15 6zM358 1141q0 -66 29 -110t64 -70q39 -32 92 -50v465q-51 -6 -92 -33q-35 -23 -65 -69.5t-28 -132.5zM696 123l16 2q17 2 39.5 10t49 26.5t48 49.5t35 77.5t9.5 114.5q-4 66 -36 113t-66 78q-43 37 -95 59v-530z" />
<glyph unicode="%" horiz-adv-x="1652" d="M92 1149q0 84 17.5 154.5t55.5 122t98.5 80t148.5 28.5q90 0 152.5 -28.5t100 -79t54 -121t16.5 -156.5q0 -82 -16.5 -152.5t-53 -123t-99 -83t-154.5 -30.5q-90 0 -150.5 30.5t-98.5 84t-54.5 124t-16.5 150.5zM223 1145q0 -133 51.5 -204t139.5 -71q94 0 142 71t48 204 q0 135 -49 204.5t-141 69.5t-141.5 -69.5t-49.5 -204.5zM424 -25l725 1620h135l-729 -1620h-131zM952 367q0 86 17.5 156.5t55.5 121.5t98.5 80t148.5 29q90 0 152.5 -29t100.5 -79t54 -121.5t16 -157.5q0 -80 -16 -152t-53 -124t-99.5 -83t-154.5 -31q-90 0 -150.5 31 t-98.5 84t-54.5 124t-16.5 151zM1083 365q0 -135 51.5 -206t137.5 -71q96 0 144 70.5t48 203.5q0 137 -50 207t-142 70q-90 0 -139.5 -69.5t-49.5 -204.5z" />
<glyph unicode="&#x26;" horiz-adv-x="1392" d="M92 406q0 86 22.5 152.5t55.5 115.5t72 84t72.5 56.5t55.5 30.5l23 9l-27 26q-26 25 -56.5 70t-56.5 106.5t-26 131.5q0 80 28 144.5t78 110.5t119.5 69.5t155.5 21.5q102 -2 174 -35t117 -84t65.5 -114.5t20.5 -126.5q0 -74 -23.5 -130.5t-59.5 -97.5t-79 -69.5 t-78.5 -45t-61.5 -23.5l-26 -7l357 -381q18 29 39 65q16 33 34.5 79t32.5 106q35 143 38 217t3 76l156 -43q0 -39 -6 -91q-4 -43 -15.5 -102t-31.5 -131t-44 -125t-45.5 -89t-37 -54.5t-15.5 -20.5l213 -227l-125 -109l-188 207q-2 -2 -38 -32.5t-97.5 -67.5t-143 -66.5 t-176.5 -29.5q-111 2 -198.5 33.5t-149 89t-94.5 134t-33 167.5zM279 410q2 -74 30.5 -126.5t72.5 -85t97 -47t105 -14.5q78 0 140 22.5t105 51.5q52 33 89 74l-418 454q-63 -23 -115 -65q-43 -37 -77 -100.5t-29 -163.5zM412 1178q0 -53 23.5 -101.5t52 -85.5t53 -59.5 t26.5 -22.5l38 13q38 12 83 42.5t83 82t38 129.5q0 37 -10.5 73.5t-35 65t-63 47t-96.5 20.5q-35 2 -69.5 -10t-62.5 -38.5t-44 -65.5t-16 -90z" />
<glyph unicode="'" horiz-adv-x="352" d="M109 1532h122l-32 -479h-58z" />
<glyph unicode="(" horiz-adv-x="606" d="M94 733q4 209 56.5 372t111.5 275q70 131 158 230l59 -33q-61 -84 -112 -209q-43 -106 -79 -265t-40 -374q-4 -238 31.5 -414t80.5 -295q53 -139 119 -235l-59 -39q-96 96 -170 240q-31 61 -60.5 137t-52 169t-35 203.5t-8.5 237.5z" />
<glyph unicode=")" horiz-adv-x="608" d="M152 -215q66 96 118 235q45 119 81 295.5t32 413.5q-4 215 -40 374t-79 265q-51 125 -112 209l59 33q88 -98 158 -230q59 -113 110.5 -275.5t57.5 -371.5q6 -256 -43.5 -440t-112.5 -307q-74 -143 -170 -240z" />
<glyph unicode="*" horiz-adv-x="557" d="M53 1155l217 107l-215 106l35 62l197 -140l-17 242h74l-25 -242l201 135l39 -63l-223 -100l221 -103l-37 -63l-201 135l25 -242h-74l17 242l-197 -137z" />
<glyph unicode="+" horiz-adv-x="1210" d="M119 674v164h403v389h168v-389h393v-164h-393v-410h-168v410h-403z" />
<glyph unicode="," horiz-adv-x="391" d="M63 -190q20 33 39 69q16 31 29.5 70t18.5 78q6 39 0.5 76.5t-14.5 67.5t-17 49.5t-10 23.5l176 73q8 -39 14 -81q4 -37 3 -87.5t-17 -105.5q-14 -55 -40 -105.5t-50.5 -89t-42.5 -62.5l-19 -24z" />
<glyph unicode="-" horiz-adv-x="837" d="M59 504v166h717v-166h-717z" />
<glyph unicode="." horiz-adv-x="370" d="M88 84q0 41 26.5 67.5t67.5 26.5q45 0 76 -25.5t31 -68.5q0 -41 -31 -65.5t-72 -24.5q-47 0 -72.5 24.5t-25.5 65.5z" />
<glyph unicode="/" horiz-adv-x="448" d="M-57 -139l403 1708h98l-405 -1708h-96z" />
<glyph unicode="0" horiz-adv-x="1228" d="M86 760q0 160 26.5 300t88 245.5t164 166t253.5 60.5q150 0 251.5 -60.5t164 -166t90 -245.5t27.5 -300q0 -174 -26.5 -317.5t-90 -246t-165 -158.5t-251.5 -56q-152 0 -254 56t-163.5 158.5t-88 246t-26.5 317.5zM264 760q0 -311 93.5 -469t260.5 -158q174 0 264.5 158 t90.5 469q0 299 -90 458.5t-265 159.5q-168 0 -261 -159.5t-93 -458.5z" />
<glyph unicode="1" d="M305 1231l33 172l422 121v-1524h-172v1315z" />
<glyph unicode="2" d="M125 174l53 41t130 102.5t165 132t160 132.5q39 33 83 80t82 106t60.5 131t18.5 152q-8 152 -94.5 237.5t-264.5 91.5q-94 4 -159.5 -12t-106.5 -35q-49 -23 -80 -51l39 170q2 0 24.5 14.5t66.5 29.5t109.5 27.5t151.5 10.5q88 -2 176 -29.5t157 -86t113 -146.5t46 -209 q2 -129 -32 -223.5t-84 -165t-109.5 -120.5t-108.5 -89q-53 -43 -122 -94.5t-131 -97.5t-106 -77l-43 -32h740l-51 -164h-863z" />
<glyph unicode="3" d="M156 231q31 -27 80 -49q41 -18 106.5 -33.5t159.5 -15.5q88 0 162.5 16.5t128 51.5t82 91t26.5 136q-2 66 -28.5 113t-68.5 79.5t-94.5 51t-107.5 28.5q-127 23 -291 9l39 151l39 -2t98.5 1t128 16.5t127 45t97.5 84t37 132.5q-2 113 -91.5 179t-267.5 64 q-94 -2 -159.5 -16t-106.5 -33q-49 -23 -80 -49l39 170q2 0 24.5 14.5t66.5 29.5t109.5 27.5t151.5 10.5q88 -2 178 -22.5t161 -68.5t113 -125t36 -192q-4 -76 -30 -130t-62.5 -92t-79.5 -59.5t-80 -33.5t-61 -15l-25 -3l27 -3q28 -4 70 -15t89 -34.5t88 -65.5t67.5 -105.5 t24.5 -153.5q-2 -127 -52 -211t-127 -134.5t-171 -70.5t-182 -23q-86 -2 -151.5 11.5t-109.5 29t-66.5 28.5t-24.5 13z" />
<glyph unicode="4" d="M84 563l659 944h197v-944h182v-157h-182v-408h-170v405h-635zM254 563h516v750z" />
<glyph unicode="5" d="M172 231q31 -27 80 -49q41 -18 106.5 -33.5t159.5 -15.5q174 0 275.5 84t101.5 244q0 88 -25.5 149.5t-67.5 100.5t-97.5 58t-116.5 24q-82 4 -155 -4.5t-126 -18.5q-63 -14 -117 -33l50 768h710v-157h-553l-26 -428q27 6 63 12q31 4 74 7t98 3q88 0 173 -25.5t151.5 -83 t105.5 -150.5t39 -228q0 -129 -48 -219.5t-122 -147.5t-165 -82.5t-177 -28.5q-86 -2 -151.5 11.5t-109.5 29t-66.5 28.5t-24.5 13z" />
<glyph unicode="6" d="M125 760q0 174 37 316.5t109.5 242.5t178 156.5t240.5 58.5q86 2 147.5 -10.5t101.5 -27.5t58.5 -29.5t20.5 -14.5l39 -172q-31 29 -80 51q-41 18 -106.5 33.5t-159.5 13.5q-80 -2 -139.5 -26.5t-102.5 -62.5t-70.5 -86t-46.5 -97q-41 -117 -43 -264q45 27 101 49 q47 18 112.5 33.5t143.5 19.5q88 2 176 -23.5t157.5 -86t111.5 -154.5t40 -227q-4 -147 -60.5 -241.5t-138.5 -148t-173 -72t-165 -14.5q-154 8 -249 80t-148 180.5t-72.5 244.5t-19.5 278zM309 698q-8 -152 21 -272q12 -51 33.5 -101.5t55.5 -91t82 -67.5t115 -31 q68 -4 131.5 13.5t112.5 56.5t80 98t33 139q2 74 -17.5 139.5t-59.5 112.5t-102.5 75t-146.5 28q-90 0 -153.5 -15.5t-104.5 -33.5q-49 -23 -80 -50z" />
<glyph unicode="7" d="M133 1348l49 157h932l-530 -1507h-178l489 1350h-762z" />
<glyph unicode="8" d="M121 395q-2 76 23.5 133.5t63.5 99.5t82 69.5t83 45t65 24.5l27 7q-2 0 -24.5 7t-57.5 23.5t-75 43t-74.5 65.5t-58 92.5t-25.5 120.5q-4 115 44 193t120.5 126t156.5 68.5t154 20.5q72 0 157.5 -16.5t157.5 -61.5t119 -125t41 -205q-4 -66 -26.5 -114.5t-55.5 -84.5 t-71 -60.5t-70.5 -39t-54.5 -20.5l-21 -6l25 -9q26 -8 63 -26t79 -49t78.5 -76t60 -105.5t21.5 -140.5q-2 -111 -48 -189.5t-118.5 -128.5t-161.5 -75t-175 -25q-90 0 -178.5 21.5t-160 70t-117.5 128t-48 198.5zM301 410q-4 -123 80 -204t246 -81q158 0 241.5 73.5 t81.5 200.5q-2 104 -54 165t-116 91q-74 37 -168 50q-2 0 -24.5 -5.5t-56 -16.5t-73.5 -32.5t-74 -54.5t-57.5 -79t-25.5 -107zM326 1133q0 -53 22.5 -93.5t57 -70t75.5 -49t77 -30.5t60 -16l23 -6l21 3q22 3 54 13.5t68.5 29t68.5 48t52.5 73t20.5 102.5q-2 102 -72 174.5 t-229 74.5q-154 0 -226.5 -69.5t-72.5 -183.5z" />
<glyph unicode="9" d="M102 1061q2 131 48.5 223t118 149.5t159.5 81t172 19.5q154 -6 252 -69.5t156.5 -168t81 -243.5t22.5 -299q0 -174 -37 -315.5t-109.5 -243t-178 -156.5t-240.5 -57q-86 -2 -147.5 10t-101.5 27.5t-58.5 29.5t-20.5 14l-39 173q31 -29 80 -52q41 -18 106.5 -34.5 t159.5 -12.5q104 2 176 43t116 100.5t66.5 127t33 127t10.5 98.5v39q-43 -27 -97 -49q-47 -18 -110.5 -35t-140.5 -21q-88 -4 -174.5 23.5t-155 87t-110.5 155t-38 228.5zM281 1071q-2 -76 16 -140.5t56 -112.5t99.5 -75.5t145.5 -27.5q90 0 151.5 15t102.5 34q47 22 76 49 q12 152 -17 274q-12 51 -34.5 102.5t-59.5 91.5t-90 66.5t-127 30.5q-63 4 -120.5 -13t-100.5 -56t-69.5 -98.5t-28.5 -139.5z" />
<glyph unicode=":" horiz-adv-x="391" d="M92 170q0 43 29 70.5t69 27.5q47 0 78 -25.5t33 -72.5q0 -43 -30.5 -69.5t-71.5 -26.5q-49 0 -78 27.5t-29 68.5zM92 969q0 43 29 70.5t69 27.5q47 0 78 -25.5t33 -72.5q0 -43 -30.5 -70t-71.5 -27q-49 0 -78 28t-29 69z" />
<glyph unicode=";" horiz-adv-x="391" d="M63 -190q20 33 39 69q16 31 29.5 70t18.5 78q6 39 0.5 76.5t-14.5 67.5t-17 49.5t-10 23.5l176 73q8 -39 14 -81q4 -37 3 -87.5t-17 -105.5q-14 -55 -40 -105.5t-50.5 -89t-42.5 -62.5l-19 -24zM92 969q0 43 29 70.5t69 27.5q47 0 78 -25.5t33 -72.5q0 -43 -30.5 -70 t-71.5 -27q-49 0 -78 28t-29 69z" />
<glyph unicode="&#x3c;" horiz-adv-x="1210" d="M127 674v145l956 533v-195l-737 -409l737 -402v-205z" />
<glyph unicode="=" horiz-adv-x="1210" d="M111 485v168h962v-168h-962zM111 858v164h962v-164h-962z" />
<glyph unicode="&#x3e;" horiz-adv-x="1210" d="M125 141v205l737 402l-737 409v195l954 -533v-145z" />
<glyph unicode="?" horiz-adv-x="960" d="M27 1290l41 170q2 0 19 10.5t55 22.5t98.5 21.5t146.5 7.5q80 -2 160 -21.5t145.5 -63.5t108.5 -117.5t49 -184.5q4 -88 -24.5 -151.5t-73.5 -111t-100.5 -83t-105.5 -66.5t-88 -62.5t-46 -72.5q-16 -66 -8 -107t8 -45l-131 -45l-7 27q-6 28 -10 69t-4 89.5t12 89.5 q16 59 54.5 100t83.5 72.5t93 59.5t87 60.5t62.5 75.5t19.5 107q-2 45 -21.5 87t-58.5 73.5t-100.5 49t-149.5 13.5q-86 -4 -144.5 -16.5t-97.5 -24.5q-45 -14 -73 -33zM276 84q0 41 27 67.5t68 26.5q45 0 75.5 -25.5t30.5 -68.5q0 -41 -30.5 -65.5t-71.5 -24.5 q-47 0 -73 24.5t-26 65.5z" />
<glyph unicode="@" horiz-adv-x="1730" d="M76 776q6 168 62.5 315.5t159.5 258t249.5 176t331.5 65.5q170 0 326.5 -60.5t271 -171t177 -263t44.5 -336.5q-10 -96 -53 -209t-117 -203t-173.5 -139t-219.5 -19q-53 14 -85 42t-45.5 65t-13.5 79t10 85l52 223q-41 -115 -99 -205q-25 -39 -55.5 -75.5t-68 -66.5 t-81.5 -49.5t-94 -19.5q-100 -4 -157.5 49.5t-83 132t-26.5 167t11 155.5q18 100 62.5 194.5t110 168t148.5 119.5t179 51q68 2 116 -16.5t80.5 -42t48 -44t17.5 -20.5q2 14 6 28q4 12 7.5 23.5t7.5 19.5q16 29 57 29h80l-174 -780q-6 -29 -10.5 -60.5t-2 -60.5t12.5 -51.5 t33 -32.5q51 -23 101 -13.5t94 41t82 82t65.5 109.5t45 124t21.5 124q12 176 -40 314.5t-149.5 232.5t-231.5 144t-283 50q-150 0 -278 -57t-223 -155.5t-150.5 -231.5t-61.5 -285q-4 -152 43 -286t139 -235t227.5 -163.5t307.5 -73.5q31 -2 54.5 -3t51.5 3l8 -77 q-33 -6 -56 -9.5t-58 -3.5q-201 2 -354.5 72t-258 185.5t-154.5 268t-44 322.5zM541 627.5q2 -66.5 19.5 -119.5t47 -86t72.5 -39q45 -6 92 23.5t91 80t84 119t75 141t60.5 145.5t41.5 134l15 55q-18 35 -47 62q-25 23 -66 41t-102 14q-80 -4 -143.5 -48t-110.5 -106.5 t-77 -136t-42 -139.5q-12 -74 -10 -140.5z" />
<glyph unicode="A" horiz-adv-x="1234" d="M31 0l483 1509h209l487 -1509h-188l-98 319h-619l-102 -319h-172zM358 477h516l-256 850h-2z" />
<glyph unicode="B" horiz-adv-x="1255" d="M150 0v1507h462q94 0 170 -10t148 -51q63 -35 113.5 -110.5t50.5 -186.5q0 -76 -13.5 -130t-38.5 -95q-29 -47 -82 -81t-112 -50q59 -12 111.5 -30t99.5 -61q59 -57 79.5 -122.5t20.5 -126.5q0 -78 -20.5 -167t-96.5 -165q-45 -43 -100 -67.5t-113.5 -36t-118 -14.5 t-112.5 -3h-448zM319 164h279q35 0 77 1t84 7t81 21.5t69 46.5q33 31 50.5 77.5t17.5 116.5q0 63 -15.5 106.5t-43.5 73.5q-27 29 -63 45.5t-78 23.5t-87 9t-92 2h-279v-530zM319 854h293q14 0 62.5 3t100.5 26.5t93 75t41 147.5q0 72 -19.5 117t-64.5 82q-23 18 -53.5 27 t-61 13.5t-58 4.5h-40.5h-293v-496z" />
<glyph unicode="C" horiz-adv-x="1185" d="M125 750q0 35 7 105.5t30.5 155.5t67.5 175t120 166q76 74 185.5 122t267.5 48q59 0 104 -9.5t76 -19.5q37 -12 61 -29l39 -166q-37 18 -84 33q-41 12 -95 23.5t-120 11.5q-121 0 -198.5 -42t-136.5 -110q-72 -84 -106 -201.5t-34 -258.5q0 -172 43 -301t117 -197 q66 -59 143.5 -82.5t192.5 -23.5q53 0 110.5 14t104.5 31.5t77.5 32t32.5 16.5l-59 -197q-33 -20 -82 -35q-41 -14 -105.5 -24.5t-152.5 -10.5q-127 0 -222 38t-179 114q-70 63 -110 147t-61.5 172.5t-27.5 168t-6 133.5z" />
<glyph unicode="D" horiz-adv-x="1351" d="M150 0v1507h462q137 0 246 -33.5t195 -123.5q39 -41 72.5 -95.5t58 -126t38 -162.5t13.5 -206t-16.5 -209t-44 -168t-64.5 -129t-76 -94q-84 -82 -183 -121t-239 -39h-462zM322 162h290h41t83 13t103.5 47t101.5 99.5t77 171t33 263.5q0 152 -27 255t-69 168.5t-94 100.5 t-101 50.5t-89 17.5t-59 2h-290v-1188z" />
<glyph unicode="E" horiz-adv-x="1048" d="M150 0v1505h790l39 -159h-657v-484h577v-168h-577v-530h682l-52 -164h-802z" />
<glyph unicode="F" horiz-adv-x="1015" d="M147 0v1505h791l39 -159h-658v-484h578v-168h-578v-694h-172z" />
<glyph unicode="G" horiz-adv-x="1308" d="M123 750q0 37 4 106.5t26.5 154.5t72.5 176t141 173q72 66 182 116t280 50q76 0 131.5 -9.5t90.5 -19.5q41 -12 69 -29l39 -168q-39 18 -86 33q-41 12 -97 23.5t-124 11.5q-131 0 -224 -39t-163 -112q-84 -88 -120 -205t-36 -258q0 -195 47 -312.5t123 -185.5 q66 -59 149 -82.5t187 -23.5q53 0 91 3t63 7q27 4 45 10v475h-219v160h391v-772q-27 -6 -56 -15q-25 -6 -57.5 -13t-66.5 -11q-55 -8 -102.5 -10t-106.5 -2q-166 0 -271.5 42t-181.5 109q-70 63 -113 146t-67.5 169.5t-32.5 166t-8 135.5z" />
<glyph unicode="H" horiz-adv-x="1327" d="M150 0v1507h172v-624h696v624h172v-1507h-172v719h-696v-719h-172z" />
<glyph unicode="I" horiz-adv-x="460" d="M147 0v1507h172v-1507h-172z" />
<glyph unicode="J" horiz-adv-x="931" d="M2 176q35 -20 76 -35q35 -14 83 -24.5t101 -10.5q74 0 125 29t82 82q20 35 30.5 77t14.5 85t4 86v82v960h176v-960q0 -109 -7 -185.5t-23.5 -133t-43 -98.5t-65.5 -79q-37 -37 -84 -57.5t-91 -29.5t-78 -10t-46 -1q-53 0 -93 9t-69 20q-33 12 -55 28z" />
<glyph unicode="K" horiz-adv-x="1202" d="M147 0v1507h172v-682l654 682h221l-678 -702l688 -805h-219l-666 786v-786h-172z" />
<glyph unicode="L" horiz-adv-x="952" d="M147 0v1507h172v-1347h635l-39 -160h-768z" />
<glyph unicode="M" horiz-adv-x="1558" d="M147 0v1507h166l459 -518l473 518h174v-1507h-172v1276l-475 -531l-453 510v-1255h-172z" />
<glyph unicode="N" horiz-adv-x="1341" d="M147 0v1507h172l711 -1194v1194h172v-1507h-176l-707 1198v-1198h-172z" />
<glyph unicode="O" horiz-adv-x="1456" d="M127 760v19q-1 149 29 281q32 140 105 245.5t191.5 166t290.5 60.5q178 0 295 -62.5t184.5 -169t95.5 -246.5t28 -294q0 -164 -34 -305.5t-105.5 -247t-186.5 -165.5t-277 -60q-182 0 -300.5 61t-188.5 166.5t-97.5 248t-29.5 302.5zM313 760q0 -150 21.5 -265.5 t72 -194.5t133.5 -120q79 -39 192 -39h11q131 2 214 52.5t128 134.5t61.5 193.5t16.5 230.5q0 100 -11 209.5t-53 199.5t-125 149.5t-224 63.5h-11q-137 0 -221 -47q-86 -49 -132 -134t-59.5 -197.5t-13.5 -235.5z" />
<glyph unicode="P" horiz-adv-x="1198" d="M150 0v1507h458q96 0 185.5 -22.5t157 -78.5t108.5 -155.5t41 -253.5q0 -129 -36 -224t-97 -152q-47 -45 -93.5 -71t-91.5 -38t-89 -15t-85 -3h-289v-494h-169zM319 653h293q6 0 31 1t58.5 9.5t71.5 29t71 57.5q35 41 55.5 101t20.5 144q0 129 -37 200t-88.5 105.5 t-102.5 42t-80 7.5h-293v-697z" />
<glyph unicode="Q" horiz-adv-x="1458" d="M125 756v19q0 149 29 282q32 141 105 246.5t191.5 166t290.5 60.5q178 0 296 -62.5t186.5 -169t94.5 -246.5q24 -122 24 -255q0 -21 -1 -41q-4 -147 -27.5 -257t-60 -191t-83 -134t-93.5 -86q-113 -80 -252 -80q43 -18 86 -35q37 -14 80 -28.5t80 -24.5 q55 -16 100.5 -23.5t104.5 -11.5l-62 -161q-2 0 -66.5 14t-162.5 45t-217 78t-231 112q-92 53 -168 122t-129.5 163t-83 216t-31.5 282zM309 758q0 -301 109.5 -461t322.5 -160q135 0 218 50.5t127 135.5t59.5 195.5t15.5 231.5q0 100 -11 209.5t-54 200.5t-125 150.5 t-223 59.5q-150 0 -237 -50t-132 -134t-57.5 -194.5t-12.5 -233.5z" />
<glyph unicode="R" horiz-adv-x="1196" d="M150 0v1507h460q102 0 191.5 -22.5t156 -79.5t104.5 -155.5t38 -248.5q0 -133 -40 -220t-91 -141t-100.5 -78.5t-67.5 -31.5l342 -530h-199l-307 489h-318v-489h-169zM319 653h293q10 0 59.5 6.5t104.5 39t99.5 102t44.5 194.5q0 129 -37 200t-88.5 105.5t-102.5 42 t-80 7.5h-293v-697z" />
<glyph unicode="S" horiz-adv-x="1124" d="M111 207q4 -2 56 -21.5t165 -35.5q33 -4 65.5 -7.5t67.5 -3.5h35.5t67.5 5.5t80 14.5t75 27q55 31 87 83.5t32 133.5q0 59 -23.5 103.5t-66.5 81.5q-53 45 -134 79.5t-165 71.5t-158 81t-113 108q-31 47 -43 97t-12 110q0 68 27.5 138t72.5 113q72 72 168.5 104t194.5 32 q86 0 146.5 -9.5t99 -20.5t56 -21.5t19.5 -10.5l39 -170q-16 10 -39 21q-20 8 -48.5 17t-67.5 18q-35 6 -75 12t-85 6q-152 0 -227 -45q-53 -31 -78 -81t-25 -97q0 -41 12.5 -74t53.5 -68q49 -43 120.5 -76.5t149.5 -68.5t154.5 -77t134.5 -103q45 -47 70.5 -106.5 t25.5 -137.5q0 -152 -54 -240t-136 -135t-176.5 -60t-174.5 -13q-96 0 -160.5 10t-105.5 22q-47 14 -74 33z" />
<glyph unicode="T" horiz-adv-x="948" d="M10 1346l35 159h899l-37 -159h-336v-1346h-172v1346h-389z" />
<glyph unicode="U" horiz-adv-x="1316" d="M139 563v944h176v-944q0 -80 15.5 -157.5t54.5 -138t106.5 -97.5t170.5 -37q104 0 172.5 37t107.5 97.5t54.5 138t15.5 157.5v944h176v-944q0 -84 -8.5 -155.5t-32.5 -131.5q-66 -158 -195 -230.5t-295 -72.5q-164 0 -291.5 75t-183.5 228q-23 61 -33 134t-10 153z" />
<glyph unicode="V" horiz-adv-x="1196" d="M8 1507h187l405 -1310l414 1310h174l-483 -1507h-211z" />
<glyph unicode="W" horiz-adv-x="1685" d="M8 1507h182l279 -1296l283 1296h180l280 -1288l285 1288h176l-354 -1507h-211l-266 1223l-269 -1223h-211z" />
<glyph unicode="X" horiz-adv-x="1196" d="M8 0l484 784l-484 723h199l389 -587l393 587h197l-498 -731l500 -776h-205l-395 637l-383 -637h-197z" />
<glyph unicode="Y" horiz-adv-x="1196" d="M8 1507h189l399 -682l403 682h187l-508 -827v-680h-172v686z" />
<glyph unicode="Z" horiz-adv-x="976" d="M-31 0l703 1346h-662l35 159h899l-700 -1339h727l-41 -166h-961z" />
<glyph unicode="[" horiz-adv-x="514" d="M68 -254v1864h348v-123h-172v-1610h172v-131h-348z" />
<glyph unicode="\" horiz-adv-x="440" d="M-43 1569h106l381 -1620h-104z" />
<glyph unicode="]" horiz-adv-x="514" d="M104 -123h172v1610h-172v123h349v-1864h-349v131z" />
<glyph unicode="^" horiz-adv-x="966" d="M51 760l365 747h131l368 -751h-135l-297 602l-301 -598h-131z" />
<glyph unicode="_" horiz-adv-x="1030" d="M0 -276h1042v-93h-1042v93z" />
<glyph unicode="`" horiz-adv-x="1032" d="M350 1407l74 106l244 -188v-98z" />
<glyph unicode="a" horiz-adv-x="966" d="M63 313q0 35 11.5 85.5t46.5 103.5q37 55 88 91t109.5 56.5t121 28.5t125.5 8q35 0 62.5 -2t50.5 -4q25 -4 45 -6v65v40t-3 49.5t-13.5 51t-30.5 48.5q-29 31 -84 50t-146 19q-70 -2 -121 -15t-85 -30q-41 -20 -70 -43l29 160q29 18 69 33q35 12 88.5 22.5t124.5 10.5 q109 0 185.5 -27t121.5 -74q27 -29 43.5 -57.5t25.5 -63t13 -76.5t4 -98v-739h-77q-29 0 -38 2t-20 12q-14 14 -14 45v74q-47 -67 -125 -109q-71 -39 -194 -38h-23q-104 2 -166.5 39.5t-96.5 89t-45.5 106.5t-11.5 92zM231 326q0 -109 68 -159t164 -50q12 0 37.5 3t48.5 9 q70 23 121 67.5t51 114.5v240q-18 2 -41 6q-20 2 -46 4t-54 2q-139 0 -230.5 -43t-111.5 -133q-4 -20 -5.5 -34.5t-1.5 -26.5z" />
<glyph unicode="b" horiz-adv-x="1034" d="M127 0v1511h154v-495q25 35 63 61q33 23 84 42.5t123 19.5q57 0 105.5 -9.5t99.5 -37.5q59 -31 102 -86.5t70.5 -124t41 -148.5t13.5 -162q0 -104 -25.5 -208.5t-78 -188.5t-132 -137t-188.5 -53q-82 0 -150.5 28.5t-136.5 93.5v-106h-145zM279 223q39 -25 81 -43 q35 -16 80 -29.5t90 -13.5q55 0 105.5 19.5t89.5 68.5t63.5 134t28.5 216v24q0 67 -9 131q-11 75 -44 133.5t-89.5 94t-144.5 39.5h-11q-74 -1 -120 -25q-49 -26 -75.5 -67t-35.5 -89t-9 -87v-506z" />
<glyph unicode="c" horiz-adv-x="901" d="M61 553q0 86 22.5 187.5t79 188.5t151 146.5t237.5 59.5q74 0 125 -12.5t84 -28.5q37 -18 61 -39l25 -154q-29 25 -68 47q-35 16 -83 31.5t-111 15.5q-74 0 -137.5 -22.5t-111.5 -73.5t-75 -137t-27 -211q0 -86 19.5 -162t62.5 -132t112 -89q65 -31 156 -31h11 q66 2 117 18.5t86 37.5q40 22 73 53l-24 -178q-39 -23 -86 -41q-41 -16 -95.5 -27.5t-117.5 -11.5q-53 0 -121 11t-131 48q-106 63 -170 194.5t-64 311.5z" />
<glyph unicode="d" horiz-adv-x="1040" d="M61 553q0 45 6.5 105.5t24 125t48 127t78.5 111.5t116.5 80t161.5 31q80 0 132 -18.5t85 -41.5q37 -25 59 -57v495h152v-1511h-144v106q-68 -66 -135 -93t-151 -27q-121 0 -203 45t-133.5 122.5t-74 180t-22.5 219.5zM233 551q0 -82 14.5 -158t46.5 -134t87 -94t139 -36 q39 0 76 7t70 24q25 12 44 26.5t33 28.5q17 17 29 33v481q0 53 -14.5 105.5t-48.5 91.5q-33 35 -83.5 55t-115.5 20q-68 0 -114 -24.5t-77.5 -63.5t-48 -88t-25.5 -99t-10.5 -96t-1.5 -79z" />
<glyph unicode="e" horiz-adv-x="1009" d="M61 553q0 45 6.5 106.5t24 126t48 127t81.5 112.5t125 81t176 31t174 -32t120 -83t77 -115.5t42 -128t17 -119t4 -90.5q0 -10 -1 -21t-1 -20v-18h-721q-2 -2 -2 -6v-25q0 -25 8.5 -80t43 -112.5t106.5 -102.5t201 -49q18 -1 35 -1q67 0 117 12q64 16 104 34q49 23 80 51 l-23 -161l-21 -12q-22 -13 -63 -28.5t-100.5 -27.5t-134.5 -12q-182 0 -286.5 63.5t-157 153.5t-66 185t-13.5 161zM236 637h555q-2 98 -31 180q-12 33 -31.5 67t-47.5 60.5t-67 43t-90 18.5h-12q-47 0 -86 -14q-43 -16 -73.5 -42t-51 -59t-33.5 -68q-31 -82 -32 -186z" />
<glyph unicode="f" horiz-adv-x="563" d="M8 981l35 127h131v131q0 127 67.5 204t190.5 77q29 0 48.5 -5.5t33.5 -11.5q16 -8 27 -14l14 -143q-12 8 -29 16q-14 6 -34.5 12t-49.5 6q-51 0 -84.5 -32.5t-33.5 -92.5v-147h223l-29 -127h-192v-981h-152v981h-166z" />
<glyph unicode="g" horiz-adv-x="974" d="M59 -106q0 53 17.5 94t40.5 67q25 31 57 51q-53 20 -83 53.5t-32 102.5v8q0 57 28 93q30 38 67 59q43 23 98 31q-41 27 -74 67q-29 35 -51.5 92.5t-22.5 137.5q0 119 35 194.5t87.5 118.5t112.5 58.5t110 15.5q84 0 139 -20.5t90 -45.5q39 -29 61 -63q0 14 4 28 q4 27 17 43q18 23 34.5 26t39.5 3h63v-358q0 -82 -23.5 -154t-72.5 -124t-124 -83t-179 -31q-55 0 -108 1h-17q-42 0 -75 -4q-40 -5 -63.5 -19t-23.5 -47q0 -37 36 -53.5t85 -21.5q35 -4 71 -4q14 0 29 1q51 2 82 2q221 0 320 -79q94 -76 94 -211v-11q-2 -76 -35 -132 t-90.5 -94t-134 -57.5t-166.5 -19.5q-113 0 -196 22.5t-138 60.5t-82 90t-27 112zM203 -86q0 -78 81 -125t218 -47q45 0 94 10t89 29.5t65.5 51.5t25.5 75q0 27 -10 54.5t-41 51t-84 39t-139 15.5h-213q-25 -18 -43 -41q-16 -20 -29.5 -49t-13.5 -64zM252 748 q0 -115 61.5 -191t169.5 -76q133 0 199 73t66 194q0 45 -12.5 90t-41 82.5t-77 62.5t-119.5 27h-13q-119 0 -175 -68q-58 -72 -58 -194z" />
<glyph unicode="h" horiz-adv-x="1038" d="M127 0v1511h154v-538q4 14 23.5 40.5t56 54.5t92 48.5t129.5 20.5q211 0 299 -131q41 -59 52 -127t11 -164v-715h-151v711q0 55 -6.5 108t-30 93t-71.5 64.5t-134 24.5q-115 0 -178 -57q-31 -29 -49.5 -61.5t-27.5 -66.5t-12 -66.5t-3 -59.5v-690h-154z" />
<glyph unicode="i" horiz-adv-x="370" d="M92 1399q2 37 30 57.5t66 20.5q35 0 64 -20.5t29 -57.5q0 -41 -27 -64.5t-66 -23.5q-34 -1 -66 17q-30 16 -30 65v6zM111 0v1108h153v-1108h-153z" />
<glyph unicode="j" horiz-adv-x="382" d="M-117 -190q18 -6 41 -13q18 -4 42 -8t48 -4q51 0 78 32.5t27 92.5v1198h153v-1188q0 -125 -53 -201.5t-176 -76.5q-29 0 -55.5 4t-46.5 10q-23 8 -45 16zM100 1399q2 37 30 57.5t67 20.5q35 0 63.5 -20.5t28.5 -57.5q0 -41 -26.5 -64.5t-65.5 -23.5q-35 0 -67 17 q-30 17 -30 65v6z" />
<glyph unicode="k" horiz-adv-x="931" d="M129 0v1511h154v-837l436 434h205l-473 -453l530 -655h-184l-514 643v-643h-154z" />
<glyph unicode="l" horiz-adv-x="409" d="M129 0v1511h154v-1511h-154z" />
<glyph unicode="m" horiz-adv-x="1605" d="M111 0v1108h153v-135q8 20 29.5 49t57.5 54.5t88.5 43t125.5 17.5q39 0 91.5 -10.5t93.5 -39.5q29 -20 50 -42.5t34 -43.5q14 -23 22 -45q27 51 74 91q41 35 103.5 62.5t154.5 27.5q45 0 93 -10.5t91 -39.5q47 -31 76 -74.5t43 -94t18 -103.5t4 -100v-715h-149v711 q0 49 -4 95t-14 71q-8 20 -20.5 40.5t-35.5 38.5q-33 27 -70.5 37.5t-91.5 10.5q-39 0 -77.5 -14.5t-71.5 -45.5q-33 -29 -50.5 -60.5t-25.5 -64.5t-10 -65.5t-2 -63.5v-690h-150v711q0 104 -16 157.5t-57 87.5q-20 18 -58.5 33t-103.5 15q-45 0 -83 -16.5t-67 -43.5 q-31 -29 -49 -61.5t-27.5 -66.5t-12.5 -66.5t-3 -59.5v-690h-153z" />
<glyph unicode="n" horiz-adv-x="1024" d="M111 0v1108h153v-135q4 14 23.5 40.5t56.5 54.5t92.5 48.5t128.5 20.5q211 0 299 -131q41 -59 52.5 -127t11.5 -164v-715h-152v711q0 55 -6 108t-29.5 93t-71.5 64.5t-134 24.5q-115 0 -179 -57q-31 -29 -49 -61.5t-27.5 -66.5t-12.5 -66.5t-3 -59.5v-690h-153z" />
<glyph unicode="o" horiz-adv-x="1032" d="M61 547q0 115 24 220t79 187t144 130.5t220 48.5q135 0 223.5 -49.5t138.5 -130.5t69.5 -186t19.5 -218q0 -119 -29.5 -221.5t-86 -179t-140.5 -119.5t-195 -43q-129 2 -218 41t-144 111.5t-80 176t-25 232.5zM223 541q0 -211 74 -316.5t233 -105.5q76 0 130.5 33.5 t88 92t50 135.5t16.5 163q0 70 -7 150.5t-37 148t-86 113.5t-155 46q-96 0 -156.5 -39.5t-94 -104t-45 -147.5t-11.5 -169z" />
<glyph unicode="p" horiz-adv-x="1038" d="M127 -354v1462h82q29 0 39 -2t20 -12t11.5 -23.5t1.5 -30.5v-67q18 39 41.5 63.5t52.5 44.5q37 29 90 43.5t102 14.5q80 0 149.5 -23.5t125.5 -83.5q72 -74 106.5 -190.5t34.5 -257.5q0 -104 -25.5 -210t-78 -190t-132 -137t-188.5 -53q-86 0 -152.5 28.5t-134.5 94.5 v-471h-145zM279 233q39 -25 81 -43q35 -16 80 -29.5t90 -13.5q55 0 105.5 19.5t89.5 69t63.5 134.5t28.5 218v23q0 67 -10 131q-12 73 -45 130.5t-90 91.5q-53 33 -133 33h-9q-82 0 -131 -30.5t-75.5 -74.5t-35.5 -94t-9 -91v-474z" />
<glyph unicode="q" horiz-adv-x="1032" d="M59 584q0 90 18.5 188t64.5 179t124 134.5t199 53.5q72 0 120 -15.5t85 -42.5q29 -20 51 -44.5t43 -63.5v67q0 16 1 29.5t11 24.5q10 10 19.5 12t38.5 2h81v-1462h-143v471q-66 -61 -134.5 -91t-152.5 -30q-190 0 -309 170q-53 76 -85 183.5t-32 234.5zM225 588 q0 -147 40 -253t106 -149q59 -39 141 -39q47 0 92 13.5t80 29.5q41 18 80 43v474q0 45 -9.5 96t-39 94t-83.5 71.5t-143 28.5q-84 0 -146 -48t-89 -132q-16 -49 -22.5 -98t-6.5 -131z" />
<glyph unicode="r" horiz-adv-x="673" d="M111 0v1108h153v-139q10 20 25 41q10 16 26.5 35.5t36.5 35.5q39 29 77 40.5t77 11.5q23 0 35 -2.5t32 -6.5q25 -6 45 -16l21 -10l27 -166q-41 31 -83 43q-36 10 -76 10h-13q-78 -2 -121 -31.5t-72 -79.5q-31 -59 -34 -120.5t-3 -106.5v-647h-153z" />
<glyph unicode="s" horiz-adv-x="792" d="M39 246q49 -33 102 -56q47 -20 104.5 -36.5t116.5 -16.5q111 0 164.5 41t53.5 131q0 57 -39 94t-96.5 65t-125 54.5t-125 66.5t-96.5 98t-39 149q0 68 27 123t73 94t110.5 59.5t138.5 20.5q78 0 127 -12.5t77 -26.5q35 -18 54 -39l24 -154q-27 25 -65 45 q-35 16 -85.5 31.5t-119.5 15.5q-98 0 -147.5 -43t-49.5 -121q0 -43 24.5 -74.5t61.5 -55t80 -41t80 -33.5q59 -25 110.5 -53.5t88.5 -65.5t58.5 -83.5t21.5 -105.5q0 -78 -24 -135t-65 -98q-53 -51 -125.5 -73.5t-158.5 -22.5q-63 0 -111.5 8t-85.5 19.5t-64.5 25.5 t-50.5 27z" />
<glyph unicode="t" horiz-adv-x="575" d="M8 981l29 127h141l12 235l140 25v-260h241l-28 -127h-211v-721q0 -59 34.5 -93t86.5 -34q25 0 48 4t42 8q23 7 41 15l-13 -137q-23 -8 -45 -17q-20 -6 -46.5 -11t-55.5 -5q-123 0 -186.5 77.5t-63.5 202.5v711h-166z" />
<glyph unicode="u" horiz-adv-x="1026" d="M104 393v715h154v-709v-60.5t6 -57t20.5 -55t43.5 -54.5q23 -23 63.5 -38t93.5 -15q51 0 102.5 15.5t91.5 44t64.5 67.5t24.5 86v776h154v-1108h-80q-29 0 -37 2t-19 12q-14 12 -14 45v74q-45 -61 -118.5 -104t-196.5 -43q-86 0 -145.5 19.5t-106.5 64.5q-59 57 -80 136 t-21 187z" />
<glyph unicode="v" horiz-adv-x="858" d="M4 1108h150l278 -924l268 924h150l-340 -1108h-158z" />
<glyph unicode="w" horiz-adv-x="1296" d="M6 1108h152l213 -924l192 924h195l180 -924l205 924h149l-276 -1108h-158l-203 977l-206 -977h-160z" />
<glyph unicode="x" horiz-adv-x="858" d="M6 1108h164l266 -428l250 428h166l-336 -549l338 -561h-168l-254 436l-258 -436h-166l344 557z" />
<glyph unicode="y" horiz-adv-x="862" d="M10 1108h150l278 -924l269 924h147l-360 -1188q-18 -59 -35 -110.5t-43.5 -88t-64.5 -58t-99 -21.5q-29 0 -55.5 4t-46.5 10l-46 16l-14 138q18 -6 41 -13q18 -4 42 -8t48 -4q51 0 77 34t40 91l22 90z" />
<glyph unicode="z" horiz-adv-x="829" d="M-27 0l602 979h-559l29 129h778l-604 -975h621l-37 -133h-830z" />
<glyph unicode="{" horiz-adv-x="534" d="M0 604v146l18 1q19 1 43.5 5t47 15t32.5 30q6 16 7.5 31.5t1.5 33.5v586q0 39 3 67.5t29 57.5q18 23 54 28t77 5h131l29 -90h-90q-16 0 -30.5 -5.5t-22.5 -15.5q-25 -31 -25 -69v-611v-35.5t-8 -29.5q-10 -20 -33.5 -31.5t-46.5 -17.5q-29 -8 -59 -11v-28q31 -4 57 -13 q23 -6 46.5 -18t35.5 -29q10 -14 9 -29.5t-1 -35.5v-613q0 -43 25 -69q8 -10 22.5 -15.5t30.5 -5.5h90l-29 -94h-131q-41 0 -76.5 5t-54.5 28q-27 31 -29.5 58.5t-2.5 66.5v585q0 20 -1.5 36t-7.5 30q-10 18 -32.5 29.5t-47 15.5t-43.5 5z" />
<glyph unicode="|" horiz-adv-x="481" d="M182 -113v1706h86v-1706h-86z" />
<glyph unicode="}" horiz-adv-x="534" d="M61 -162h91q37 0 55 21q23 29 22 69v613q0 20 -1 35.5t10 29.5q10 16 34.5 28.5t46.5 18.5q27 8 60 13v28q-33 2 -62 11q-25 6 -47 17t-32 32q-8 14 -8.5 29.5t-0.5 35.5v611q0 39 -22 69q-18 20 -55 21h-89l27 90h133q39 0 75 -5.5t56 -27.5q25 -29 29 -57.5t4 -67.5 v-586v-33.5t8 -31.5q10 -20 32 -30.5t46 -14.5q27 -6 62 -6v-146q-35 0 -62 -6q-25 -4 -46 -15.5t-32 -29.5q-8 -14 -8 -29.5v-36.5v-585q0 -39 -3 -68t-30 -57q-18 -23 -55 -28t-76 -5h-133z" />
<glyph unicode="~" horiz-adv-x="966" d="M76 559q47 86 115.5 134t166.5 46q59 -2 97.5 -25.5t69 -51t64.5 -53t85 -29.5t88 9t61.5 31.5t36.5 35t14 18.5l37 -25q-37 -96 -104.5 -151.5t-177.5 -51.5q-45 2 -79 27t-66.5 53.5t-67.5 55t-84 30.5q-70 8 -124 -18.5t-108 -75.5z" />
<glyph unicode="&#xa1;" horiz-adv-x="460" d="M137 1044q0 39 25.5 65t73.5 26q41 0 71.5 -25t30.5 -66q0 -43 -31 -68.5t-76 -25.5q-41 0 -67.5 27t-26.5 67zM147 -379v789l25 278l117 39l30 -317v-789h-172z" />
<glyph unicode="&#xa2;" horiz-adv-x="925" d="M61 760q0 98 16.5 175t43 135t60.5 100t71 71q82 68 190 88v207h154v-195q20 0 43 -4q35 -6 74 -16q25 -8 45 -17.5t35 -19.5q16 -10 28 -22l25 -154q-31 27 -70 49q-35 18 -86 32.5t-119 12.5q-119 -4 -187.5 -54t-102 -120t-41 -144.5t-7.5 -125.5q0 -86 19.5 -162 t62.5 -132t112 -88t167 -30q66 2 117 18.5t86 36.5q40 23 73 52l-24 -177q-16 -10 -37 -20q-16 -10 -40 -19.5t-50 -17.5q-35 -10 -61.5 -15t-61.5 -7v-230h-154v236q-109 14 -190 80q-37 27 -71 67.5t-60.5 99t-43 135.5t-16.5 175z" />
<glyph unicode="&#xa3;" d="M199 113l41 13t98 41t123.5 67.5t118 93t79 118t11.5 142.5q-4 18 -11.5 31.5t-13.5 23.5q-8 10 -14 19h-400v106h316q-2 0 -37 25.5t-77 72.5t-75.5 115t-33.5 154q0 98 32.5 169.5t87 120t122 72t139.5 25.5q82 2 133 -7.5t79.5 -21.5t39 -22.5t12.5 -10.5l39 -170 q-20 23 -56 41q-29 16 -79 28.5t-123 12.5q-68 0 -115 -19.5t-76 -52t-42 -73.5t-15 -86q-4 -76 27.5 -133.5t78.5 -98.5q18 -16 44 -39.5t48 -46.5l56 -55h299v-106h-238q0 -4 12.5 -43t12.5 -82q0 -98 -44 -169t-98 -118q-63 -53 -141 -92q39 4 73 7t65.5 5t64.5 3t74 1 h73.5t64.5 -2t64.5 -4t73.5 -6l-63 -162q-68 4 -122.5 7t-107.5 4t-107.5 -1t-121.5 -4q-47 -4 -100.5 -8t-100.5 -8q-53 -6 -108 -13z" />
<glyph unicode="&#xa4;" horiz-adv-x="1173" d="M31 737l22 103l275 71v-913h-113v790zM432 453q0 211 95.5 338t271.5 129q55 0 95 -8.5t66.5 -17.5t39.5 -16l12 -8l26 -104q-20 18 -53 31q-29 10 -71 19t-101 9q-70 -2 -116 -26.5t-74.5 -60.5t-44 -76.5t-21.5 -76.5t-6 -59v-24q29 16 65 30q31 12 73 21.5t95 11.5 q55 2 112.5 -14t102.5 -52t73 -93.5t26 -137.5q-2 -88 -39 -144t-90.5 -88t-112.5 -42t-106 -8q-98 4 -161 46t-97.5 107.5t-47 147.5t-12.5 166zM551 418q-4 -92 14 -164q8 -31 21.5 -60.5t36 -54t54.5 -41t75 -18.5q90 -6 157.5 40t71.5 144q0 45 -11.5 84t-38 67.5 t-65.5 45t-94 16.5q-59 0 -101 -10t-69 -21q-33 -12 -51 -28z" />
<glyph unicode="&#xa5;" d="M106 1507h195l311 -671l316 671h192l-401 -778h280v-100h-305v-162h305v-105h-305v-362h-172v362h-307v103h307v162h-307v100h289z" />
<glyph unicode="&#xa7;" horiz-adv-x="911" d="M2 647q0 98 40 157.5t88 92.5t89 44l41 11q-2 0 -32.5 13.5t-67.5 44t-68 79t-33 117.5q0 53 15.5 109.5t54.5 102.5t104.5 78t165.5 38q82 4 145.5 -7t108.5 -28q53 -18 92 -43l25 -178q-45 31 -98 53q-45 20 -102.5 36.5t-123.5 18.5q-106 2 -162.5 -40.5t-54.5 -131.5 q2 -59 49.5 -93t116 -62.5t149.5 -58t149.5 -81t114.5 -131t46 -204.5q0 -102 -40 -163t-87 -92.5t-88 -40.5l-41 -9l32 -13q32 -14 70.5 -45t70.5 -79t34 -117q0 -53 -15.5 -108.5t-54.5 -102.5t-104.5 -79t-165.5 -38q-82 -4 -145.5 7t-108.5 28q-53 18 -90 45l-25 176 q43 -29 97 -51q45 -20 103 -37t124 -19q104 -4 161.5 39t55.5 131q-2 59 -49 94t-118 63t-152.5 58.5t-151.5 80.5t-117 130t-47 205zM166 641q-2 -86 30.5 -136t73.5 -76t78 -33t47 -9q51 -10 103.5 -3t94.5 33.5t69.5 70t27.5 102.5q2 80 -30.5 129t-73.5 75.5t-78 36 t-45 11.5q-53 12 -105.5 5t-94.5 -33t-68.5 -70t-28.5 -103z" />
<glyph unicode="&#xa8;" horiz-adv-x="1032" d="M270 1350q0 41 28 67.5t67 26.5q45 0 75.5 -25.5t30.5 -68.5q0 -41 -29.5 -65.5t-70.5 -24.5q-47 0 -74 25.5t-27 64.5zM590 1350q0 41 27.5 67.5t66.5 26.5q45 0 76 -25.5t31 -68.5q0 -41 -30 -65.5t-71 -24.5q-47 0 -73.5 25.5t-26.5 64.5z" />
<glyph unicode="&#xa9;" horiz-adv-x="1726" d="M106 762q0 168 63.5 315.5t174.5 258t258.5 174t315.5 63.5t315 -63.5t258 -174t174.5 -258t63.5 -315.5t-63.5 -315.5t-174.5 -258t-258.5 -174t-314.5 -63.5q-168 0 -315.5 63.5t-258.5 174t-174.5 258t-63.5 315.5zM154 764q0 -158 60 -297t163.5 -242.5t243 -164 t297.5 -60.5t297 60.5t242.5 164t163.5 242.5t60 297t-60 297t-163.5 242.5t-243 164t-296.5 60.5q-158 0 -297.5 -60.5t-243 -164t-163.5 -242.5t-60 -297zM406 756q0 113 37.5 212t107.5 172.5t170 116.5t223 43q90 0 171 -20t153 -74l-51 -73q-66 43 -125.5 59t-143.5 18 q-109 0 -191.5 -35.5t-139 -97t-85 -143.5t-28.5 -174t29.5 -176t87 -146.5t138.5 -99.5t185 -37q86 0 155.5 21.5t123.5 56.5l45 -70q-76 -49 -151 -69.5t-173 -20.5q-125 0 -225.5 42t-170 116t-106 171t-36.5 208z" />
<glyph unicode="&#xaa;" horiz-adv-x="679" d="M66 612v103h514v-103h-514zM68 1022q0 20 7 50t29 63q23 33 54.5 54t68.5 33.5t77 17.5t79 5q20 0 37.5 -1t32.5 -3q16 -2 28 -4v39q0 20 -2 53t-28 62q-16 18 -51 29.5t-93 11.5q-45 0 -75.5 -8.5t-53.5 -18.5q-25 -12 -43 -27l19 97q16 10 41 18q23 8 55.5 14t79.5 6 q133 0 192 -59q35 -35 44 -73t9 -105v-442h-47q-29 0 -36 8q-10 6 -11 26v43q-29 -39 -78 -65.5t-135 -22.5q-66 2 -104.5 24.5t-60 53.5t-28.5 64.5t-7 56.5zM172 1028q0 -66 43 -95.5t102 -29.5q10 0 25.5 2t30.5 6q45 12 75.5 40t30.5 69v143q-12 0 -26 2q-12 2 -27.5 3 t-34.5 1q-86 0 -143.5 -25.5t-71.5 -78.5q-4 -12 -4 -20.5v-16.5z" />
<glyph unicode="&#xab;" horiz-adv-x="849" d="M4 694l227 340l152 -24l-184 -316l184 -309l-154 -25zM414 694l227 340l152 -24l-185 -316l185 -309l-154 -25z" />
<glyph unicode="&#xac;" horiz-adv-x="706" d="M-84 338l430 567h127v-567h135v-94h-135v-244h-111v244h-411zM29 338h333v450z" />
<glyph unicode="&#xad;" horiz-adv-x="837" d="M59 504v166h717v-166h-717z" />
<glyph unicode="&#xae;" horiz-adv-x="794" d="M31 1145q0 80 29.5 149.5t82 121.5t122 83t149.5 31t149.5 -31t121.5 -83t82 -121.5t30 -149.5t-30 -149.5t-82 -122t-121.5 -83t-149.5 -30.5t-149.5 30.5t-122 83t-82 122t-29.5 149.5zM55 1145q0 -74 28 -139.5t77 -114.5t114.5 -78t139.5 -29t138 29t112.5 78 t76 114.5t27.5 139.5t-27.5 139.5t-76 114.5t-113 77.5t-137.5 28.5q-74 0 -139.5 -28.5t-114.5 -77.5t-77 -114.5t-28 -139.5zM229 940v414h232q31 0 59.5 -5.5t51 -18.5t37 -36.5t14.5 -62.5q0 -33 -13.5 -57.5t-35 -40t-46 -22.5t-49.5 -3l129 -168h-47l-123 168h-172 v-168h-37zM266 1137h203q18 0 37.5 3t36 12t28 27.5t11.5 51.5q0 37 -15.5 55.5t-36 26.5t-41 8h-28.5h-195v-184z" />
<glyph unicode="&#xaf;" horiz-adv-x="892" d="M158 1399v78h577v-78h-577z" />
<glyph unicode="&#xb0;" horiz-adv-x="571" d="M80 1325q0 43 16.5 80t44 64.5t64.5 44t80 16.5t79.5 -16.5t64.5 -44t44 -64.5t16 -80t-16 -80t-44 -64.5t-64.5 -44t-79.5 -16.5q-86 0 -145.5 59.5t-59.5 145.5zM129 1323q0 -63 45 -108.5t109 -45.5q63 0 108 45.5t45 108.5q0 66 -44 112t-109 46q-66 0 -110 -46 t-44 -112z" />
<glyph unicode="&#xb1;" horiz-adv-x="1210" d="M117 14v166h970v-166h-970zM119 709v163h403v392h168v-392h393v-163h-393v-408h-168v408h-403z" />
<glyph unicode="&#xb4;" horiz-adv-x="1032" d="M354 1227v98l244 188l74 -106z" />
<glyph unicode="&#xb5;" horiz-adv-x="686" d="M109 748q20 -16 51 -29q27 -10 68.5 -19.5t103.5 -9.5q113 0 179.5 50.5t66.5 146.5q0 53 -16.5 90t-44.5 60.5t-64.5 34.5t-75.5 13q-53 4 -100.5 -2t-81.5 -12q-41 -8 -76 -18l33 460h460v-94h-358l-16 -256q18 2 41 6q20 2 47.5 4.5t62.5 2.5q57 0 112.5 -15.5 t98.5 -50.5t68.5 -90t25.5 -137q0 -78 -30.5 -132.5t-79.5 -88t-107.5 -50t-114.5 -16.5q-55 0 -98 7t-71.5 16.5t-43 17.5t-16.5 8z" />
<glyph unicode="&#xb6;" horiz-adv-x="1026" d="M59 993q-2 127 31 215t83 144.5t112.5 87t119 46t101.5 17.5t61 2h277v-1847h-99v1757h-172v-1753h-98v856q-115 2 -205 53q-39 20 -75.5 55.5t-66.5 85.5t-48.5 119.5t-20.5 161.5z" />
<glyph unicode="&#xb7;" horiz-adv-x="1210" d="M506 756q0 41 26.5 67.5t67.5 26.5q45 0 76 -25.5t31 -68.5q0 -41 -31 -65.5t-72 -24.5q-47 0 -72.5 24.5t-25.5 65.5z" />
<glyph unicode="&#xb8;" horiz-adv-x="901" d="M301 -342l14 94q25 -12 52 -22q23 -10 54.5 -17.5t70.5 -5.5q59 0 100 23.5t37 58.5q-6 55 -86 55q-20 0 -45 -5t-27 -5l-31 70l62 86h47l-6 -64q61 0 110 -14q41 -12 76 -44t35 -91q0 -41 -22.5 -73t-59.5 -53.5t-86 -33.5t-102 -12q-43 0 -79 8t-60.5 17.5t-39 17.5 t-14.5 10z" />
<glyph unicode="&#xba;" horiz-adv-x="671" d="M39 1161q0 70 15.5 133.5t50 112.5t91 77.5t138.5 28.5q86 0 141 -29.5t86 -77.5t43 -111.5t12 -131.5q0 -72 -18 -133t-54 -106t-88.5 -72t-121.5 -27q-82 0 -138.5 24.5t-91 68t-50 104.5t-15.5 139zM84 612v107h487v-107h-487zM141 1159q0 -129 46 -191.5t151 -62.5 q47 0 81 20.5t55.5 55.5t31.5 81t10 99q0 43 -5 91t-22.5 89t-53.5 68t-97 27t-100 -23.5t-60.5 -62.5t-29 -89.5t-7.5 -101.5z" />
<glyph unicode="&#xbb;" horiz-adv-x="849" d="M63 1010l152 24l229 -340l-225 -334l-153 25l184 309zM473 1010l152 24l229 -340l-225 -334l-154 25l184 309z" />
<glyph unicode="&#xbf;" horiz-adv-x="960" d="M63 -4q-4 88 25 151.5t74 110.5t100 83t105.5 66.5t87.5 62.5t47 73q16 66 9 106.5t-7 44.5l131 45l6 -27q6 -28 10 -69t4 -89t-12 -89q-18 -59 -55 -100t-83 -73t-93 -59.5t-86 -60.5t-62.5 -76t-19.5 -106q2 -45 20.5 -87t57 -74t100 -49.5t149.5 -12.5q86 4 145.5 16 t98.5 24q45 15 72 33l-39 -170q-2 0 -20.5 -10t-56.5 -22.5t-98.5 -21.5t-146.5 -7q-80 2 -159.5 20.5t-145 63.5t-108.5 118.5t-50 184.5zM438 1047q0 41 30 65.5t71 24.5q47 0 73.5 -24.5t26.5 -65.5t-27.5 -68t-66.5 -27q-45 0 -76 26t-31 69z" />
<glyph unicode="&#xc0;" horiz-adv-x="1234" d="M31 0l483 1509h209l487 -1509h-188l-98 319h-619l-102 -319h-172zM358 477h516l-256 850h-2zM453 1817l73 106l246 -188v-99z" />
<glyph unicode="&#xc1;" horiz-adv-x="1234" d="M31 0l483 1509h209l487 -1509h-188l-98 319h-619l-102 -319h-172zM358 477h516l-256 850h-2zM465 1636v99l246 188l73 -106z" />
<glyph unicode="&#xc2;" horiz-adv-x="1234" d="M31 0l483 1509h209l487 -1509h-188l-98 319h-619l-102 -319h-172zM358 477h516l-256 850h-2zM436 1624v121l180 194l183 -194v-121l-183 156z" />
<glyph unicode="&#xc3;" horiz-adv-x="1234" d="M31 0l483 1509h209l487 -1509h-188l-98 319h-619l-102 -319h-172zM293 1649q37 68 92 108.5t133 36.5q45 -4 76 -22.5t56.5 -42t53 -43t68.5 -21.5q39 -4 68.5 7t49 25.5t30 28t12.5 15.5l29 -19q-29 -78 -83.5 -125t-142.5 -38q-37 4 -63.5 23.5t-53 43t-54 43 t-66.5 23.5q-55 4 -99.5 -15.5t-85.5 -60.5zM358 477h516l-256 850h-2z" />
<glyph unicode="&#xc4;" horiz-adv-x="1234" d="M31 0l483 1509h209l487 -1509h-188l-98 319h-619l-102 -319h-172zM358 477h516l-256 850h-2zM358 1694q0 41 27 67.5t68 26.5q45 0 75.5 -25.5t30.5 -68.5q0 -41 -30.5 -65.5t-71.5 -24.5q-47 0 -73 25.5t-26 64.5zM678 1694q0 41 26.5 67.5t67.5 26.5q45 0 76 -25.5 t31 -68.5q0 -41 -31 -65.5t-72 -24.5q-47 0 -72.5 25.5t-25.5 64.5z" />
<glyph unicode="&#xc5;" horiz-adv-x="1234" d="M31 0l483 1509h209l487 -1509h-188l-98 319h-619l-102 -319h-172zM358 477h516l-256 850h-2zM453 1743q0 66 48 113t113 47q33 0 63 -13.5t51.5 -35t33.5 -50t12 -61.5q0 -68 -47 -116t-113 -48q-68 0 -114.5 48t-46.5 116zM508 1743q0 -45 30.5 -76t73.5 -31t74 32 t31 75t-31 73.5t-74 30.5t-73.5 -30.5t-30.5 -73.5z" />
<glyph unicode="&#xc6;" horiz-adv-x="1908" d="M23 0l888 1505h895l39 -159h-657v-484h577v-168h-577v-532h682l-51 -162h-801v319h-627l-186 -319h-182zM485 477h531v871h-29z" />
<glyph unicode="&#xc7;" horiz-adv-x="1185" d="M125 750q0 35 7 105.5t30.5 155.5t67.5 175t120 166q76 74 185.5 122t267.5 48q59 0 104 -9.5t76 -19.5q37 -12 61 -29l39 -166q-37 18 -84 33q-41 12 -95 23.5t-120 11.5q-121 0 -198.5 -42t-136.5 -110q-72 -84 -106 -201.5t-34 -258.5q0 -172 43 -301t117 -197 q66 -59 143.5 -82.5t192.5 -23.5q53 0 110.5 14t104.5 31.5t77.5 32t32.5 16.5l-59 -197q-31 -16 -63.5 -29.5t-87.5 -23.5q-53 -10 -98.5 -13.5t-86.5 -3.5l-4 -57q63 2 115 -14q43 -14 77.5 -46t37.5 -96q0 -41 -25 -73.5t-65 -55t-91 -35t-102 -12.5t-89 8.5t-62.5 17.5 t-36 17.5t-11.5 10.5l17 98q23 -14 51 -25q25 -10 57.5 -16t73.5 -4q61 2 102 24.5t37 59.5q-4 27 -23.5 42t-62.5 13q-10 0 -23.5 -2t-23.5 -4q-12 -2 -27 -4l-32 72l63 84q-27 0 -55 4q-25 4 -56.5 11t-66.5 19q-57 23 -101 53.5t-79 61.5q-70 63 -110 147t-61.5 172.5 t-27.5 168t-6 133.5z" />
<glyph unicode="&#xc8;" horiz-adv-x="1048" d="M150 0v1505h790l39 -159h-657v-484h577v-168h-577v-530h682l-52 -164h-802zM399 1817l74 106l244 -188v-99z" />
<glyph unicode="&#xc9;" horiz-adv-x="1048" d="M150 0v1505h790l39 -159h-657v-484h577v-168h-577v-530h682l-52 -164h-802zM438 1636v99l244 188l74 -106z" />
<glyph unicode="&#xca;" horiz-adv-x="1048" d="M150 0v1505h790l39 -159h-657v-484h577v-168h-577v-530h682l-52 -164h-802zM379 1624v121l180 194l182 -194v-121l-182 156z" />
<glyph unicode="&#xcb;" horiz-adv-x="1048" d="M150 0v1505h790l39 -159h-657v-484h577v-168h-577v-530h682l-52 -164h-802zM295 1694q0 41 27.5 67.5t66.5 26.5q45 0 76 -25.5t31 -68.5q0 -41 -30 -65.5t-71 -24.5q-47 0 -73.5 25.5t-26.5 64.5zM614 1694q0 41 28 67.5t67 26.5q45 0 75.5 -25.5t30.5 -68.5 q0 -41 -29.5 -65.5t-70.5 -24.5q-47 0 -74 25.5t-27 64.5z" />
<glyph unicode="&#xcc;" horiz-adv-x="460" d="M66 1817l73 106l244 -188v-99zM147 0v1507h172v-1507h-172z" />
<glyph unicode="&#xcd;" horiz-adv-x="460" d="M84 1636v99l244 188l73 -106zM147 0v1507h172v-1507h-172z" />
<glyph unicode="&#xce;" horiz-adv-x="460" d="M43 1624v121l180 194l183 -194v-121l-183 156zM147 0v1507h172v-1507h-172z" />
<glyph unicode="&#xcf;" horiz-adv-x="460" d="M-27 1694q0 41 27 67.5t68 26.5q45 0 75.5 -25.5t30.5 -68.5q0 -41 -30.5 -65.5t-71.5 -24.5q-47 0 -73 25.5t-26 64.5zM147 0v1507h172v-1507h-172zM293 1694q0 41 26.5 67.5t67.5 26.5q45 0 76 -25.5t31 -68.5q0 -41 -31 -65.5t-72 -24.5q-47 0 -72.5 25.5t-25.5 64.5z " />
<glyph unicode="&#xd1;" horiz-adv-x="1341" d="M147 0v1507h172l711 -1194v1194h172v-1507h-176l-707 1198v-1198h-172zM338 1649q35 68 91 108.5t134 36.5q45 -4 75 -22.5t55.5 -42t53 -43t68.5 -21.5q41 -4 69.5 7t48 25.5t30 28t12.5 15.5l31 -19q-29 -78 -84.5 -125t-141.5 -38q-37 4 -64.5 23.5t-53 43t-54 43 t-67.5 23.5q-53 4 -98.5 -15.5t-86.5 -60.5z" />
<glyph unicode="&#xd2;" horiz-adv-x="1456" d="M127 760q-2 160 29.5 300t104.5 245.5t191.5 166t290.5 60.5q178 0 295 -62.5t184.5 -169t95.5 -246.5t28 -294q0 -164 -34 -305.5t-105.5 -247t-186.5 -165.5t-277 -60q-182 0 -300.5 61t-188.5 166.5t-97.5 248t-29.5 302.5zM313 760q0 -150 21.5 -265.5t72 -194.5 t133.5 -120t203 -39q131 2 214 52.5t128 134.5t61.5 193.5t16.5 230.5q0 100 -11 209.5t-53 199.5t-125 149.5t-224 63.5q-145 2 -231.5 -47t-132.5 -134t-59.5 -197.5t-13.5 -235.5zM514 1817l74 106l243 -188v-99z" />
<glyph unicode="&#xd3;" horiz-adv-x="1456" d="M127 760q-2 160 29.5 300t104.5 245.5t191.5 166t290.5 60.5q178 0 295 -62.5t184.5 -169t95.5 -246.5t28 -294q0 -164 -34 -305.5t-105.5 -247t-186.5 -165.5t-277 -60q-182 0 -300.5 61t-188.5 166.5t-97.5 248t-29.5 302.5zM313 760q0 -150 21.5 -265.5t72 -194.5 t133.5 -120t203 -39q131 2 214 52.5t128 134.5t61.5 193.5t16.5 230.5q0 100 -11 209.5t-53 199.5t-125 149.5t-224 63.5q-145 2 -231.5 -47t-132.5 -134t-59.5 -197.5t-13.5 -235.5zM592 1636v99l244 188l73 -106z" />
<glyph unicode="&#xd4;" horiz-adv-x="1456" d="M127 760q-2 160 29.5 300t104.5 245.5t191.5 166t290.5 60.5q178 0 295 -62.5t184.5 -169t95.5 -246.5t28 -294q0 -164 -34 -305.5t-105.5 -247t-186.5 -165.5t-277 -60q-182 0 -300.5 61t-188.5 166.5t-97.5 248t-29.5 302.5zM313 760q0 -150 21.5 -265.5t72 -194.5 t133.5 -120t203 -39q131 2 214 52.5t128 134.5t61.5 193.5t16.5 230.5q0 100 -11 209.5t-53 199.5t-125 149.5t-224 63.5q-145 2 -231.5 -47t-132.5 -134t-59.5 -197.5t-13.5 -235.5zM561 1624v121l182 194l181 -194v-121l-181 156z" />
<glyph unicode="&#xd5;" horiz-adv-x="1456" d="M127 760q-2 160 29.5 300t104.5 245.5t191.5 166t290.5 60.5q178 0 295 -62.5t184.5 -169t95.5 -246.5t28 -294q0 -164 -34 -305.5t-105.5 -247t-186.5 -165.5t-277 -60q-182 0 -300.5 61t-188.5 166.5t-97.5 248t-29.5 302.5zM313 760q0 -150 21.5 -265.5t72 -194.5 t133.5 -120t203 -39q131 2 214 52.5t128 134.5t61.5 193.5t16.5 230.5q0 100 -11 209.5t-53 199.5t-125 149.5t-224 63.5q-145 2 -231.5 -47t-132.5 -134t-59.5 -197.5t-13.5 -235.5zM414 1649q37 68 92 108.5t133 36.5q45 -4 75.5 -20.5t56.5 -37t52.5 -38t67.5 -19.5 q41 -4 70.5 7.5t49 25.5t29 27.5t11.5 15.5l30 -20q-29 -76 -83 -124t-142 -40q-37 2 -63.5 20.5t-53 39t-55.5 39t-68 22.5q-53 4 -97 -16.5t-87 -59.5z" />
<glyph unicode="&#xd6;" horiz-adv-x="1456" d="M127 760q-2 160 29.5 300t104.5 245.5t191.5 166t290.5 60.5q178 0 295 -62.5t184.5 -169t95.5 -246.5t28 -294q0 -164 -34 -305.5t-105.5 -247t-186.5 -165.5t-277 -60q-182 0 -300.5 61t-188.5 166.5t-97.5 248t-29.5 302.5zM313 760q0 -150 21.5 -265.5t72 -194.5 t133.5 -120t203 -39q131 2 214 52.5t128 134.5t61.5 193.5t16.5 230.5q0 100 -11 209.5t-53 199.5t-125 149.5t-224 63.5q-145 2 -231.5 -47t-132.5 -134t-59.5 -197.5t-13.5 -235.5zM485 1694q0 41 28 67.5t67 26.5q47 0 76.5 -25.5t29.5 -68.5q0 -41 -29.5 -65.5 t-70.5 -24.5q-47 0 -74 25.5t-27 64.5zM805 1694q0 41 27.5 67.5t66.5 26.5q47 0 77 -25.5t30 -68.5q0 -41 -30 -65.5t-71 -24.5q-47 0 -73.5 25.5t-26.5 64.5z" />
<glyph unicode="&#xd8;" horiz-adv-x="1456" d="M39 -18l199 256l-18 28q-17 27 -37.5 88.5t-38 160.5t-17.5 245q-2 160 29.5 300t104.5 245.5t191.5 166t290.5 60.5q111 0 188 -21.5t126 -48.5q57 -31 92 -69l106 139h97l-150 -197l22 -33q23 -32 49.5 -100.5t49.5 -178.5t23 -263q0 -164 -35 -305.5t-108 -247 t-186.5 -165.5t-273.5 -60q-133 0 -220 30.5t-140 65.5q-63 41 -98 94l-148 -190h-98zM313 760q0 -111 7.5 -181.5t16.5 -111.5t17 -57l8 -15l678 858l-16 19q-16 18 -51 40.5t-90.5 41t-132.5 20.5q-145 2 -231.5 -47t-132.5 -134t-59.5 -197.5t-13.5 -235.5zM399 317 q25 -51 70 -90q39 -35 104.5 -61.5t169.5 -24.5q131 2 214 52.5t128 134.5t61.5 193.5t16.5 230.5q0 123 -12 205.5t-29 136.5q-18 59 -39 96z" />
<glyph unicode="&#xd9;" horiz-adv-x="1316" d="M139 563v944h176v-944q0 -80 15.5 -157.5t54.5 -138t106.5 -97.5t170.5 -37q104 0 172.5 37t107.5 97.5t54.5 138t15.5 157.5v944h176v-944q0 -84 -8.5 -155.5t-32.5 -131.5q-66 -158 -195 -230.5t-295 -72.5q-164 0 -291.5 75t-183.5 228q-23 61 -33 134t-10 153z M477 1817l74 106l246 -188v-99z" />
<glyph unicode="&#xda;" horiz-adv-x="1316" d="M139 563v944h176v-944q0 -80 15.5 -157.5t54.5 -138t106.5 -97.5t170.5 -37q104 0 172.5 37t107.5 97.5t54.5 138t15.5 157.5v944h176v-944q0 -84 -8.5 -155.5t-32.5 -131.5q-66 -158 -195 -230.5t-295 -72.5q-164 0 -291.5 75t-183.5 228q-23 61 -33 134t-10 153z M547 1636v99l246 188l73 -106z" />
<glyph unicode="&#xdb;" horiz-adv-x="1316" d="M139 563v944h176v-944q0 -80 15.5 -157.5t54.5 -138t106.5 -97.5t170.5 -37q104 0 172.5 37t107.5 97.5t54.5 138t15.5 157.5v944h176v-944q0 -84 -8.5 -155.5t-32.5 -131.5q-66 -158 -195 -230.5t-295 -72.5q-164 0 -291.5 75t-183.5 228q-23 61 -33 134t-10 153z M479 1624v121l183 194l180 -194v-121l-180 156z" />
<glyph unicode="&#xdc;" horiz-adv-x="1316" d="M139 563v944h176v-944q0 -80 15.5 -157.5t54.5 -138t106.5 -97.5t170.5 -37q104 0 172.5 37t107.5 97.5t54.5 138t15.5 157.5v944h176v-944q0 -84 -8.5 -155.5t-32.5 -131.5q-66 -158 -195 -230.5t-295 -72.5q-164 0 -291.5 75t-183.5 228q-23 61 -33 134t-10 153z M395 1694q0 41 28 67.5t66 26.5q47 0 77 -25.5t30 -68.5q0 -41 -29.5 -65.5t-70.5 -24.5q-47 0 -74 25.5t-27 64.5zM715 1694q0 41 27.5 67.5t66.5 26.5q47 0 76.5 -25.5t29.5 -68.5q0 -41 -29.5 -65.5t-70.5 -24.5q-47 0 -73.5 25.5t-26.5 64.5z" />
<glyph unicode="&#xdf;" horiz-adv-x="1173" d="M8 981l35 127h131v49q0 72 15.5 138.5t54.5 116.5t102.5 81t161.5 33q70 2 135.5 -11.5t117.5 -46t85 -85t37 -128.5q4 -96 -37 -148t-105 -95q-16 -12 -40.5 -26.5t-48 -36t-39 -50.5t-15.5 -70q2 -57 41 -93t96.5 -63.5t125 -54t124.5 -64.5t96 -94.5t41 -142.5 q0 -53 -15 -109t-54 -102.5t-104.5 -78t-166.5 -37.5q-82 -4 -145.5 7t-108.5 28q-53 18 -92 43l-24 178q43 -31 96 -53q45 -20 103.5 -37t123.5 -19q106 -2 162.5 41t54.5 131q-2 57 -41 94t-96 65t-123.5 55.5t-124 66.5t-95.5 97t-38 149q0 98 42 154.5t104 92.5 q33 18 59.5 35t44.5 36.5t28.5 44t8.5 61.5q-4 63 -58.5 92.5t-144.5 33.5q-59 2 -97 -16t-59.5 -49t-29.5 -70t-8 -77v-1174h-150v981h-166z" />
<glyph unicode="&#xe0;" horiz-adv-x="966" d="M63 313q0 35 11.5 85.5t46.5 103.5q37 55 88 91t109.5 56.5t121 28.5t125.5 8q35 0 62.5 -2t50.5 -4q25 -4 45 -6v65v40t-3 49.5t-13.5 51t-30.5 48.5q-29 31 -84 50t-146 19q-70 -2 -121 -15t-85 -30q-41 -20 -70 -43l29 160q29 18 69 33q35 12 88.5 22.5t124.5 10.5 q109 0 185.5 -27t121.5 -74q27 -29 43.5 -57.5t25.5 -63t13 -76.5t4 -98v-739h-77q-29 0 -38 2t-20 12q-14 14 -14 45v74q-47 -66 -125 -108.5t-217 -38.5q-104 2 -166.5 39.5t-96.5 89t-45.5 106.5t-11.5 92zM231 326q0 -109 68 -159t164 -50q12 0 37.5 3t48.5 9 q70 23 121 67.5t51 114.5v240q-18 2 -41 6q-20 2 -46 4t-54 2q-139 0 -230.5 -43t-111.5 -133q-4 -20 -5.5 -34.5t-1.5 -26.5zM350 1407l74 106l244 -188v-98z" />
<glyph unicode="&#xe1;" horiz-adv-x="966" d="M63 313q0 35 11.5 85.5t46.5 103.5q37 55 88 91t109.5 56.5t121 28.5t125.5 8q35 0 62.5 -2t50.5 -4q25 -4 45 -6v65v40t-3 49.5t-13.5 51t-30.5 48.5q-29 31 -84 50t-146 19q-70 -2 -121 -15t-85 -30q-41 -20 -70 -43l29 160q29 18 69 33q35 12 88.5 22.5t124.5 10.5 q109 0 185.5 -27t121.5 -74q27 -29 43.5 -57.5t25.5 -63t13 -76.5t4 -98v-739h-77q-29 0 -38 2t-20 12q-14 14 -14 45v74q-47 -66 -125 -108.5t-217 -38.5q-104 2 -166.5 39.5t-96.5 89t-45.5 106.5t-11.5 92zM231 326q0 -109 68 -159t164 -50q12 0 37.5 3t48.5 9 q70 23 121 67.5t51 114.5v240q-18 2 -41 6q-20 2 -46 4t-54 2q-139 0 -230.5 -43t-111.5 -133q-4 -20 -5.5 -34.5t-1.5 -26.5zM354 1227v98l244 188l74 -106z" />
<glyph unicode="&#xe2;" horiz-adv-x="966" d="M63 313q0 35 11.5 85.5t46.5 103.5q37 55 88 91t109.5 56.5t121 28.5t125.5 8q35 0 62.5 -2t50.5 -4q25 -4 45 -6v65v40t-3 49.5t-13.5 51t-30.5 48.5q-29 31 -84 50t-146 19q-70 -2 -121 -15t-85 -30q-41 -20 -70 -43l29 160q29 18 69 33q35 12 88.5 22.5t124.5 10.5 q109 0 185.5 -27t121.5 -74q27 -29 43.5 -57.5t25.5 -63t13 -76.5t4 -98v-739h-77q-29 0 -38 2t-20 12q-14 14 -14 45v74q-47 -66 -125 -108.5t-217 -38.5q-104 2 -166.5 39.5t-96.5 89t-45.5 106.5t-11.5 92zM231 326q0 -109 68 -159t164 -50q12 0 37.5 3t48.5 9 q70 23 121 67.5t51 114.5v240q-18 2 -41 6q-20 2 -46 4t-54 2q-139 0 -230.5 -43t-111.5 -133q-4 -20 -5.5 -34.5t-1.5 -26.5zM348 1235v119l182 196l181 -196v-119l-181 156z" />
<glyph unicode="&#xe3;" horiz-adv-x="966" d="M63 313q0 35 11.5 85.5t46.5 103.5q37 55 88 91t109.5 56.5t121 28.5t125.5 8q35 0 62.5 -2t50.5 -4q25 -4 45 -6v65v40t-3 49.5t-13.5 51t-30.5 48.5q-29 31 -84 50t-146 19q-70 -2 -121 -15t-85 -30q-41 -20 -70 -43l29 160q29 18 69 33q35 12 88.5 22.5t124.5 10.5 q109 0 185.5 -27t121.5 -74q27 -29 43.5 -57.5t25.5 -63t13 -76.5t4 -98v-739h-77q-29 0 -38 2t-20 12q-14 14 -14 45v74q-47 -66 -125 -108.5t-217 -38.5q-104 2 -166.5 39.5t-96.5 89t-45.5 106.5t-11.5 92zM195 1389q37 70 92 110.5t133 34.5q45 -4 75.5 -22.5t56.5 -41 t53.5 -42t68.5 -21.5q39 -4 68.5 7t49 25.5t29.5 27t13 14.5l28 -19q-29 -76 -83 -124t-142 -40q-37 2 -63.5 22.5t-53 44.5t-54.5 43t-67 24q-55 4 -99 -15.5t-85 -60.5zM231 326q0 -109 68 -159t164 -50q12 0 37.5 3t48.5 9q70 23 121 67.5t51 114.5v240q-18 2 -41 6 q-20 2 -46 4t-54 2q-139 0 -230.5 -43t-111.5 -133q-4 -20 -5.5 -34.5t-1.5 -26.5z" />
<glyph unicode="&#xe4;" horiz-adv-x="966" d="M63 313q0 35 11.5 85.5t46.5 103.5q37 55 88 91t109.5 56.5t121 28.5t125.5 8q35 0 62.5 -2t50.5 -4q25 -4 45 -6v65v40t-3 49.5t-13.5 51t-30.5 48.5q-29 31 -84 50t-146 19q-70 -2 -121 -15t-85 -30q-41 -20 -70 -43l29 160q29 18 69 33q35 12 88.5 22.5t124.5 10.5 q109 0 185.5 -27t121.5 -74q27 -29 43.5 -57.5t25.5 -63t13 -76.5t4 -98v-739h-77q-29 0 -38 2t-20 12q-14 14 -14 45v74q-47 -66 -125 -108.5t-217 -38.5q-104 2 -166.5 39.5t-96.5 89t-45.5 106.5t-11.5 92zM223 1397q0 41 28 67.5t66 26.5q47 0 77 -25.5t30 -68.5 q0 -41 -29.5 -65.5t-70.5 -24.5q-47 0 -74 25.5t-27 64.5zM231 326q0 -109 68 -159t164 -50q12 0 37.5 3t48.5 9q70 23 121 67.5t51 114.5v240q-18 2 -41 6q-20 2 -46 4t-54 2q-139 0 -230.5 -43t-111.5 -133q-4 -20 -5.5 -34.5t-1.5 -26.5zM543 1397q0 41 27.5 67.5 t66.5 26.5q47 0 76.5 -25.5t29.5 -68.5q0 -41 -29.5 -65.5t-70.5 -24.5q-47 0 -73.5 25.5t-26.5 64.5z" />
<glyph unicode="&#xe5;" horiz-adv-x="966" d="M63 313q0 35 11.5 85.5t46.5 103.5q37 55 88 91t109.5 56.5t121 28.5t125.5 8q35 0 62.5 -2t50.5 -4q25 -4 45 -6v65v40t-3 49.5t-13.5 51t-30.5 48.5q-29 31 -84 50t-146 19q-70 -2 -121 -15t-85 -30q-41 -20 -70 -43l29 160q29 18 69 33q35 12 88.5 22.5t124.5 10.5 q109 0 185.5 -27t121.5 -74q27 -29 43.5 -57.5t25.5 -63t13 -76.5t4 -98v-739h-77q-29 0 -38 2t-20 12q-14 14 -14 45v74q-47 -66 -125 -108.5t-217 -38.5q-104 2 -166.5 39.5t-96.5 89t-45.5 106.5t-11.5 92zM231 326q0 -109 68 -159t164 -50q12 0 37.5 3t48.5 9 q70 23 121 67.5t51 114.5v240q-18 2 -41 6q-20 2 -46 4t-54 2q-139 0 -230.5 -43t-111.5 -133q-4 -20 -5.5 -34.5t-1.5 -26.5zM313 1442q0 66 48.5 113t113.5 47q66 0 113 -47t47 -113t-47 -114t-113 -48q-68 0 -115 47t-47 115zM369 1442q0 -45 30.5 -76t73.5 -31t74 32 t31 75t-31 73.5t-74 30.5t-73.5 -30.5t-30.5 -73.5z" />
<glyph unicode="&#xe6;" horiz-adv-x="1652" d="M63 313q0 35 11.5 85.5t46.5 103.5q37 55 88 91t109.5 56.5t121 28.5t125.5 8q35 0 62.5 -2t50.5 -4q25 -4 45 -6v65v40t-3 49.5t-13.5 51t-30.5 48.5q-29 31 -84 50t-146 19q-70 -2 -121 -15t-85 -30q-41 -20 -70 -43l29 160q29 18 69 33q35 12 88.5 22.5t124.5 10.5 q109 0 184.5 -27t122.5 -74q8 -8 14.5 -16t12.5 -17l12 -16q8 8 31 32.5t63 51.5t100 47.5t144 20.5q102 0 174 -32t120 -84t77 -115.5t42 -127t17 -119t4 -90.5q0 -10 -1 -21t-1 -20q-2 -10 -2 -18h-721v-31q0 -16 2.5 -47t13.5 -67.5t33.5 -76.5t62.5 -73t99.5 -55.5 t145.5 -24.5q90 -4 152.5 11.5t103.5 33.5q47 23 80 51l-23 -161l-22 -12q-21 -13 -61 -28.5t-99 -27.5t-137 -12q-125 0 -207 30.5t-131 67.5q-57 43 -90 100q-18 -61 -70 -106q-43 -41 -124 -70.5t-220 -25.5q-104 2 -166.5 39.5t-96.5 89t-45.5 106.5t-11.5 92zM231 326 q0 -109 68 -159t164 -50q12 0 37.5 3t48.5 9q70 23 121 67.5t51 114.5v240q-18 2 -41 6q-20 2 -46 4t-54 2q-139 0 -230.5 -43t-111.5 -133q-4 -20 -5.5 -34.5t-1.5 -26.5zM877 637h555q-2 98 -31 180q-12 33 -31.5 67t-47.5 60.5t-66.5 43t-90.5 18.5q-55 2 -98 -13.5 t-73.5 -42t-51 -59.5t-33.5 -68q-31 -82 -32 -186z" />
<glyph unicode="&#xe7;" horiz-adv-x="901" d="M61 553q0 86 22.5 187.5t79 188.5t151 146.5t237.5 59.5q74 0 125 -12.5t84 -28.5q37 -18 61 -39l25 -154q-29 25 -68 47q-35 16 -83 31.5t-111 15.5q-74 0 -137.5 -22.5t-111.5 -73.5t-75 -137t-27 -211q0 -86 19.5 -162t62.5 -132t112 -89t167 -31q66 2 117 18.5 t86 37.5q40 22 73 53l-24 -178q-31 -16 -68 -32t-71 -26q-43 -12 -80 -16t-78 -4l-6 -64q61 0 110 -14q41 -12 76 -44t35 -91q0 -41 -22.5 -73t-59.5 -53.5t-86 -33.5t-102 -12q-45 0 -81 8t-61.5 17.5t-39.5 18.5l-13 9l16 94q25 -12 52 -22q23 -10 54.5 -17.5t70.5 -5.5 q59 0 100 23.5t37 58.5q-6 55 -86 55q-20 0 -45 -5t-27 -5l-31 70l62 86q-39 2 -97.5 14t-109.5 43q-106 61 -170 193.5t-64 312.5z" />
<glyph unicode="&#xe8;" horiz-adv-x="1009" d="M61 553q0 45 6.5 106.5t24 126t48 127t81.5 112.5t125 81t176 31t174 -32t120 -83t77 -115.5t42 -128t17 -119t4 -90.5q0 -10 -1 -21t-1 -20v-18h-721q-2 -2 -2 -6v-25q0 -25 8.5 -80t43 -112.5t106.5 -102.5t201 -49q88 -4 151.5 11.5t104.5 33.5q49 23 80 51l-23 -161 l-21 -12q-22 -13 -63 -28.5t-100.5 -27.5t-134.5 -12q-182 0 -286.5 63.5t-157 153.5t-66 185t-13.5 161zM236 637h555q-2 98 -31 180q-12 33 -31.5 67t-47.5 60.5t-67 43t-90 18.5q-55 2 -98 -13.5t-73.5 -42t-51 -59.5t-33.5 -68q-31 -82 -32 -186zM350 1407l74 106 l244 -188v-98z" />
<glyph unicode="&#xe9;" horiz-adv-x="1009" d="M61 553q0 45 6.5 106.5t24 126t48 127t81.5 112.5t125 81t176 31t174 -32t120 -83t77 -115.5t42 -128t17 -119t4 -90.5q0 -10 -1 -21t-1 -20v-18h-721q-2 -2 -2 -6v-25q0 -25 8.5 -80t43 -112.5t106.5 -102.5t201 -49q88 -4 151.5 11.5t104.5 33.5q49 23 80 51l-23 -161 l-21 -12q-22 -13 -63 -28.5t-100.5 -27.5t-134.5 -12q-182 0 -286.5 63.5t-157 153.5t-66 185t-13.5 161zM236 637h555q-2 98 -31 180q-12 33 -31.5 67t-47.5 60.5t-67 43t-90 18.5q-55 2 -98 -13.5t-73.5 -42t-51 -59.5t-33.5 -68q-31 -82 -32 -186zM354 1227v98l244 188 l74 -106z" />
<glyph unicode="&#xea;" horiz-adv-x="1009" d="M61 553q0 45 6.5 106.5t24 126t48 127t81.5 112.5t125 81t176 31t174 -32t120 -83t77 -115.5t42 -128t17 -119t4 -90.5q0 -10 -1 -21t-1 -20v-18h-721q-2 -2 -2 -6v-25q0 -25 8.5 -80t43 -112.5t106.5 -102.5t201 -49q88 -4 151.5 11.5t104.5 33.5q49 23 80 51l-23 -161 l-21 -12q-22 -13 -63 -28.5t-100.5 -27.5t-134.5 -12q-182 0 -286.5 63.5t-157 153.5t-66 185t-13.5 161zM236 637h555q-2 98 -31 180q-12 33 -31.5 67t-47.5 60.5t-67 43t-90 18.5q-55 2 -98 -13.5t-73.5 -42t-51 -59.5t-33.5 -68q-31 -82 -32 -186zM348 1235v119l182 196 l181 -196v-119l-181 156z" />
<glyph unicode="&#xeb;" horiz-adv-x="1009" d="M61 553q0 45 6.5 106.5t24 126t48 127t81.5 112.5t125 81t176 31t174 -32t120 -83t77 -115.5t42 -128t17 -119t4 -90.5q0 -10 -1 -21t-1 -20v-18h-721q-2 -2 -2 -6v-25q0 -25 8.5 -80t43 -112.5t106.5 -102.5t201 -49q88 -4 151.5 11.5t104.5 33.5q49 23 80 51l-23 -161 l-21 -12q-22 -13 -63 -28.5t-100.5 -27.5t-134.5 -12q-182 0 -286.5 63.5t-157 153.5t-66 185t-13.5 161zM236 637h555q-2 98 -31 180q-12 33 -31.5 67t-47.5 60.5t-67 43t-90 18.5q-55 2 -98 -13.5t-73.5 -42t-51 -59.5t-33.5 -68q-31 -82 -32 -186zM262 1397 q0 41 27.5 67.5t66.5 26.5q45 0 76 -25.5t31 -68.5q0 -41 -30 -65.5t-71 -24.5q-47 0 -73.5 25.5t-26.5 64.5zM582 1397q0 41 27.5 67.5t66.5 26.5q45 0 75.5 -25.5t30.5 -68.5q0 -41 -29.5 -65.5t-70.5 -24.5q-47 0 -73.5 25.5t-26.5 64.5z" />
<glyph unicode="&#xec;" horiz-adv-x="370" d="M27 1407l73 106l246 -188v-98zM111 0v1108h153v-1108h-153z" />
<glyph unicode="&#xed;" horiz-adv-x="370" d="M37 1227v98l244 188l73 -106zM111 0v1108h153v-1108h-153z" />
<glyph unicode="&#xee;" horiz-adv-x="370" d="M2 1235v119l180 196l183 -196v-119l-183 156zM111 0v1108h153v-1108h-153z" />
<glyph unicode="&#xef;" horiz-adv-x="370" d="M-76 1397q0 41 26.5 67.5t67.5 26.5q45 0 76 -25.5t31 -68.5q0 -41 -31 -65.5t-71 -24.5q-47 0 -73 25.5t-26 64.5zM111 0v1108h153v-1108h-153zM244 1397q0 41 26.5 67.5t67.5 26.5q45 0 75.5 -25.5t30.5 -68.5q0 -41 -30.5 -65.5t-71.5 -24.5q-47 0 -72.5 25.5 t-25.5 64.5z" />
<glyph unicode="&#xf1;" horiz-adv-x="1024" d="M111 0v1108h153v-135q4 14 23.5 40.5t56.5 54.5t92.5 48.5t128.5 20.5q211 0 299 -131q41 -59 52.5 -127t11.5 -164v-715h-152v711q0 55 -6 108t-29.5 93t-71.5 64.5t-134 24.5q-115 0 -179 -57q-31 -29 -49 -61.5t-27.5 -66.5t-12.5 -66.5t-3 -59.5v-690h-153zM195 1389 q37 70 92 110.5t133 34.5q45 -4 75.5 -22.5t56.5 -41t53.5 -42t68.5 -21.5q39 -4 68.5 7t49 25.5t29.5 27t13 14.5l28 -19q-29 -76 -83 -124t-142 -40q-37 2 -63.5 22.5t-53 44.5t-54.5 43t-67 24q-55 4 -99 -15.5t-85 -60.5z" />
<glyph unicode="&#xf2;" horiz-adv-x="1032" d="M61 547q0 115 24 220t79 187t144 130.5t220 48.5q135 0 223.5 -49.5t138.5 -130.5t69.5 -186t19.5 -218q0 -119 -29.5 -221.5t-86 -179t-140.5 -119.5t-195 -43q-129 2 -218 41t-144 111.5t-80 176t-25 232.5zM223 541q0 -211 74 -316.5t233 -105.5q76 0 130.5 33.5 t88 92t50 135.5t16.5 163q0 70 -7 150.5t-37 148t-86 113.5t-155 46q-96 0 -156.5 -39.5t-94 -104t-45 -147.5t-11.5 -169zM350 1407l74 106l244 -188v-98z" />
<glyph unicode="&#xf3;" horiz-adv-x="1032" d="M61 547q0 115 24 220t79 187t144 130.5t220 48.5q135 0 223.5 -49.5t138.5 -130.5t69.5 -186t19.5 -218q0 -119 -29.5 -221.5t-86 -179t-140.5 -119.5t-195 -43q-129 2 -218 41t-144 111.5t-80 176t-25 232.5zM223 541q0 -211 74 -316.5t233 -105.5q76 0 130.5 33.5 t88 92t50 135.5t16.5 163q0 70 -7 150.5t-37 148t-86 113.5t-155 46q-96 0 -156.5 -39.5t-94 -104t-45 -147.5t-11.5 -169zM354 1227v98l244 188l74 -106z" />
<glyph unicode="&#xf4;" horiz-adv-x="1032" d="M61 547q0 115 24 220t79 187t144 130.5t220 48.5q135 0 223.5 -49.5t138.5 -130.5t69.5 -186t19.5 -218q0 -119 -29.5 -221.5t-86 -179t-140.5 -119.5t-195 -43q-129 2 -218 41t-144 111.5t-80 176t-25 232.5zM223 541q0 -211 74 -316.5t233 -105.5q76 0 130.5 33.5 t88 92t50 135.5t16.5 163q0 70 -7 150.5t-37 148t-86 113.5t-155 46q-96 0 -156.5 -39.5t-94 -104t-45 -147.5t-11.5 -169zM348 1235v119l182 196l181 -196v-119l-181 156z" />
<glyph unicode="&#xf5;" horiz-adv-x="1032" d="M61 547q0 115 24 220t79 187t144 130.5t220 48.5q135 0 223.5 -49.5t138.5 -130.5t69.5 -186t19.5 -218q0 -119 -29.5 -221.5t-86 -179t-140.5 -119.5t-195 -43q-129 2 -218 41t-144 111.5t-80 176t-25 232.5zM195 1389q37 70 92 110.5t133 34.5q45 -4 75.5 -22.5 t56.5 -41t53.5 -42t68.5 -21.5q39 -4 68.5 7t49 25.5t29.5 27t13 14.5l28 -19q-29 -76 -83 -124t-142 -40q-37 2 -63.5 22.5t-53 44.5t-54.5 43t-67 24q-55 4 -99 -15.5t-85 -60.5zM223 541q0 -211 74 -316.5t233 -105.5q76 0 130.5 33.5t88 92t50 135.5t16.5 163 q0 70 -7 150.5t-37 148t-86 113.5t-155 46q-96 0 -156.5 -39.5t-94 -104t-45 -147.5t-11.5 -169z" />
<glyph unicode="&#xf6;" horiz-adv-x="1032" d="M61 547q0 115 24 220t79 187t144 130.5t220 48.5q135 0 223.5 -49.5t138.5 -130.5t69.5 -186t19.5 -218q0 -119 -29.5 -221.5t-86 -179t-140.5 -119.5t-195 -43q-129 2 -218 41t-144 111.5t-80 176t-25 232.5zM223 541q0 -211 74 -316.5t233 -105.5q76 0 130.5 33.5 t88 92t50 135.5t16.5 163q0 70 -7 150.5t-37 148t-86 113.5t-155 46q-96 0 -156.5 -39.5t-94 -104t-45 -147.5t-11.5 -169zM270 1397q0 41 28 67.5t67 26.5q45 0 75.5 -25.5t30.5 -68.5q0 -41 -29.5 -65.5t-70.5 -24.5q-47 0 -74 25.5t-27 64.5zM590 1397q0 41 27.5 67.5 t66.5 26.5q45 0 76 -25.5t31 -68.5q0 -41 -30 -65.5t-71 -24.5q-47 0 -73.5 25.5t-26.5 64.5z" />
<glyph unicode="&#xf7;" horiz-adv-x="1210" d="M117 674v155h964v-155h-964zM500 367q0 41 27.5 67.5t66.5 26.5q45 0 75.5 -25.5t30.5 -68.5q0 -41 -29.5 -66t-70.5 -25q-47 0 -73.5 26t-26.5 65zM500 1133q0 41 27.5 67.5t66.5 26.5q45 0 75.5 -25.5t30.5 -68.5q0 -41 -29.5 -66t-70.5 -25q-47 0 -73.5 26t-26.5 65z " />
<glyph unicode="&#xf8;" horiz-adv-x="1032" d="M27 -14l131 170l-16 18q-15 19 -32.5 63t-33 119.5t-15.5 190.5t24 220t79 187t144 130.5t220 48.5q78 0 136.5 -17.5t95.5 -38.5q43 -23 71 -53l76 100h94l-120 -159l15 -23q15 -24 33.5 -73.5t34 -128t15.5 -191.5q0 -119 -29.5 -221.5t-86 -179t-140.5 -119.5 t-195 -43q-92 0 -153.5 17t-98.5 38q-45 23 -69 55l-82 -110h-98zM223 541q0 -162 41 -252l473 614q-29 41 -79 69.5t-128 28.5q-96 0 -156.5 -39.5t-94 -104t-45 -147.5t-11.5 -169zM301 219q70 -100 229 -100q76 0 130.5 33.5t88 92t50 135.5t16.5 163q0 66 -6 140.5 t-33 145.5z" />
<glyph unicode="&#xf9;" horiz-adv-x="1026" d="M104 393v715h154v-709v-60.5t6 -57t20.5 -55t43.5 -54.5q23 -23 63.5 -38t93.5 -15q51 0 102.5 15.5t91.5 44t64.5 67.5t24.5 86v776h154v-1108h-80q-29 0 -37 2t-19 12q-14 12 -14 45v74q-45 -61 -118.5 -104t-196.5 -43q-86 0 -145.5 19.5t-106.5 64.5q-59 57 -80 136 t-21 187zM350 1407l74 106l244 -188v-98z" />
<glyph unicode="&#xfa;" horiz-adv-x="1026" d="M104 393v715h154v-709v-60.5t6 -57t20.5 -55t43.5 -54.5q23 -23 63.5 -38t93.5 -15q51 0 102.5 15.5t91.5 44t64.5 67.5t24.5 86v776h154v-1108h-80q-29 0 -37 2t-19 12q-14 12 -14 45v74q-45 -61 -118.5 -104t-196.5 -43q-86 0 -145.5 19.5t-106.5 64.5q-59 57 -80 136 t-21 187zM375 1227v98l246 188l73 -106z" />
<glyph unicode="&#xfb;" horiz-adv-x="1026" d="M104 393v715h154v-709v-60.5t6 -57t20.5 -55t43.5 -54.5q23 -23 63.5 -38t93.5 -15q51 0 102.5 15.5t91.5 44t64.5 67.5t24.5 86v776h154v-1108h-80q-29 0 -37 2t-19 12q-14 12 -14 45v74q-45 -61 -118.5 -104t-196.5 -43q-86 0 -145.5 19.5t-106.5 64.5q-59 57 -80 136 t-21 187zM324 1235v119l182 196l180 -196v-119l-180 156z" />
<glyph unicode="&#xfc;" horiz-adv-x="1026" d="M104 393v715h154v-709v-60.5t6 -57t20.5 -55t43.5 -54.5q23 -23 63.5 -38t93.5 -15q51 0 102.5 15.5t91.5 44t64.5 67.5t24.5 86v776h154v-1108h-80q-29 0 -37 2t-19 12q-14 12 -14 45v74q-45 -61 -118.5 -104t-196.5 -43q-86 0 -145.5 19.5t-106.5 64.5q-59 57 -80 136 t-21 187zM254 1397q0 41 27.5 67.5t66.5 26.5q45 0 76 -25.5t31 -68.5q0 -41 -30 -65.5t-71 -24.5q-47 0 -73.5 25.5t-26.5 64.5zM573 1397q0 41 28 67.5t67 26.5q45 0 75.5 -25.5t30.5 -68.5q0 -41 -29.5 -65.5t-70.5 -24.5q-47 0 -74 25.5t-27 64.5z" />
<glyph unicode="&#xff;" horiz-adv-x="862" d="M10 1108h150l278 -924l269 924h147l-360 -1188q-18 -59 -35 -110.5t-43.5 -88t-64.5 -58t-99 -21.5q-29 0 -55.5 4t-46.5 10l-46 16l-14 138q18 -6 41 -13q18 -4 42 -8t48 -4q51 0 77 34t40 91l22 90zM172 1397q0 41 27.5 67.5t66.5 26.5q45 0 76 -25.5t31 -68.5 q0 -41 -30 -65.5t-71 -24.5q-47 0 -73.5 25.5t-26.5 64.5zM492 1397q0 41 27.5 67.5t66.5 26.5q45 0 75.5 -25.5t30.5 -68.5q0 -41 -29.5 -65.5t-70.5 -24.5q-47 0 -73.5 25.5t-26.5 64.5z" />
<glyph unicode="&#x152;" horiz-adv-x="1976" d="M127 760q-2 160 29.5 300t104.5 245.5t191.5 166t290.5 60.5q96 0 160 -15.5t105 -31.5q47 -20 75 -45v65h791l39 -159h-658v-484h578v-168h-578v-530h682l-51 -164h-803v80q-39 -27 -90 -49q-45 -18 -107.5 -33.5t-142.5 -15.5q-182 0 -300.5 61t-188.5 166.5t-97.5 248 t-29.5 302.5zM313 760q0 -150 21.5 -265.5t72 -194.5t133.5 -120t203 -39q100 2 167 31t105 63.5t45 48.5l23 44v862q-25 51 -67 90q-39 35 -102.5 62.5t-163.5 31.5q-145 2 -231.5 -47t-132.5 -134t-59.5 -197.5t-13.5 -235.5z" />
<glyph unicode="&#x153;" horiz-adv-x="1746" d="M61 547q0 115 24 220t79 187t144 130.5t220 48.5q106 0 176 -30t113 -65q49 -41 78 -94q2 6 22.5 36t63.5 64.5t112.5 62.5t170.5 30q102 0 173.5 -32t120 -83t77 -115.5t42 -128t17.5 -119t4 -90.5q0 -10 -1 -21t-1 -20q-2 -10 -2 -18h-721v-31q0 -16 2 -47t13 -67.5 t33.5 -76.5t62.5 -73t99.5 -55.5t145.5 -24.5q90 -4 152.5 11.5t103.5 33.5q47 23 80 51l-23 -161l-22 -12q-21 -13 -61.5 -28.5t-100 -27.5t-135.5 -12q-31 0 -83 2t-126 26q-61 18 -103 48t-69 59q-31 33 -51 70q-27 -57 -76 -105q-41 -41 -111.5 -73.5t-175.5 -30.5 q-129 0 -218 40t-144 112.5t-80 176t-25 232.5zM223 541q0 -211 74 -316.5t233 -105.5q76 0 130.5 33.5t88 92t50 135.5t16.5 163q0 70 -7 150.5t-37 148t-86 113.5t-155 46q-96 0 -156.5 -39.5t-94 -104t-45 -147.5t-11.5 -169zM975 637h555q-2 98 -31 180q-12 33 -31.5 67 t-47 60.5t-66.5 43t-90 18.5q-55 2 -98.5 -13.5t-74 -42t-51 -59.5t-32.5 -68q-31 -82 -33 -186z" />
<glyph unicode="&#x178;" horiz-adv-x="1196" d="M8 1507h189l399 -682l403 682h187l-508 -827v-680h-172v686zM326 1694q0 41 26.5 67.5t67.5 26.5q45 0 75.5 -25.5t30.5 -68.5q0 -41 -30.5 -65.5t-71.5 -24.5q-47 0 -72.5 25.5t-25.5 64.5zM645 1694q0 41 26.5 67.5t67.5 26.5q45 0 76 -25.5t31 -68.5q0 -41 -31 -65.5 t-72 -24.5q-47 0 -72.5 25.5t-25.5 64.5z" />
<glyph unicode="&#x2c6;" horiz-adv-x="686" d="M80 1247q0 80 30.5 134.5t76.5 88t103.5 48t112.5 12.5q98 -4 163 -41t103 -100.5t52 -147.5t14 -178q0 -211 -95 -337t-273 -128q-55 0 -95.5 7t-66 16.5t-37.5 17.5l-12 8l-27 105q18 -18 51 -31q29 -10 71 -20.5t103 -8.5q68 2 115 25.5t75.5 59.5t44 77t21.5 77t6 59 v24q-29 -18 -63 -31q-31 -10 -72 -20.5t-92 -10.5q-57 -2 -112.5 14.5t-100.5 52.5t-71.5 92t-24.5 136zM195 1251q-2 -90 48 -151.5t158 -61.5q57 0 98.5 9.5t67.5 21.5q31 13 49 31q6 92 -12 164q-8 31 -22.5 60.5t-38 54t-58 40t-82.5 17.5q-84 4 -144 -41t-64 -144z" />
<glyph unicode="&#x2dc;" horiz-adv-x="1024" d="M195 1389q37 70 92 110.5t133 34.5q45 -4 75.5 -22.5t56.5 -41t53.5 -42t68.5 -21.5q39 -4 68.5 7t49 25.5t29.5 27t13 14.5l28 -19q-29 -76 -83 -124t-142 -40q-37 2 -63.5 22.5t-53 44.5t-54.5 43t-67 24q-55 4 -99 -15.5t-85 -60.5z" />
<glyph unicode="&#x2000;" horiz-adv-x="969" />
<glyph unicode="&#x2001;" horiz-adv-x="1939" />
<glyph unicode="&#x2002;" horiz-adv-x="969" />
<glyph unicode="&#x2003;" horiz-adv-x="1939" />
<glyph unicode="&#x2004;" horiz-adv-x="646" />
<glyph unicode="&#x2005;" horiz-adv-x="484" />
<glyph unicode="&#x2006;" horiz-adv-x="323" />
<glyph unicode="&#x2007;" horiz-adv-x="323" />
<glyph unicode="&#x2008;" horiz-adv-x="242" />
<glyph unicode="&#x2009;" horiz-adv-x="387" />
<glyph unicode="&#x200a;" horiz-adv-x="107" />
<glyph unicode="&#x2010;" horiz-adv-x="837" d="M59 504v166h717v-166h-717z" />
<glyph unicode="&#x2011;" horiz-adv-x="837" d="M59 504v166h717v-166h-717z" />
<glyph unicode="&#x2012;" horiz-adv-x="837" d="M59 504v166h717v-166h-717z" />
<glyph unicode="&#x2013;" horiz-adv-x="1210" d="M119 674v164h964v-164h-964z" />
<glyph unicode="&#x2014;" horiz-adv-x="1869" d="M74 526v95h1730v-95h-1730z" />
<glyph unicode="&#x2018;" horiz-adv-x="391" d="M65 1147q1 49 17 106q14 55 39.5 105.5t50.5 89.5q29 45 59 86l72 -45q-20 -33 -39 -70q-16 -31 -30.5 -70.5t-18.5 -78.5t1 -77t13.5 -67.5t16.5 -49t10 -21.5l-174 -74q-10 37 -14 80q-4 37 -3 86z" />
<glyph unicode="&#x2019;" horiz-adv-x="391" d="M63 1026q20 33 39 70q16 31 29.5 69.5t18.5 79.5q6 39 0.5 77t-14.5 67.5t-17 48t-10 22.5l176 74q8 -37 14 -80q4 -37 3 -87t-17 -105t-41 -106.5t-49 -90.5q-29 -45 -62 -84z" />
<glyph unicode="&#x201a;" horiz-adv-x="391" d="M63 -190q20 33 39 69q16 31 29.5 70t18.5 78q6 39 0.5 76.5t-14.5 67.5t-17 49.5t-10 23.5l176 73q8 -39 14 -81q4 -37 3 -87.5t-17 -105.5q-14 -55 -40 -105.5t-50.5 -89t-42.5 -62.5l-19 -24z" />
<glyph unicode="&#x201c;" horiz-adv-x="649" d="M65 1147q1 49 17 106q14 55 39.5 105.5t50.5 89.5q29 45 59 86l72 -45q-20 -33 -39 -70q-16 -31 -30.5 -70.5t-18.5 -78.5t1 -77t13.5 -67.5t16.5 -49t10 -21.5l-174 -74q-10 37 -14 80q-4 37 -3 86zM324 1145q2 49 18 106q14 55 40 105.5t50.5 89.5t41.5 62l18 24 l71 -47q-20 -33 -39 -70q-16 -31 -30.5 -69.5t-18.5 -77.5q-6 -39 -1 -77t14.5 -67.5t17.5 -49t10 -23.5l-174 -74q-12 39 -16 82q-4 37 -2 86z" />
<glyph unicode="&#x201d;" horiz-adv-x="649" d="M63 1026q20 33 39 70q16 31 29.5 69.5t18.5 79.5q6 39 0.5 77t-14.5 67.5t-17 48t-10 22.5l176 74q8 -37 14 -80q4 -37 3 -87t-17 -105t-41 -106.5t-49 -90.5q-29 -45 -62 -84zM322 1024q20 33 38 70q16 31 29.5 69.5t20.5 79.5q6 39 1 76t-14.5 66.5t-17.5 49t-10 23.5 l174 74q8 -39 14 -82q4 -37 3 -86t-17 -104q-14 -55 -40 -106.5t-50.5 -90.5t-42.5 -63l-17 -23z" />
<glyph unicode="&#x201e;" horiz-adv-x="649" d="M63 -190q20 33 39 69q16 31 29.5 70t18.5 78q6 39 0.5 76.5t-14.5 67.5t-17 49.5t-10 23.5l176 73q8 -39 14 -81q4 -37 3 -87.5t-17 -105.5q-14 -55 -40 -105.5t-50.5 -89t-42.5 -62.5l-19 -24zM322 -195q20 33 38 70q16 31 29.5 70t20.5 80q6 39 1 76.5t-14.5 67.5 t-17.5 48.5t-10 22.5l174 73q8 -37 14 -80q4 -37 3 -87t-17 -105t-41 -106.5t-49 -90.5q-29 -45 -60 -84z" />
<glyph unicode="&#x2022;" horiz-adv-x="655" d="M4 764q0 70 29.5 129t89 99t149.5 40q88 0 148.5 -40t89.5 -99t29 -129t-30 -129.5t-89.5 -99t-147.5 -39.5q-90 0 -149.5 39.5t-89 99t-29.5 129.5z" />
<glyph unicode="&#x2026;" horiz-adv-x="1120" d="M88 84q0 41 26.5 67.5t67.5 26.5q45 0 76 -25.5t31 -68.5q0 -41 -31 -65.5t-72 -24.5q-47 0 -72.5 24.5t-25.5 65.5zM459 80q0 41 27.5 67.5t66.5 26.5q45 0 75.5 -25.5t30.5 -68.5q0 -41 -29.5 -65.5t-70.5 -24.5q-47 0 -73.5 25.5t-26.5 64.5zM829 78q0 41 28 67.5 t67 26.5q47 0 76.5 -25.5t29.5 -68.5q0 -41 -29.5 -65.5t-70.5 -24.5q-47 0 -74 25.5t-27 64.5z" />
<glyph unicode="&#x202f;" horiz-adv-x="387" />
<glyph unicode="&#x2039;" horiz-adv-x="440" d="M4 694l227 340l152 -24l-184 -316l184 -309l-154 -25z" />
<glyph unicode="&#x203a;" horiz-adv-x="440" d="M61 1010l152 24l227 -340l-225 -334l-152 25l185 309z" />
<glyph unicode="&#x205f;" horiz-adv-x="484" />
<glyph unicode="&#x2122;" horiz-adv-x="622" d="M66 1481v26h196v-26h-80v-410h-35v410h-81zM319 1071v436h60l88 -368l98 368h58v-436h-33v412l-107 -412h-30l-101 412v-412h-33z" />
<glyph unicode="&#x25fc;" horiz-adv-x="1105" d="M0 0v1106h1106v-1106h-1106z" />
</font>
</defs>
</svg>
