<?xml version="1.0" encoding="utf-8"?>
<!-- Generator: Adobe Illustrator 21.0.0, SVG Export Plug-In . SVG Version: 6.00 Build 0)  -->
<svg version="1.1" id="REF1" xmlns="http://www.w3.org/2000/svg" xmlns:xlink="http://www.w3.org/1999/xlink" x="0px" y="0px"
	 viewBox="0 0 1190.6 841.9" style="enable-background:new 0 0 1190.6 841.9;" xml:space="preserve">
<style type="text/css">
	.st0{fill:#F6F6F6;}
	.st1{fill:none;stroke:#9D9D9C;stroke-width:0.75;stroke-miterlimit:10;}
	.st2{fill:none;stroke:#9D9D9C;stroke-miterlimit:10;stroke-dasharray:12;}
	.st3{fill:none;stroke:#931214;stroke-miterlimit:10;}
	.st4{fill:#931214;}
	.st5{fill:#FFFFFF;}
	.st6{display:none;fill:#FFFFFF;}
	.st7{fill:#EDEDED;}
	.st8{fill:none;stroke:#931214;stroke-width:0.75;stroke-miterlimit:10;}
	.st9{fill:none;stroke:#000000;stroke-width:2;stroke-miterlimit:10;}
	.st10{font-family:'MyriadPro-Regular';}
	.st11{font-size:12px;}
	.st12{fill:none;}
	.st13{font-family:'CenturyGothic-Bold';}
	.st14{fill:none;stroke:#9D9D9C;stroke-miterlimit:10;}
	.st15{font-size:13px;}
	.st16{fill:none;stroke:#000000;stroke-miterlimit:10;}
	.st17{font-size:27px;}
	.st18{letter-spacing:1;}
	.st19{fill:none;stroke:#9D9D9C;stroke-width:2;stroke-miterlimit:10;}
	.st20{fill:#9D9D9C;}
	.st21{font-size:9.031px;}
</style>
<g id="Calque_1">
	<g>
		<path class="st0" d="M379.1,47.7c0-5.5,4.5-10,10-10h108.7c5.5,0,10,4.5,10,10v107.3c0,5.5-4.5,10-10,10H389.1
			c-5.5,0-10-4.5-10-10V47.7z"/>
		<path class="st1" d="M379.1,47.7c0-5.5,4.5-10,10-10h108.7c5.5,0,10,4.5,10,10v107.3c0,5.5-4.5,10-10,10H389.1
			c-5.5,0-10-4.5-10-10V47.7z"/>
	</g>
	<g>
		<path class="st0" d="M666.8,44.7c0-5.5,4.5-10,10-10h108.7c5.5,0,10,4.5,10,10v107.3c0,5.5-4.5,10-10,10H676.8
			c-5.5,0-10-4.5-10-10V44.7z"/>
		<path class="st1" d="M666.8,44.7c0-5.5,4.5-10,10-10h108.7c5.5,0,10,4.5,10,10v107.3c0,5.5-4.5,10-10,10H676.8
			c-5.5,0-10-4.5-10-10V44.7z"/>
	</g>
	<g>
		<g>
			<path class="st3" d="M383.7,357.1c33.4-27.3,71.9-48.7,113.9-62.5"/>
			<g>
				<polygon class="st4" points="388.3,358.3 384.8,356.4 383.7,352.5 379.1,360.9 				"/>
			</g>
			<g>
				<polygon class="st4" points="496.2,299.1 496.5,295.1 493.8,292.1 503.3,292.8 				"/>
			</g>
		</g>
	</g>
	<g>
		<g>
			<path class="st3" d="M329,593.1c-3.1-21-5.1-42.5-5.9-64.6"/>
			<g>
				<polygon class="st4" points="332.4,589.7 328.9,591.8 325,590.8 329.9,599 				"/>
			</g>
			<g>
				<polygon class="st4" points="327,531.1 323.2,529.7 319.6,531.4 322.9,522.5 				"/>
			</g>
		</g>
	</g>
	<g>
		<g>
			<path class="st3" d="M402.7,724.6c-12.4-11.8-23.6-24.8-33.5-38.8"/>
			<g>
				<polygon class="st4" points="403.4,719.9 401.9,723.6 398.2,725.2 407.1,728.6 				"/>
			</g>
			<g>
				<polygon class="st4" points="373.9,685.9 369.9,686.7 367.8,690.1 365.8,680.8 				"/>
			</g>
		</g>
	</g>
	<g>
		<g>
			<path class="st3" d="M611.9,805.2c-10.6,1.3-21.3,2-32.2,2c-10.9,0-21.7-0.7-32.2-2"/>
			<g>
				<polygon class="st4" points="608.7,801.9 610.7,805.4 609.6,809.2 617.8,804.4 				"/>
			</g>
			<g>
				<polygon class="st4" points="550.7,801.9 548.7,805.3 549.8,809.2 541.5,804.4 				"/>
			</g>
		</g>
	</g>
	<g>
		<g>
			<path class="st3" d="M790.2,685.7c-10.1,14.3-21.5,27.6-34.2,39.5"/>
			<g>
				<polygon class="st4" points="785.5,685.9 789.5,686.7 791.6,690.1 793.6,680.8 				"/>
			</g>
			<g>
				<polygon class="st4" points="755.5,720.6 756.8,724.4 760.5,726.1 751.6,729.3 				"/>
			</g>
		</g>
	</g>
	<g>
		<g>
			<path class="st3" d="M836.2,555c-0.8,13-2.6,25.7-5.3,38.1"/>
			<g>
				<polygon class="st4" points="832.2,557.6 836,556.3 839.6,558.1 836.5,549.1 				"/>
			</g>
			<g>
				<polygon class="st4" points="827.7,589.6 831,591.9 835,591.2 829.5,599 				"/>
			</g>
		</g>
	</g>
	<g>
		<g>
			<path class="st3" d="M811,426.1c5.5,11.3,10.2,23.1,14,35.2"/>
			<g>
				<polygon class="st4" points="808.8,430.3 811.5,427.2 815.5,427 808.3,420.8 				"/>
			</g>
			<g>
				<polygon class="st4" points="820.5,459.8 824.6,460.2 827.6,457.6 826.7,467 				"/>
			</g>
		</g>
	</g>
	<g>
		<g>
			<path class="st3" d="M672.4,298.4c23.7,9.2,45.7,21.8,65.4,37.2"/>
			<g>
				<polygon class="st4" points="673.7,303 673.5,298.9 676.3,296.1 666.8,296.4 				"/>
			</g>
			<g>
				<polygon class="st4" points="733.3,336.8 736.8,334.9 737.9,331 742.5,339.3 				"/>
			</g>
		</g>
	</g>
	<rect x="9.9" y="821.6" class="st5" width="494.1" height="20"/>
	<rect x="893.5" y="626.8" class="st6" width="271" height="185.9"/>
	<g>
		<g>
			<path class="st8" d="M718.8,363.8c0-5.5,4.5-10,10-10h108.7c5.5,0,10,4.5,10,10v32.4c0,5.5-4.5,10-10,10H728.8
				c-5.5,0-10-4.5-10-10V363.8z"/>
		</g>
		<text transform="matrix(1 0 0 1 748.6331 384.8486)" class="st10 st11">ARCHITECTES</text>
	</g>
	<g>
		<g>
			<path class="st8" d="M278.4,623.2c0-5.5,4.5-10,10-10h108.7c5.5,0,10,4.5,10,10v32.4c0,5.5-4.5,10-10,10H288.4
				c-5.5,0-10-4.5-10-10V623.2z"/>
		</g>
	</g>
	<g>
		<g>
			<path class="st8" d="M394.4,752.8c0-5.5,4.5-10,10-10h108.7c5.5,0,10,4.5,10,10v32.4c0,5.5-4.5,10-10,10H404.4
				c-5.5,0-10-4.5-10-10V752.8z"/>
		</g>
	</g>
	<g>
		<g>
			<path class="st8" d="M770.4,493.5c0-5.5,4.5-10,10-10h108.7c5.5,0,10,4.5,10,10v32.4c0,5.5-4.5,10-10,10H780.4
				c-5.5,0-10-4.5-10-10V493.5z"/>
		</g>
		<text transform="matrix(1 0 0 1 802.446 506.1819)"><tspan x="0" y="0" class="st10 st11">ARCHITECTES</tspan><tspan x="2.8" y="14.4" class="st10 st11">D’INTERIEUR</tspan></text>
	</g>
	<g>
		<g>
			<path class="st8" d="M755.1,625c0-5.5,4.5-10,10-10h108.7c5.5,0,10,4.5,10,10v32.4c0,5.5-4.5,10-10,10H765.1c-5.5,0-10-4.5-10-10
				V625z"/>
		</g>
		<text transform="matrix(1 0 0 1 775.2541 640.5198)"><tspan x="0" y="0" class="st10 st11">PROGRAMMISTES</tspan><tspan x="31.6" y="14.4" class="st10 st11">AMO</tspan></text>
	</g>
	<g>
		<g>
			<path class="st8" d="M637.4,752.8c0-5.5,4.5-10,10-10h108.7c5.5,0,10,4.5,10,10v32.4c0,5.5-4.5,10-10,10H647.4
				c-5.5,0-10-4.5-10-10V752.8z"/>
		</g>
	</g>
	<g>
		<rect x="393.1" y="71.8" class="st12" width="100.8" height="74"/>
		<text transform="matrix(1 0 0 1 393.35 80.6557)"><tspan x="0" y="0" class="st13 st11">Maître d’ouvrage</tspan><tspan x="14.5" y="28.8" class="st10 st11">Chef de projet</tspan><tspan x="35.1" y="43.2" class="st10 st11">COPIL</tspan></text>
	</g>
	<rect x="679.6" y="78.4" class="st12" width="100.8" height="48.8"/>
	<text transform="matrix(1 0 0 1 695.0524 88.002)"><tspan x="0" y="0" class="st4 st13 st15">Partenaires</tspan><tspan x="29.6" y="15.6" class="st4 st10 st15">et</tspan><tspan x="10.3" y="31.2" class="st4 st13 st15">Usagers</tspan></text>
	<rect x="530.4" y="222.6" class="st12" width="113.2" height="54.8"/>
	<text transform="matrix(1 0 0 1 537.7422 242.4874)" class="st4 st13 st17 st18">PROJET</text>
	<g>
		<g>
			<path class="st19" d="M841.9,305.7c13.6-23,30.4-44.5,38.2-70.6c14-47.2-15.6-83.3-53.4-101.3"/>
			<g>
				<polygon class="st20" points="851.1,304.5 843.1,303.6 838.3,297.2 836,316.1 				"/>
			</g>
			<g>
				<polygon class="st20" points="834.7,129.4 828.8,134.9 828.8,142.9 815.6,129.1 				"/>
			</g>
		</g>
	</g>
	<g>
		<g>
			<path class="st19" d="M320.1,305.7c-13.6-23-30.4-44.5-38.2-70.6c-14-47.2,15.6-83.3,53.4-101.3"/>
			<g>
				<polygon class="st20" points="323.7,297.2 318.8,303.6 310.8,304.5 325.9,316.1 				"/>
			</g>
			<g>
				<polygon class="st20" points="333.2,142.9 333.1,134.9 327.2,129.4 346.3,129.1 				"/>
			</g>
		</g>
	</g>
	<g>
		<g>
			<path class="st19" d="M542.7,71c14.1-0.9,28.5-1.3,43-1.3c15.7,0,31.1,0.5,46.2,1.5"/>
			<g>
				<polygon class="st20" points="548.8,78.2 545.2,71 547.9,63.4 530.8,71.8 				"/>
			</g>
			<g>
				<polygon class="st20" points="625.8,78.4 629.4,71.2 626.7,63.6 643.8,72.1 				"/>
			</g>
		</g>
	</g>
	<text transform="matrix(1 0 0 1 690.4745 773.8486)" class="st10 st11">OPC</text>
	<text transform="matrix(1 0 0 1 413.7639 765.8486)"><tspan x="0" y="0" class="st10 st11">ECONOMISTES DE</tspan><tspan x="-3.4" y="14.4" class="st10 st11">LA CONSTRUCTION</tspan></text>
	<text transform="matrix(1 0 0 1 309.2667 640.5198)" class="st10 st11">ASSISTANTES</text>
	<g>
		<path class="st0" d="M258.6,390.2c0-5.5,4.5-10,10-10h108.7c5.5,0,10,4.5,10,10v107.3c0,5.5-4.5,10-10,10H268.6
			c-5.5,0-10-4.5-10-10V390.2z"/>
		<path class="st1" d="M258.6,390.2c0-5.5,4.5-10,10-10h108.7c5.5,0,10,4.5,10,10v107.3c0,5.5-4.5,10-10,10H268.6
			c-5.5,0-10-4.5-10-10V390.2z"/>
	</g>
	<g>
		<rect x="272.5" y="404.9" class="st12" width="100.8" height="84.1"/>
		<text transform="matrix(1 0 0 1 292.6569 413.3944)"><tspan x="0" y="0" class="st10 st11">PERSONNES </tspan><tspan x="-2.5" y="14.4" class="st10 st11">RESSOURCES</tspan><tspan x="-2.7" y="28.8" class="st10 st11">EXTERIEURES</tspan><tspan x="7.3" y="57.6" class="st4 st10 st11">ATELIERS</tspan><tspan x="-11.3" y="72" class="st4 st10 st11">COLLABORATIFS</tspan></text>
	</g>
	<g>
		<g>
			<path class="st20" d="M494.3,555h-6.2c-1.9,0-3.5-0.8-4.9-2.5c0,0,0,0,0,0c-0.8-1.1-1.2-2.3-1.2-3.5v-4.8c0-0.3,0.2-0.6,0.6-0.6
				h0.8c0.3,0,0.6,0.2,0.6,0.6v4.7c0,1.5,0.7,2.7,2.1,3.7c0.7,0.4,1.4,0.5,2,0.5c0,0,0,0,0,0h6.1c1.3,0,2.4-0.5,3.3-1.7
				c0.6-0.8,0.8-1.6,0.8-2.5v-28.8c0-0.1,0-0.2,0.1-0.2c0.1-0.2,0.3-0.3,0.5-0.3h0.8c0.3,0,0.6,0.2,0.6,0.6V549
				c0,1.9-0.9,3.6-2.7,4.9c0,0,0,0,0,0C496.5,554.7,495.4,555,494.3,555z"/>
		</g>
		<g>
			<path class="st20" d="M512.4,555h-0.8c-0.3,0-0.6-0.2-0.6-0.6v-34.3c0-0.3,0.2-0.6,0.6-0.6h0.8c0.3,0,0.6,0.2,0.6,0.6v34.3
				C512.9,554.8,512.7,555,512.4,555z"/>
		</g>
		<g>
			<path class="st20" d="M541.3,556.8L541.3,556.8c-0.2,0-0.4-0.1-0.5-0.3c-7.1-15-11.1-23.5-11.9-25.2l-3.3-7.1v30.1
				c0,0.3-0.2,0.6-0.6,0.6h-0.8c-0.3,0-0.6-0.2-0.6-0.6v-36.1c0-0.3,0.2-0.5,0.5-0.5h0c0.2,0,0.4,0.1,0.5,0.3l8.8,18.7
				c0.1,0.3,1,2.1,6.4,13.4v-29.9c0-0.1,0-0.2,0.1-0.2c0.1-0.2,0.3-0.3,0.5-0.3h0.8c0.3,0,0.6,0.2,0.6,0.6v36.2
				C541.8,556.6,541.6,556.8,541.3,556.8z"/>
		</g>
		<g>
			<path class="st20" d="M569.7,555h-1c-0.2,0-0.3-0.1-0.4-0.2c-0.3-0.5-3.7-5.7-10.2-15.8c-0.2-0.4-0.4-0.6-0.5-0.7h-3.7v16.2
				c0,0.3-0.2,0.6-0.6,0.6h-0.8c-0.3,0-0.6-0.2-0.6-0.6v-34.3c0-0.3,0.2-0.6,0.6-0.6h0.8c0.3,0,0.6,0.2,0.6,0.6v16.2h3.7
				c0.5-0.8,2.8-4.3,9.8-15.1c0.5-0.8,0.8-1.2,0.9-1.4c0.1-0.1,0.3-0.2,0.4-0.2h1c0.3,0,0.5,0.2,0.5,0.5v0c0,0.1,0,0.2-0.1,0.3
				l-10.9,16.9c0.6,0.9,2.8,4.3,10.9,16.9c0.1,0.1,0.1,0.2,0.1,0.3v0C570.2,554.8,569.9,555,569.7,555z"/>
		</g>
		<g>
			<path class="st4" d="M591.7,554.9h-0.8c-0.4,0-0.5-0.5-0.7-1.3c-3.4-13.7-5.1-20.8-5.3-21.6c-0.1-0.3-0.7-2.8-1.8-7.5
				c-0.8,3.3-2.8,11.6-6,24.7l-1.3,5.4c0,0.1-0.1,0.2-0.2,0.3l0,0c-0.1,0-0.1,0-0.2,0h-0.8c-0.1,0-0.1,0-0.2,0l0,0
				c-0.2-0.1-0.3-0.3-0.2-0.5l7.1-29c1-4,1.5-6.1,1.6-6.4c0.1-0.2,0.2-0.3,0.4-0.3c0.2,0,0.4,0.1,0.4,0.3l6.3,25.9l2.3,9.4
				c0,0.2,0,0.4-0.2,0.5l0,0C591.9,554.9,591.8,554.9,591.7,554.9z"/>
		</g>
		<g>
			<path class="st4" d="M612.2,554.9h-6.1c-1.8,0-3.4-0.8-4.7-2.4c-0.6-0.8-1-1.7-1.1-2.6l-0.1-0.4c-0.1-0.1-0.1-0.2-0.1-0.3v-29.2
				c0-0.3,0.2-0.5,0.5-0.5h0.8c0.3,0,0.5,0.2,0.5,0.5v28.8c0.1,0.2,0.1,0.5,0.1,0.8c0.3,1.1,0.7,1.9,1.4,2.4
				c0.9,0.7,1.8,1.1,2.8,1.1c0,0,0,0,0.1,0c0,0,0,0,0.1,0h5.9c0,0,0,0,0,0c0,0,0,0,0,0c1.3,0,2.4-0.6,3.4-1.7
				c0.6-0.8,0.9-1.7,0.9-2.6v-28.8c0-0.1,0-0.1,0-0.2c0.1-0.2,0.3-0.3,0.4-0.3h0.8c0.3,0,0.5,0.2,0.5,0.5V549c0,1.5-0.6,2.9-1.8,4.1
				C615.1,554.3,613.7,554.9,612.2,554.9z"/>
		</g>
	</g>
	<g>
		<g>
			<path class="st20" d="M484.2,568.2h-1c-0.3,0-0.6-0.1-0.9-0.4c-0.1-0.2-0.2-0.4-0.2-0.6v-3.7c0-0.4,0.2-0.6,0.5-0.9
				c0.2-0.1,0.4-0.2,0.6-0.2h0.9c0.4,0,0.6,0.1,0.8,0.3c0.1,0.1,0.2,0.2,0.2,0.3c0,0.1,0.1,0.2,0.1,0.4c0,0,0,0,0,0.1v0.7
				c0,0.1-0.1,0.2-0.2,0.2h-0.3c-0.1,0-0.2-0.1-0.2-0.2v-0.7c0-0.2-0.1-0.3-0.3-0.4c0,0-0.1,0-0.2,0h-0.9c-0.1,0-0.2,0.1-0.3,0.2
				c0,0.1-0.1,0.1-0.1,0.2v3.7c0,0.1,0.1,0.2,0.2,0.3c0.1,0,0.1,0.1,0.2,0.1h1c0.1,0,0.2-0.1,0.3-0.2c0-0.1,0.1-0.1,0.1-0.2v-0.8
				c0,0,0-0.1,0-0.1c0-0.1,0.1-0.1,0.2-0.1h0.3c0,0,0.1,0,0.1,0c0.1,0,0.1,0.1,0.1,0.2v0.8c0,0.4-0.2,0.6-0.5,0.9
				C484.6,568.1,484.4,568.2,484.2,568.2z"/>
		</g>
		<g>
			<path class="st20" d="M488.7,568.2h-1c-0.4,0-0.6-0.2-0.9-0.5c-0.1-0.2-0.2-0.4-0.2-0.6v-3.7c0-0.3,0.2-0.6,0.5-0.9
				c0.2-0.1,0.4-0.2,0.6-0.2h1c0.4,0,0.7,0.2,0.9,0.5c0.1,0.2,0.2,0.4,0.2,0.6v3.7c0,0.3-0.1,0.6-0.4,0.8
				C489.1,568.1,488.9,568.2,488.7,568.2z M487.3,563.5v3.6c0,0.2,0.1,0.4,0.3,0.4c0,0,0.1,0,0.2,0h0.9c0.2,0,0.3,0,0.4-0.1
				c0.1-0.1,0.1-0.2,0.1-0.4v-3.6c0-0.2-0.1-0.4-0.3-0.5c0,0-0.1,0-0.2,0h-0.8c-0.2,0-0.3,0-0.3,0.1
				C487.3,563.2,487.3,563.3,487.3,563.5C487.3,563.4,487.3,563.4,487.3,563.5z"/>
		</g>
		<g>
			<path class="st20" d="M491.5,568.2c-0.1,0-0.1,0-0.2-0.1l0,0c0,0,0-0.1,0-0.1v-5.5c0-0.1,0.1-0.2,0.2-0.2h0.3
				c0.1,0,0.2,0.1,0.2,0.2v5h2.3c0.1,0,0.2,0.1,0.2,0.2v0.3c0,0.1-0.1,0.2-0.2,0.2h-2.1C492,568.2,491.8,568.2,491.5,568.2
				C491.5,568.2,491.5,568.2,491.5,568.2z"/>
		</g>
		<g>
			<path class="st20" d="M495.6,568.2c-0.1,0-0.1,0-0.2-0.1l0,0c0,0,0-0.1,0-0.1v-5.5c0-0.1,0.1-0.2,0.2-0.2h0.3
				c0.1,0,0.2,0.1,0.2,0.2v5h2.3c0.1,0,0.2,0.1,0.2,0.2v0.3c0,0.1-0.1,0.2-0.2,0.2h-2.1C496.2,568.2,495.9,568.2,495.6,568.2
				L495.6,568.2z"/>
		</g>
		<g>
			<path class="st20" d="M502.7,568.2H500c-0.1,0-0.2-0.1-0.2-0.2v-5.5c0-0.1,0.1-0.2,0.2-0.2h2.7c0.1,0,0.2,0.1,0.2,0.2v0.3
				c0,0.1-0.1,0.2-0.2,0.2h-2.3v1.8h0.9c0.1,0,0.2,0.1,0.2,0.2v0.3c0,0.1-0.1,0.2-0.2,0.2h-0.9v2.1h2.3c0.1,0,0.2,0.1,0.2,0.2v0.3
				C502.9,568.1,502.8,568.2,502.7,568.2z"/>
		</g>
		<g>
			<path class="st20" d="M506.3,568.2h-1c-0.3,0-0.6-0.1-0.9-0.4c-0.1-0.2-0.2-0.4-0.2-0.6v-3.7c0-0.4,0.2-0.6,0.5-0.9
				c0.2-0.1,0.4-0.2,0.6-0.2h0.9c0.4,0,0.6,0.1,0.8,0.3c0.1,0.1,0.2,0.2,0.2,0.3c0,0.1,0.1,0.2,0.1,0.4c0,0,0,0,0,0.1v0.7
				c0,0.1-0.1,0.2-0.2,0.2h-0.3c-0.1,0-0.2-0.1-0.2-0.2v-0.7c0-0.2-0.1-0.3-0.3-0.4c0,0-0.1,0-0.2,0h-0.9c-0.1,0-0.2,0.1-0.3,0.2
				c0,0.1-0.1,0.1-0.1,0.2v3.7c0,0.1,0.1,0.2,0.2,0.3c0.1,0,0.1,0.1,0.2,0.1h1c0.1,0,0.2-0.1,0.3-0.2c0-0.1,0.1-0.1,0.1-0.2v-0.8
				c0,0,0-0.1,0-0.1c0-0.1,0.1-0.1,0.2-0.1h0.3c0,0,0.1,0,0.1,0c0.1,0,0.1,0.1,0.1,0.2v0.8c0,0.4-0.2,0.6-0.5,0.9
				C506.7,568.1,506.5,568.2,506.3,568.2z"/>
		</g>
		<g>
			<path class="st20" d="M510.4,568.2h-0.3c-0.1,0-0.2-0.1-0.2-0.2v-5h-1c-0.1,0-0.2-0.1-0.2-0.2v-0.2c0-0.1,0.1-0.2,0.2-0.2h2.7
				c0.1,0,0.2,0.1,0.2,0.2v0.2c0,0.1-0.1,0.2-0.2,0.2h-1v5C510.6,568.1,510.5,568.2,510.4,568.2z"/>
		</g>
		<g>
			<path class="st20" d="M513.6,568.2h-0.3c-0.1,0-0.2-0.1-0.2-0.2v-5.4c0-0.1,0.1-0.2,0.2-0.2h0.3c0.1,0,0.2,0.1,0.2,0.2v5.4
				C513.8,568.1,513.7,568.2,513.6,568.2z"/>
		</g>
		<g>
			<path class="st20" d="M515.9,568.2h-0.3c-0.1,0-0.2-0.1-0.2-0.2v-5.5c0-0.1,0.1-0.2,0.2-0.2h2.7c0.1,0,0.2,0.1,0.2,0.2v0.3
				c0,0.1-0.1,0.2-0.2,0.2h-2.3v1.8h0.9c0.1,0,0.2,0.1,0.2,0.2v0.3c0,0.1-0.1,0.2-0.2,0.2h-0.9v2.5
				C516.1,568.1,516,568.2,515.9,568.2z"/>
		</g>
		<path class="st20" d="M520.5,565.2c0-0.5,0.4-1,1-1c0.5,0,1,0.4,1,1c0,0.5-0.4,1-1,1C521,566.2,520.5,565.7,520.5,565.2z"/>
		<g>
			<path class="st4" d="M527.8,568.1h-0.3c-0.1,0-0.1,0-0.2-0.4c-0.4-1.4-0.6-2.3-0.6-2.5c0-0.1-0.1-0.4-0.3-1.1l-0.8,3.4
				c0,0.1-0.1,0.3-0.1,0.6c0,0,0,0.1-0.1,0.1c0,0,0,0-0.1,0h-0.3c0,0,0,0-0.1,0c0,0-0.1-0.1-0.1-0.1c0.5-2.2,0.9-3.7,1.1-4.6
				c0.2-0.6,0.2-1,0.3-1c0-0.1,0.1-0.1,0.1-0.1h0c0.1,0,0.1,0,0.1,0.1l1.4,5.6C528,568,527.9,568.1,527.8,568.1
				C527.9,568.1,527.9,568.1,527.8,568.1z"/>
		</g>
		<g>
			<path class="st4" d="M532.3,568.1H532c0,0-0.1,0-0.1,0c0,0,0,0-0.5-0.7c0-0.1-0.4-0.7-1.2-1.9H530v2.5c0,0.1-0.1,0.1-0.1,0.1
				h-0.3c-0.1,0-0.1-0.1-0.1-0.1v-5.4c0-0.1,0.1-0.1,0.1-0.1h1.9c0.3,0,0.6,0.1,0.8,0.4c0.1,0.2,0.2,0.4,0.2,0.6v1.1
				c0,0.3-0.1,0.6-0.4,0.8c-0.2,0.1-0.4,0.2-0.6,0.2l-0.1,0l-0.5,0l1.6,2.4c0,0,0,0,0,0.1C532.4,568.1,532.4,568.1,532.3,568.1z
				 M530,565h1.4c0,0,0,0,0.1,0c0,0,0,0,0,0c0.1,0,0.2-0.1,0.3-0.1c0.1-0.1,0.2-0.2,0.2-0.3v-1.1c0-0.1-0.1-0.3-0.2-0.4
				c-0.1-0.1-0.2-0.1-0.3-0.1H530V565z"/>
		</g>
		<g>
			<path class="st4" d="M535.9,568.1h-1c-0.3,0-0.6-0.1-0.8-0.4c-0.1-0.2-0.2-0.4-0.2-0.6v-3.7c0-0.3,0.1-0.6,0.4-0.8
				c0.2-0.1,0.4-0.2,0.6-0.2h0.9c0.3,0,0.6,0.1,0.8,0.3c0.1,0.1,0.2,0.2,0.2,0.3c0,0.1,0.1,0.2,0.1,0.3c0,0,0,0,0,0v0.7
				c0,0.1-0.1,0.1-0.1,0.1h-0.3c-0.1,0-0.1-0.1-0.1-0.1v-0.7c0-0.2-0.1-0.4-0.3-0.5c-0.1,0-0.1,0-0.2,0h-0.9c-0.1,0-0.3,0.1-0.4,0.2
				c-0.1,0.1-0.1,0.2-0.1,0.3v3.7c0,0.1,0.1,0.3,0.2,0.4c0.1,0.1,0.2,0.1,0.3,0.1h1c0.1,0,0.3-0.1,0.4-0.2c0.1-0.1,0.1-0.2,0.1-0.3
				v-0.8c0,0,0,0,0-0.1c0,0,0.1-0.1,0.1-0.1h0.3c0,0,0,0,0.1,0c0,0,0.1,0.1,0.1,0.1v0.8c0,0.3-0.1,0.6-0.4,0.8
				C536.3,568.1,536.1,568.1,535.9,568.1z"/>
		</g>
		<g>
			<path class="st4" d="M541.2,568.1H541c-0.1,0-0.1-0.1-0.1-0.1v-2.6h-2v2.6c0,0.1-0.1,0.1-0.1,0.1h-0.3c-0.1,0-0.1-0.1-0.1-0.1
				v-5.5c0-0.1,0.1-0.1,0.1-0.1h0.3c0.1,0,0.1,0.1,0.1,0.1v2.3h2v-2.3c0-0.1,0.1-0.1,0.1-0.1h0.3c0.1,0,0.1,0.1,0.1,0.1v5.5
				C541.4,568.1,541.3,568.1,541.2,568.1z"/>
		</g>
		<g>
			<path class="st4" d="M543.2,568.1H543c-0.1,0-0.1-0.1-0.1-0.1v-5.4c0-0.1,0.1-0.1,0.1-0.1h0.3c0.1,0,0.1,0.1,0.1,0.1v5.4
				C543.4,568.1,543.3,568.1,543.2,568.1z"/>
		</g>
		<g>
			<path class="st4" d="M546.4,568.1h-0.3c-0.1,0-0.1-0.1-0.1-0.1v-5.1H545c-0.1,0-0.1-0.1-0.1-0.1v-0.2c0-0.1,0.1-0.1,0.1-0.1h2.7
				c0.1,0,0.1,0.1,0.1,0.1v0.2c0,0.1-0.1,0.1-0.1,0.1h-1.1v5.1C546.6,568.1,546.5,568.1,546.4,568.1z"/>
		</g>
		<g>
			<path class="st4" d="M552.1,568.1h-2.7c-0.1,0-0.1-0.1-0.1-0.1v-5.5c0-0.1,0.1-0.1,0.1-0.1h2.7c0.1,0,0.1,0.1,0.1,0.1v0.3
				c0,0.1-0.1,0.1-0.1,0.1h-2.3v1.9h1c0.1,0,0.1,0.1,0.1,0.1v0.3c0,0.1-0.1,0.1-0.1,0.1h-1v2.2h2.3c0.1,0,0.1,0.1,0.1,0.1v0.3
				C552.3,568.1,552.2,568.1,552.1,568.1z"/>
		</g>
		<g>
			<path class="st4" d="M555.7,568.1h-1c-0.3,0-0.6-0.1-0.8-0.4c-0.1-0.2-0.2-0.4-0.2-0.6v-3.7c0-0.3,0.1-0.6,0.4-0.8
				c0.2-0.1,0.4-0.2,0.6-0.2h0.9c0.3,0,0.6,0.1,0.8,0.3c0.1,0.1,0.2,0.2,0.2,0.3c0,0.1,0.1,0.2,0.1,0.3c0,0,0,0,0,0v0.7
				c0,0.1-0.1,0.1-0.1,0.1h-0.3c-0.1,0-0.1-0.1-0.1-0.1v-0.7c0-0.2-0.1-0.4-0.3-0.5c-0.1,0-0.1,0-0.2,0h-0.9c-0.1,0-0.3,0.1-0.4,0.2
				c-0.1,0.1-0.1,0.2-0.1,0.3v3.7c0,0.1,0.1,0.3,0.2,0.4c0.1,0.1,0.2,0.1,0.3,0.1h1c0.1,0,0.3-0.1,0.4-0.2c0.1-0.1,0.1-0.2,0.1-0.3
				v-0.8c0,0,0,0,0-0.1c0,0,0.1-0.1,0.1-0.1h0.3c0,0,0,0,0.1,0c0,0,0.1,0.1,0.1,0.1v0.8c0,0.3-0.1,0.6-0.4,0.8
				C556.1,568.1,555.9,568.1,555.7,568.1z"/>
		</g>
		<g>
			<path class="st4" d="M559.8,568.1h-0.3c-0.1,0-0.1-0.1-0.1-0.1v-5.1h-1.1c-0.1,0-0.1-0.1-0.1-0.1v-0.2c0-0.1,0.1-0.1,0.1-0.1h2.7
				c0.1,0,0.1,0.1,0.1,0.1v0.2c0,0.1-0.1,0.1-0.1,0.1H560v5.1C560,568.1,559.9,568.1,559.8,568.1z"/>
		</g>
		<g>
			<path class="st4" d="M565.5,568.1h-2.7c-0.1,0-0.1-0.1-0.1-0.1v-5.5c0-0.1,0.1-0.1,0.1-0.1h2.7c0.1,0,0.1,0.1,0.1,0.1v0.3
				c0,0.1-0.1,0.1-0.1,0.1h-2.3v1.9h1c0.1,0,0.1,0.1,0.1,0.1v0.3c0,0.1-0.1,0.1-0.1,0.1h-1v2.2h2.3c0.1,0,0.1,0.1,0.1,0.1v0.3
				C565.6,568.1,565.6,568.1,565.5,568.1z"/>
		</g>
		<g>
			<path class="st4" d="M569.1,568.1h-1c-0.3,0-0.6-0.1-0.8-0.4c-0.1-0.2-0.2-0.4-0.2-0.6v-0.3c0-0.1,0.1-0.1,0.1-0.1h0.3
				c0.1,0,0.1,0.1,0.1,0.1v0.4c0,0.1,0.1,0.3,0.2,0.4c0.1,0.1,0.2,0.1,0.3,0.1h1c0.1,0,0.3-0.1,0.4-0.2c0.1-0.1,0.1-0.2,0.1-0.3
				c0,0,0,0,0,0V566c0-0.2-0.1-0.4-0.3-0.5c-0.1,0-0.2-0.1-0.3-0.1h-0.9c0,0,0,0,0,0c0,0,0,0,0,0c-0.2,0-0.4-0.1-0.6-0.2
				c-0.2-0.2-0.4-0.5-0.4-0.8v-1.1c0-0.3,0.1-0.6,0.4-0.8c0.2-0.1,0.4-0.2,0.6-0.2h0.9c0.3,0,0.6,0.1,0.8,0.3
				c0.1,0.1,0.2,0.2,0.2,0.3c0,0.1,0.1,0.2,0.1,0.3c0,0,0,0,0,0v0.3c0,0.1-0.1,0.1-0.1,0.1h-0.3c-0.1,0-0.1-0.1-0.1-0.1v-0.3
				c0-0.2-0.1-0.4-0.3-0.5c-0.1,0-0.1,0-0.2,0h-0.9c-0.1,0-0.3,0.1-0.4,0.2c-0.1,0.1-0.1,0.2-0.1,0.3v1.2c0,0.1,0.1,0.2,0.2,0.3
				c0.1,0.1,0.1,0.1,0.2,0.1l0.1,0c0,0,0,0,0.1,0h0.8c0.3,0,0.5,0.1,0.6,0.2c0.2,0.1,0.2,0.2,0.3,0.3c0,0,0.1,0.1,0.1,0.2
				c0,0.1,0,0.2,0,0.3c0,0,0,0,0,0v1.1c0,0.3-0.1,0.6-0.4,0.8C569.5,568.1,569.3,568.1,569.1,568.1z"/>
		</g>
		<path class="st20" d="M572.9,565.2c0-0.5,0.4-1,1-1c0.5,0,1,0.4,1,1c0,0.5-0.4,1-1,1C573.4,566.2,572.9,565.7,572.9,565.2z"/>
		<g>
			<path class="st4" d="M579.5,568.1h-1c-0.3,0-0.6-0.1-0.8-0.4c-0.1-0.2-0.2-0.4-0.2-0.6v-4.6c0-0.1,0.1-0.1,0.1-0.1h0.3
				c0.1,0,0.1,0.1,0.1,0.1v4.6c0,0.1,0.1,0.3,0.2,0.4c0.1,0.1,0.2,0.1,0.3,0.1h1c0.2,0,0.3-0.1,0.4-0.2c0.1-0.1,0.1-0.2,0.1-0.2
				c0,0,0,0,0,0v-4.6c0-0.1,0.1-0.1,0.1-0.1h0.3c0.1,0,0.1,0.1,0.1,0.1v4.6c0,0.3-0.2,0.6-0.5,0.9
				C579.9,568.1,579.7,568.1,579.5,568.1z"/>
		</g>
		<g>
			<path class="st4" d="M584.9,568.1h-0.3c0,0-0.1,0-0.1,0c0,0,0,0-0.5-0.7c0-0.1-0.4-0.7-1.2-1.9h-0.3v2.5c0,0.1-0.1,0.1-0.1,0.1
				h-0.3c-0.1,0-0.1-0.1-0.1-0.1v-5.4c0-0.1,0.1-0.1,0.1-0.1h1.9c0.3,0,0.6,0.1,0.8,0.4c0.1,0.2,0.2,0.4,0.2,0.6v1.1
				c0,0.3-0.1,0.6-0.4,0.8c-0.2,0.1-0.4,0.2-0.6,0.2l-0.1,0l-0.5,0l1.6,2.4c0,0,0,0,0,0.1C585,568.1,584.9,568.1,584.9,568.1z
				 M582.5,565h1.4c0,0,0,0,0.1,0c0,0,0,0,0,0c0.1,0,0.2-0.1,0.3-0.1c0.1-0.1,0.2-0.2,0.2-0.3v-1.1c0-0.1-0.1-0.3-0.2-0.4
				c-0.1-0.1-0.2-0.1-0.3-0.1h-1.5V565z"/>
		</g>
		<g>
			<path class="st4" d="M588.4,568.1h-1.8c-0.1,0-0.1-0.1-0.1-0.1v-5.5c0-0.1,0.1-0.1,0.1-0.1h1.9c0.3,0,0.6,0.1,0.8,0.4
				c0.1,0.2,0.2,0.4,0.2,0.6v1.1c0,0.3-0.1,0.5-0.3,0.7c0.1,0.1,0.2,0.3,0.3,0.5c0,0.1,0,0.2,0,0.3v1c0,0.3-0.1,0.5-0.2,0.7
				C589.1,568,588.8,568.1,588.4,568.1z M587,567.6h1.3c0.3,0,0.3,0,0.4,0c0.1-0.1,0.2-0.2,0.3-0.3c0-0.1,0-0.1,0-0.2V566
				c0-0.2-0.1-0.3-0.2-0.4c-0.1,0-0.2-0.1-0.3-0.1H587V567.6z M587,565h1.3c0.3,0,0.3,0,0.3,0c0.2-0.1,0.2-0.1,0.3-0.3
				c0-0.1,0-0.1,0-0.2v-1.1c0-0.1-0.1-0.3-0.2-0.4c-0.1-0.1-0.2-0.1-0.3-0.1H587V565z"/>
		</g>
		<g>
			<path class="st4" d="M593.8,568.1h-0.3c-0.1,0-0.1,0-0.2-0.4c-0.4-1.4-0.6-2.3-0.6-2.5c0-0.1-0.1-0.4-0.3-1.1l-0.8,3.4
				c0,0.1-0.1,0.3-0.1,0.6c0,0,0,0.1-0.1,0.1c0,0,0,0-0.1,0h-0.3c0,0,0,0-0.1,0c0,0-0.1-0.1-0.1-0.1c0.5-2.2,0.9-3.7,1.1-4.6
				c0.2-0.6,0.2-1,0.3-1c0-0.1,0.1-0.1,0.1-0.1c0,0,0,0,0,0c0.1,0,0.1,0,0.1,0.1l1.4,5.6C593.9,568,593.9,568.1,593.8,568.1
				C593.8,568.1,593.8,568.1,593.8,568.1z"/>
		</g>
		<g>
			<path class="st4" d="M598.2,568.7L598.2,568.7c-0.1,0-0.1,0-0.1-0.1c0-0.1-1.2-2.6-1.6-3.5c-0.3-0.7-0.5-1.1-0.6-1.4v4.2
				c0,0.1-0.1,0.1-0.1,0.1h-0.3c-0.1,0-0.1-0.1-0.1-0.1v-5c0-0.7,0-1,0-1.1c0-0.1,0.1-0.1,0.1-0.1c0,0,0.1,0,0.1,0.1l1.5,3.4
				c0.3,0.7,0.6,1.2,0.7,1.5v-4.2c0,0,0,0,0-0.1c0,0,0.1-0.1,0.1-0.1h0.3c0,0,0.1,0,0.1,0c0,0,0,0.1,0,0.1v6
				C598.4,568.7,598.3,568.7,598.2,568.7z"/>
		</g>
		<g>
			<path class="st4" d="M600.4,568.1h-0.3c-0.1,0-0.1-0.1-0.1-0.1v-5.4c0-0.1,0.1-0.1,0.1-0.1h0.3c0.1,0,0.1,0.1,0.1,0.1v5.4
				C600.5,568.1,600.5,568.1,600.4,568.1z"/>
		</g>
		<g>
			<path class="st4" d="M604,568.1h-1c-0.3,0-0.6-0.1-0.8-0.4c-0.1-0.2-0.2-0.4-0.2-0.6v-0.3c0-0.1,0.1-0.1,0.1-0.1h0.3
				c0.1,0,0.1,0.1,0.1,0.1v0.4c0,0.1,0.1,0.3,0.2,0.4c0.1,0.1,0.2,0.1,0.3,0.1h1c0.1,0,0.3-0.1,0.4-0.2c0.1-0.1,0.1-0.2,0.1-0.3
				c0,0,0,0,0,0V566c0-0.2-0.1-0.4-0.3-0.5c-0.1,0-0.2-0.1-0.3-0.1h-0.9c0,0,0,0,0,0c-0.2,0-0.4-0.1-0.6-0.2
				c-0.2-0.2-0.4-0.5-0.4-0.8v-1.1c0-0.3,0.1-0.6,0.4-0.8c0.2-0.1,0.4-0.2,0.6-0.2h0.9c0.3,0,0.6,0.1,0.8,0.3
				c0.1,0.1,0.2,0.2,0.2,0.3c0,0.1,0.1,0.2,0.1,0.3c0,0,0,0,0,0v0.3c0,0.1-0.1,0.1-0.1,0.1h-0.3c-0.1,0-0.1-0.1-0.1-0.1v-0.3
				c0-0.2-0.1-0.4-0.3-0.5c-0.1,0-0.1,0-0.2,0H603c-0.1,0-0.3,0.1-0.4,0.2c-0.1,0.1-0.1,0.2-0.1,0.3v1.2c0,0.1,0.1,0.2,0.2,0.3
				c0.1,0.1,0.1,0.1,0.2,0.1l0.1,0c0,0,0,0,0.1,0h0.8c0.3,0,0.5,0.1,0.6,0.2c0.2,0.1,0.2,0.2,0.3,0.3c0,0,0.1,0.1,0.1,0.2
				c0,0.1,0,0.2,0,0.3c0,0,0,0,0,0v1.1c0,0.3-0.1,0.6-0.4,0.8C604.4,568.1,604.2,568.1,604,568.1z"/>
		</g>
		<g>
			<path class="st4" d="M608.1,568.1h-0.3c-0.1,0-0.1-0.1-0.1-0.1v-5.1h-1.1c-0.1,0-0.1-0.1-0.1-0.1v-0.2c0-0.1,0.1-0.1,0.1-0.1h2.7
				c0.1,0,0.1,0.1,0.1,0.1v0.2c0,0.1-0.1,0.1-0.1,0.1h-1.1v5.1C608.2,568.1,608.2,568.1,608.1,568.1z"/>
		</g>
		<g>
			<path class="st4" d="M613.8,568.1H611c-0.1,0-0.1-0.1-0.1-0.1v-5.5c0-0.1,0.1-0.1,0.1-0.1h2.7c0.1,0,0.1,0.1,0.1,0.1v0.3
				c0,0.1-0.1,0.1-0.1,0.1h-2.3v1.9h1c0.1,0,0.1,0.1,0.1,0.1v0.3c0,0.1-0.1,0.1-0.1,0.1h-1v2.2h2.3c0.1,0,0.1,0.1,0.1,0.1v0.3
				C613.9,568.1,613.8,568.1,613.8,568.1z"/>
		</g>
		<g>
			<path class="st4" d="M617.2,568.1h-1c-0.3,0-0.6-0.1-0.8-0.4c-0.1-0.2-0.2-0.4-0.2-0.6v-0.3c0-0.1,0.1-0.1,0.1-0.1h0.3
				c0.1,0,0.1,0.1,0.1,0.1v0.4c0,0.1,0.1,0.3,0.2,0.4c0.1,0.1,0.2,0.1,0.3,0.1h1c0.1,0,0.3-0.1,0.4-0.2c0.1-0.1,0.1-0.2,0.1-0.3
				c0,0,0,0,0,0V566c0-0.2-0.1-0.4-0.3-0.5c-0.1,0-0.2-0.1-0.3-0.1h-0.9c0,0,0,0,0,0c-0.2,0-0.4-0.1-0.6-0.2
				c-0.2-0.2-0.4-0.5-0.4-0.8v-1.1c0-0.3,0.1-0.6,0.4-0.8c0.2-0.1,0.4-0.2,0.6-0.2h0.9c0.3,0,0.6,0.1,0.8,0.3
				c0.1,0.1,0.2,0.2,0.2,0.3c0,0.1,0.1,0.2,0.1,0.3c0,0,0,0,0,0v0.3c0,0.1-0.1,0.1-0.1,0.1h-0.3c-0.1,0-0.1-0.1-0.1-0.1v-0.3
				c0-0.2-0.1-0.4-0.3-0.5c-0.1,0-0.1,0-0.2,0h-0.9c-0.1,0-0.3,0.1-0.4,0.2c-0.1,0.1-0.1,0.2-0.1,0.3v1.2c0,0.1,0.1,0.2,0.2,0.3
				c0.1,0.1,0.1,0.1,0.2,0.1l0.1,0c0,0,0,0,0.1,0h0.8c0.3,0,0.5,0.1,0.6,0.2c0.2,0.1,0.2,0.2,0.3,0.3c0,0,0.1,0.1,0.1,0.2
				c0,0.1,0,0.2,0,0.3c0,0,0,0,0,0v1.1c0,0.3-0.1,0.6-0.4,0.8C617.6,568.1,617.4,568.1,617.2,568.1z"/>
		</g>
	</g>
	<g>
		<path class="st20" d="M652.3,523.4C652.6,523.6,652.3,523.3,652.3,523.4L652.3,523.4z"/>
		<path class="st20" d="M646,549.3c0.9,0.4,1.8,0.8,2.7,1.4c0.4,0.7,0.1,1.5,0.5,2.2c0.5,0.6,1.1,0.4,1.6,0.9
			c0.7,0.6,0.8,1.7,1.3,2.2c0.6,0.6,1.4,0.5,1.9,1c0.4,0.3,0.5,1,0.8,1.3c0.2,0.2,0.5,0.3,0.7,0.5c0.8,0.4,1.3,0,2,0.4
			c0.3,0.2,0.5,0.6,0.9,0.8c0.6,0.3,0.8,0,1.4,0c0.5-0.1,1,0.1,1.4-0.1c0.3-0.2,0.8-0.7,1-1.1c0.6-1,0.6-2.7,0.9-4.1
			c0.3-1.4,0.5-2.8,0.6-4.1c0.1-0.8,0.4-1.7,0.6-2.4c0.4-1.1,1.6-2.1,2.5-2.7c1.7-1.1,3.9-2,6.2-1.4c2.1,0.6,3.8,2.3,6.1,3.7
			c5.7,3.4,7.4,2.1,13.1,4.9l0.1,0c3-5.1,4.6-10.9,4.6-16.8c0-18.1-14.7-32.8-32.8-32.8c-18.1,0-32.8,14.7-32.8,32.8
			c0,18.1,14.7,32.8,32.8,32.8c7,0,13.6-2.2,19.2-6.2l-0.8-1.1c-5.4,3.9-11.8,6-18.5,6c-17.4,0-31.5-14.1-31.5-31.5
			c0-17.4,14.1-31.5,31.5-31.5c17.4,0,31.5,14.1,31.5,31.5c0,5.1-1.3,10.2-3.6,14.7c-3.3-0.7-8.5-2-11.1-3.1
			c-1.9-0.8-4.4-2.6-6.1-4.8c-1.2-2.4-0.9-5.2,1-7.3c1-1.1,2.4-1.9,3.7-2.7c1.9-1.2,4-2.1,6-3.4c0.7-0.4,1.6-0.7,2-1.1
			c0.6-0.7,0.7-1.7,1.1-2.5c-0.4-0.5-0.2-1.5-0.8-2.1c-0.2-0.2-0.7-0.5-1-0.7c-0.7-0.6-1-1.3-1.7-1.7c-0.7-0.4-1.6-0.1-2.4-0.6
			c-0.7-0.4-1.1-1.2-1.9-1.7c-0.7-0.6-1.8-1.3-2.6-1.8c-1.6-0.9-2.9-0.5-4.3-1.4c-0.4-0.2-0.6,0.4-1,0.4c-0.2-0.2-0.5-0.4-0.8-0.6
			c-1.4,0.5-4-2.2-5.6-1.9c-0.4,0.1-0.6,0.4-1,0.5c-0.3,0.1-0.7-0.1-1,0c-0.4,0.1-0.6,0.3-0.8,0.3c-0.5,0-1-0.4-1.6-0.4
			c-0.4,0-0.7,0.2-1.1,0.2c-0.8,0-0.9,1.8-1.7,1.7c-0.9-0.2-1.8-0.5-2.6-0.5c-0.6,0-1.2,0.2-1.9,0.3c-0.7,0.1-1.5,0.2-1.9,0.5
			c-0.5,0.5-0.5,1.3-0.8,2c-0.2,0.5-0.5,0.9-0.6,1.3c-0.4,1.7,1.4,3.7,3.1,5.3c1,1,0.1,0.2,0.4,1.3c-0.9-0.2-1.7-1.2-2.6-2
			c-0.2-0.2-0.3-0.3-0.3-0.3c-0.1,0-0.1-0.1-0.2-0.1c-0.7-0.4-2.2-1.2-2.9-1.1c-0.4,0.1-0.4,0.4-1,0.9c-0.4,0.4-0.9,0.3-1.2,0.5
			c-0.2,0.2-0.3,0.7-0.6,1c-0.6,0.7-1.5,1.4-1.9,2.1c-0.3,0.6-0.2,1.3-0.5,1.8c-0.3,0.5-0.7,0.7-0.8,1.1c-0.1,0.5,0.4,1,0.7,1.5
			c0,0.4-0.4,0.6-0.5,0.9c-0.1,0.3,0.2,0.5,0.2,0.9c0,0.4-0.3,0.7-0.2,0.9c0,0.4,0.4,0.6,0.5,1c0.1,0.4-0.1,0.7,0.2,1.1
			c-0.2,0.3-0.5,0.4-0.6,0.7c0.1,0.8,0.6,1.6,1.4,2.4c0,0.7-0.6,0.8-0.8,1.3c-0.3,0.9,0.7,1.8,0.7,2.7c-0.2,0.6-0.6,0.9-0.6,1.3
			c-0.1,0.8,0.8,1.1,1.3,1.9c0.4,0.5,0.3,1.1,0.8,1.5C646.3,548.3,645.7,548.8,646,549.3z"/>
	</g>
	<rect x="959.7" y="500.1" class="st12" width="177.2" height="30.3"/>
	<text transform="matrix(1 0 0 1 959.7047 506.5031)"><tspan x="0" y="0" class="st4 st10 st21">David Turc</tspan><tspan x="40.3" y="0" class="st10 st21">, BTS Design d’espace</tspan><tspan x="0" y="10.8" class="st4 st10 st21">Céline Sailly</tspan><tspan x="44.9" y="10.8" class="st10 st21">, DNSEP Design d’espace</tspan></text>
	<rect x="910.2" y="289" class="st12" width="215.8" height="173.9"/>
	<text transform="matrix(1 0 0 1 910.172 295.4103)"><tspan x="0" y="0" class="st4 st10 st21">Mélanie Beaudoin</tspan><tspan x="67.8" y="0" class="st10 st21">, Architecte HMONP</tspan><tspan x="0" y="10.8" class="st4 st10 st21">Yannick Berthélémé</tspan><tspan x="75.2" y="10.8" class="st10 st21">, Architecte DPLG, Concepteur Passif</tspan><tspan x="0" y="21.7" class="st4 st10 st21">Sophie Cordier</tspan><tspan x="55.9" y="21.7" class="st10 st21">, Architecte HMONP, Concepteur Passif</tspan><tspan x="0" y="32.5" class="st4 st10 st21">Guillaume Dupont</tspan><tspan x="69.6" y="32.5" class="st10 st21">, Architecte DE</tspan><tspan x="0" y="43.3" class="st4 st10 st21">Gilles Gaudefroy</tspan><tspan x="61.8" y="43.3" class="st10 st21">, Architecte HMONP</tspan><tspan x="0" y="54.2" class="st4 st10 st21">Jean Philippe Mantez</tspan><tspan x="80" y="54.2" class="st10 st21">, Architecte DE</tspan><tspan x="0" y="65" class="st4 st10 st21">Ingrid Petit</tspan><tspan x="41.7" y="65" class="st10 st21">, Architecte DPLG</tspan><tspan x="0" y="75.9" class="st4 st10 st21">Thomas Plankeele</tspan><tspan x="68.1" y="75.9" class="st10 st21">, Architecte DPLG</tspan><tspan x="0" y="86.7" class="st4 st10 st21">Jérome Pruvost</tspan><tspan x="58.3" y="86.7" class="st10 st21">, Architecte DPLG</tspan><tspan x="0" y="97.5" class="st4 st10 st21">Guillaume Quilico</tspan><tspan x="67" y="97.5" class="st10 st21">, Architecte DPLG</tspan><tspan x="0" y="108.4" class="st4 st10 st21">Sylvie Robas</tspan><tspan x="46.6" y="108.4" class="st10 st21">, Architecte DPLG</tspan><tspan x="0" y="119.2" class="st4 st10 st21">Mathilde Taffin</tspan><tspan x="56.6" y="119.2" class="st10 st21">, Architecte DE</tspan><tspan x="0" y="130" class="st4 st10 st21">François Thery</tspan><tspan x="54.6" y="130" class="st10 st21">, Architecte DPLG</tspan><tspan x="0" y="140.9" class="st4 st10 st21">Annie tronquoy</tspan><tspan x="59.3" y="140.9" class="st10 st21">, Architecte DPLG</tspan><tspan x="0" y="151.7" class="st4 st10 st21">Sophie Demeer</tspan><tspan x="58.2" y="151.7" class="st10 st21">, Architecte HMONP</tspan></text>
	<line class="st3" x1="899.1" y1="510.2" x2="955.1" y2="510.2"/>
	<line class="st3" x1="955.1" y1="535.8" x2="955.1" y2="483.5"/>
	<line class="st3" x1="905.6" y1="406.2" x2="905.6" y2="353.8"/>
	<line class="st3" x1="883.9" y1="640.5" x2="939.8" y2="640.5"/>
	<line class="st3" x1="939.8" y1="666.7" x2="939.8" y2="614.3"/>
	<line class="st3" x1="765.6" y1="769" x2="821.5" y2="769"/>
	<line class="st3" x1="821.5" y1="795.2" x2="821.5" y2="742.8"/>
	<line class="st3" x1="847.5" y1="380" x2="905.6" y2="380"/>
	<rect x="946.5" y="625.5" class="st12" width="151" height="30"/>
	<text transform="matrix(1 0 0 1 946.5045 631.9382)"><tspan x="0" y="0" class="st4 st10 st21">Gilles Gaudefroy</tspan><tspan x="61.8" y="0" class="st10 st21">, Architecte HMONP</tspan><tspan x="0" y="10.8" class="st4 st10 st21">Ingrid Petit</tspan><tspan x="41.7" y="10.8" class="st10 st21">, Architecte DPLG</tspan><tspan x="0" y="21.7" class="st4 st10 st21">Thomas Plankeele</tspan><tspan x="68.1" y="21.7" class="st10 st21">, Architecte DPLG</tspan></text>
	<rect x="826.7" y="759.1" class="st12" width="238.2" height="19.8"/>
	<text transform="matrix(1 0 0 1 826.7139 765.5453)"><tspan x="0" y="0" class="st4 st10 st21">Salvatore Camboni</tspan><tspan x="71.3" y="0" class="st10 st21">, Licence économie de la construction</tspan><tspan x="0" y="10.8" class="st4 st10 st21">Lydie Devos</tspan><tspan x="45.6" y="10.8" class="st10 st21">, BTS économie de la construction</tspan></text>
	<line class="st3" x1="393.8" y1="769" x2="337.9" y2="769"/>
	<line class="st3" x1="337.9" y1="742.8" x2="337.9" y2="795.2"/>
	<rect x="91.7" y="753.7" class="st12" width="238.2" height="30.7"/>
	<text transform="matrix(1 0 0 1 115.3185 760.0924)"><tspan x="0" y="0" class="st10 st21"> Licence économie de la construction ,</tspan><tspan x="143.3" y="0" class="st4 st10 st21">Salvatore Camboni</tspan><tspan x="214.6" y="0" class="st10 st21"> </tspan><tspan x="42.3" y="10.8" class="st10 st21">BTS économie de la construction, </tspan><tspan x="169" y="10.8" class="st4 st10 st21">Lydie Devos</tspan><tspan x="0.4" y="21.7" class="st10 st21">Licence Pro Economiste en agencement</tspan><tspan x="150.6" y="21.7" class="st4 st10 st21">, Chloé Demarest</tspan></text>
	<line class="st3" x1="278.4" y1="640.5" x2="222.4" y2="640.5"/>
	<line class="st3" x1="222.4" y1="614.3" x2="222.4" y2="666.7"/>
	<rect x="9.9" y="633.2" class="st12" width="207.3" height="47.6"/>
	<text transform="matrix(1 0 0 1 79.8115 639.6112)"><tspan x="0" y="0" class="st10 st21"> Bac Pro secrétariat ,</tspan><tspan x="74.9" y="0" class="st4 st10 st21">Déborah Favorel</tspan><tspan x="137.4" y="0" class="st10 st21"> </tspan><tspan x="-10.2" y="10.8" class="st10 st21">Master Eco-conception, </tspan><tspan x="80.2" y="10.8" class="st4 st10 st21">Audrey Guidon</tspan></text>
</g>
</svg>
